<svg width="445" height="263" viewBox="0 0 445 263" fill="none" xmlns="http://www.w3.org/2000/svg">
<path d="M101.506 61.3081H4.6875V115.444H101.506V61.3081Z" fill="#FAFAFA"/>
<path d="M101.51 115.445C101.51 115.445 101.51 115.11 101.51 114.471C101.51 113.833 101.51 112.878 101.51 111.645C101.51 109.166 101.51 105.509 101.479 100.816C101.479 91.4445 101.442 77.9259 101.417 61.3081L101.541 61.4321L4.72866 61.4693L4.88982 61.3081C4.88982 80.4548 4.88982 98.7648 4.88982 115.445L4.74106 115.296L74.3671 115.37L94.3692 115.407H99.706H101.082H101.559H101.101H99.7432H94.4374L74.4663 115.451L4.66668 115.599H4.51172V115.445C4.51172 98.7648 4.51172 80.4548 4.51172 61.3081V61.147H4.68527L101.497 61.1842H101.621V61.3081C101.59 77.9631 101.572 91.5065 101.553 100.897C101.553 105.571 101.553 109.215 101.522 111.688C101.522 112.928 101.522 113.858 101.522 114.496C101.522 115.135 101.51 115.445 101.51 115.445Z" fill="#E0E0E0"/>
<path d="M30.2035 74.2131H16.5176V87.8991H30.2035V74.2131Z" fill="#E0E0E0"/>
<path d="M49.0111 76.116C49.0111 76.2028 45.8128 76.2771 41.8768 76.2771C37.9409 76.2771 34.7363 76.2028 34.7363 76.116C34.7363 76.0292 37.9347 75.9548 41.8768 75.9548C45.819 75.9548 49.0111 76.0478 49.0111 76.116Z" fill="#E0E0E0"/>
<path d="M94.5876 81.0747C94.5876 81.1615 81.193 81.2359 64.6682 81.2359C48.1434 81.2359 34.7363 81.1615 34.7363 81.0747C34.7363 80.988 48.1372 80.9136 64.6682 80.9136C81.1992 80.9136 94.5876 80.9694 94.5876 81.0747Z" fill="#E0E0E0"/>
<path d="M74.4535 86.5789C74.4535 86.6657 65.6457 86.74 54.7862 86.74C43.9267 86.74 35.125 86.6657 35.125 86.5789C35.125 86.4921 43.9267 86.4177 54.7862 86.4177C65.6457 86.4177 74.4535 86.4859 74.4535 86.5789Z" fill="#E0E0E0"/>
<path d="M87.1726 108.273H21.0362C19.3539 108.271 17.7411 107.602 16.5521 106.412C15.3632 105.222 14.6953 103.608 14.6953 101.926C14.6953 100.244 15.3634 98.6313 16.5525 97.4422C17.7417 96.253 19.3545 95.585 21.0362 95.585H87.1726C88.0058 95.5841 88.831 95.7476 89.6011 96.0659C90.3711 96.3841 91.0709 96.8511 91.6603 97.44C92.2498 98.0289 92.7174 98.7282 93.0365 99.4979C93.3555 100.268 93.5197 101.093 93.5197 101.926C93.5197 102.759 93.3556 103.585 93.0366 104.355C92.7176 105.125 92.2501 105.825 91.6607 106.414C91.0713 107.003 90.3716 107.471 89.6015 107.79C88.8315 108.109 88.0061 108.273 87.1726 108.273Z" fill="#E0E0E0"/>
<path d="M41.95 102.818H40.326L40.0161 103.568H39.1855L40.7475 100.073H41.5471L43.0967 103.568H42.2599L41.95 102.818ZM41.6959 102.199L41.138 100.86L40.6174 102.205L41.6959 102.199Z" fill="white"/>
<path d="M46.5056 101.337C46.5056 102.118 45.8858 102.577 44.987 102.577H44.2804V103.544H43.4746V100.048H44.987C45.9168 100.073 46.5056 100.556 46.5056 101.337ZM45.6874 101.337C45.6874 100.953 45.4333 100.717 44.9374 100.717H44.2804V101.957H44.956C45.4333 101.945 45.6874 101.721 45.6874 101.337Z" fill="white"/>
<path d="M50.1052 101.337C50.1052 102.118 49.5226 102.577 48.5928 102.577H47.8862V103.544H47.0742V100.048H48.5928C49.5226 100.073 50.1052 100.556 50.1052 101.337ZM49.287 101.337C49.287 100.953 49.0391 100.717 48.5432 100.717H47.8862V101.957H48.5432C49.0391 101.945 49.2932 101.721 49.2932 101.337H49.287Z" fill="white"/>
<path d="M50.6816 100.073H51.4936V102.905H53.2478V103.568H50.6816V100.073Z" fill="white"/>
<path d="M55.0206 102.329V103.568H54.2087V102.329L52.8574 100.085H53.7128L54.6487 101.635L55.5847 100.085H56.3781L55.0206 102.329Z" fill="white"/>
<path d="M61.3374 100.073V103.568H60.6741L58.9324 101.442V103.568H58.1328V100.073H58.8022L60.5378 102.192V100.073H61.3374Z" fill="white"/>
<path d="M61.945 101.821C61.9214 101.436 62.0139 101.053 62.2104 100.722C62.407 100.391 62.6986 100.126 63.0473 99.9629C63.3961 99.7994 63.7859 99.7445 64.1662 99.8053C64.5466 99.8661 64.8998 100.04 65.1802 100.304C65.4606 100.568 65.6552 100.91 65.7387 101.286C65.8222 101.662 65.7908 102.055 65.6485 102.413C65.5062 102.77 65.2596 103.077 64.9408 103.293C64.6219 103.509 64.2455 103.625 63.8603 103.624C63.6144 103.639 63.3682 103.603 63.1367 103.518C62.9053 103.434 62.6934 103.304 62.5141 103.135C62.3348 102.966 62.1918 102.762 62.094 102.536C61.9961 102.31 61.9454 102.067 61.945 101.821ZM64.9512 101.821C64.9463 101.606 64.8782 101.397 64.7554 101.221C64.6326 101.045 64.4606 100.909 64.2609 100.83C64.0612 100.752 63.8426 100.734 63.6327 100.778C63.4227 100.823 63.2307 100.929 63.0806 101.083C62.9305 101.236 62.829 101.431 62.7889 101.641C62.7488 101.852 62.7718 102.07 62.855 102.268C62.9383 102.466 63.0781 102.635 63.2569 102.754C63.4357 102.873 63.6456 102.936 63.8603 102.936C64.0069 102.941 64.1528 102.915 64.2889 102.86C64.4249 102.805 64.5481 102.723 64.6506 102.618C64.7532 102.513 64.8328 102.388 64.8846 102.251C64.9363 102.113 64.959 101.967 64.9512 101.821Z" fill="white"/>
<path d="M71.5558 100.073L70.4091 103.568H69.5413L68.7727 101.201L67.9793 103.568H67.1177L65.9648 100.073H66.8078L67.595 102.552L68.4194 100.073H69.1694L69.969 102.552L70.781 100.073H71.5558Z" fill="white"/>
<path d="M103.553 176.591H19.8691V223.383H103.553V176.591Z" fill="#FAFAFA"/>
<path d="M103.558 223.389C103.558 223.389 103.558 223.097 103.558 222.54C103.558 221.982 103.558 221.163 103.558 220.097C103.558 217.947 103.558 214.792 103.52 210.738C103.52 202.637 103.483 190.953 103.458 176.591L103.582 176.715L19.9047 176.752L20.0659 176.591C20.0659 193.141 20.0659 208.965 20.0659 223.389L19.9171 223.234L80.0907 223.308L97.3841 223.352H101.996H103.192H103.601H101.983H97.4027L80.1403 223.395L19.8675 223.469H19.7188V223.321C19.7188 208.897 19.7188 193.073 19.7188 176.523V176.362H19.8861L103.564 176.399H103.688V176.523C103.657 190.922 103.638 202.63 103.62 210.744C103.62 214.785 103.62 217.934 103.62 220.073C103.62 221.132 103.62 221.932 103.62 222.502C103.62 223.073 103.558 223.389 103.558 223.389Z" fill="#E0E0E0"/>
<path d="M41.9323 187.748H30.0996V199.581H41.9323V187.748Z" fill="#E0E0E0"/>
<path d="M58.1782 189.41C56.1163 189.57 54.0474 189.624 51.9799 189.571C49.9227 189.623 47.8641 189.569 45.8125 189.41C47.8641 189.25 49.9227 189.196 51.9799 189.248C54.0474 189.195 56.1163 189.249 58.1782 189.41Z" fill="#E0E0E0"/>
<path d="M97.5713 193.661C97.5713 193.748 85.9928 193.823 71.7056 193.823C57.4184 193.823 45.8398 193.748 45.8398 193.661C45.8398 193.575 57.4184 193.5 71.7056 193.5C85.9928 193.5 97.5713 193.575 97.5713 193.661Z" fill="#E0E0E0"/>
<path d="M80.1685 198.434C80.1685 198.521 72.5569 198.595 63.1726 198.595C53.7883 198.595 46.1953 198.521 46.1953 198.434C46.1953 198.347 53.8069 198.273 63.1912 198.273C72.5755 198.273 80.1685 198.341 80.1685 198.434Z" fill="#E0E0E0"/>
<path d="M91.1643 217.184H34.0031C32.5483 217.184 31.153 216.606 30.1243 215.577C29.0955 214.549 28.5176 213.153 28.5176 211.699C28.5176 210.979 28.6595 210.265 28.9353 209.6C29.211 208.935 29.6152 208.331 30.1246 207.822C30.6341 207.313 31.2389 206.91 31.9044 206.635C32.5699 206.36 33.283 206.218 34.0031 206.219H91.1643C91.8844 206.218 92.5976 206.36 93.2631 206.635C93.9286 206.91 94.5333 207.313 95.0428 207.822C95.5523 208.331 95.9564 208.935 96.2322 209.6C96.5079 210.265 96.6498 210.979 96.6498 211.699C96.6498 213.153 96.0719 214.549 95.0432 215.577C94.0144 216.606 92.6192 217.184 91.1643 217.184Z" fill="#E0E0E0"/>
<path d="M52.0735 212.48H50.6727L50.4062 213.1H49.6934L51.0384 210.081H51.7264L53.0777 213.1H52.3401L52.0735 212.48ZM51.8566 211.947L51.3793 210.794L50.8958 211.947H51.8566Z" fill="white"/>
<path d="M56.0109 211.197C56.0109 211.866 55.5088 212.288 54.7031 212.288H54.0832V213.1H53.3828V210.081H54.6907C55.4965 210.1 56.0109 210.515 56.0109 211.197ZM55.3043 211.197C55.3043 210.862 55.0874 210.67 54.6845 210.67H54.1142V211.717H54.6845C55.0874 211.717 55.3043 211.525 55.3043 211.197Z" fill="white"/>
<path d="M59.1242 211.197C59.1242 211.866 58.6221 212.288 57.8163 212.288H57.1965V213.1H56.4961V210.081H57.8039C58.6221 210.1 59.1242 210.515 59.1242 211.197ZM58.4176 211.197C58.4176 210.862 58.2006 210.67 57.7977 210.67H57.2337V211.717H57.7977C58.2006 211.717 58.4176 211.525 58.4176 211.197Z" fill="white"/>
<path d="M59.627 210.1H60.3212V212.548H61.8398V213.1H59.627V210.1Z" fill="white"/>
<path d="M63.3677 212.046V213.1H62.6672V212.021L61.502 210.081H62.2396L63.0515 211.42L63.8573 210.081H64.5391L63.3677 212.046Z" fill="white"/>
<path d="M68.8332 210.1V213.1H68.2567L66.7567 211.24V213.1H66.0625V210.081H66.6513L68.1575 211.941V210.081L68.8332 210.1Z" fill="white"/>
<path d="M69.3581 211.606C69.3395 211.275 69.4205 210.947 69.5907 210.662C69.7609 210.378 70.0123 210.152 70.3126 210.012C70.6129 209.873 70.9482 209.826 71.2751 209.879C71.602 209.932 71.9055 210.082 72.1464 210.309C72.3872 210.537 72.5543 210.831 72.6261 211.154C72.6978 211.478 72.6709 211.815 72.5489 212.123C72.4268 212.431 72.2152 212.695 71.9414 212.881C71.6676 213.067 71.3442 213.167 71.013 213.168C70.8002 213.181 70.5871 213.15 70.3867 213.077C70.1863 213.004 70.003 212.891 69.8479 212.745C69.6929 212.598 69.5695 212.422 69.4852 212.226C69.401 212.03 69.3577 211.819 69.3581 211.606ZM71.9552 211.606C71.9503 211.421 71.8909 211.241 71.7845 211.089C71.6781 210.938 71.5293 210.821 71.3567 210.753C71.1842 210.686 70.9956 210.671 70.8145 210.71C70.6334 210.749 70.4679 210.84 70.3386 210.973C70.2093 211.106 70.122 211.274 70.0876 211.456C70.0532 211.638 70.0733 211.826 70.1452 211.997C70.2172 212.167 70.3379 212.313 70.4923 212.416C70.6466 212.518 70.8278 212.573 71.013 212.573C71.1399 212.576 71.2661 212.554 71.3837 212.506C71.5013 212.458 71.6077 212.387 71.6962 212.296C71.7848 212.205 71.8535 212.097 71.8981 211.978C71.9427 211.859 71.9621 211.733 71.9552 211.606Z" fill="white"/>
<path d="M77.6592 210.1L76.6737 213.1H75.9484L75.279 211.054L74.5972 213.1H73.8472L72.8555 210.081H73.5807L74.2625 212.201L74.9753 210.081H75.5951L76.2894 212.219L76.9898 210.081L77.6592 210.1Z" fill="white"/>
<path d="M395.1 197.703H311.416V244.494H395.1V197.703Z" fill="#FAFAFA"/>
<path d="M395.102 244.5C395.102 244.5 395.102 244.209 395.102 243.651C395.102 243.093 395.102 242.275 395.102 241.209C395.102 239.058 395.102 235.903 395.071 231.849C395.071 223.748 395.034 212.064 395.003 197.703L395.127 197.827L311.449 197.864L311.61 197.703C311.61 214.252 311.61 230.077 311.61 244.5L311.461 244.345L371.635 244.42L388.928 244.463H393.54H394.736H395.145H393.577H388.996L371.734 244.506L311.461 244.581H311.312V244.432C311.312 230.009 311.312 214.184 311.312 197.635V197.473H311.48L395.158 197.511H395.282V197.635C395.251 212.033 395.232 223.742 395.213 231.856C395.213 235.897 395.213 239.046 395.213 241.184C395.213 242.244 395.213 243.044 395.213 243.614C395.213 244.184 395.102 244.5 395.102 244.5Z" fill="#E0E0E0"/>
<path d="M333.477 208.86H321.645V220.693H333.477V208.86Z" fill="#E0E0E0"/>
<path d="M349.721 210.521C345.613 210.736 341.495 210.736 337.387 210.521C341.495 210.306 345.613 210.306 349.721 210.521Z" fill="#E0E0E0"/>
<path d="M389.118 214.773C389.118 214.86 377.54 214.934 363.252 214.934C348.965 214.934 337.387 214.86 337.387 214.773C337.387 214.686 348.965 214.612 363.252 214.612C377.54 214.612 389.118 214.686 389.118 214.773Z" fill="#E0E0E0"/>
<path d="M371.714 219.546C371.714 219.633 364.103 219.707 354.719 219.707C345.334 219.707 337.723 219.633 337.723 219.546C337.723 219.459 345.334 219.385 354.719 219.385C364.103 219.385 371.714 219.453 371.714 219.546Z" fill="#E0E0E0"/>
<path d="M382.711 238.296H325.55C324.095 238.296 322.7 237.718 321.671 236.689C320.642 235.661 320.064 234.265 320.064 232.81C320.064 232.09 320.206 231.377 320.482 230.712C320.758 230.047 321.162 229.443 321.672 228.934C322.181 228.425 322.786 228.021 323.451 227.746C324.117 227.471 324.83 227.33 325.55 227.331H382.711C383.431 227.33 384.144 227.471 384.81 227.746C385.475 228.021 386.08 228.425 386.59 228.934C387.099 229.443 387.503 230.047 387.779 230.712C388.055 231.377 388.197 232.09 388.197 232.81C388.197 234.265 387.619 235.661 386.59 236.689C385.561 237.718 384.166 238.296 382.711 238.296Z" fill="#E0E0E0"/>
<path d="M343.623 233.585H342.216L341.949 234.205H341.236L342.581 231.186H343.269L344.621 234.205H343.889L343.623 233.585ZM343.4 233.052L342.922 231.893L342.445 233.052H343.4Z" fill="white"/>
<path d="M347.56 232.314C347.56 232.984 347.052 233.405 346.246 233.405H345.626V234.236H344.957V231.217H346.265C347.052 231.211 347.56 231.626 347.56 232.314ZM346.854 232.314C346.854 231.98 346.637 231.788 346.234 231.788H345.664V232.835H346.197C346.637 232.829 346.854 232.631 346.854 232.314Z" fill="white"/>
<path d="M350.677 232.314C350.677 232.984 350.168 233.405 349.363 233.405H348.743V234.236H348.055V231.217H349.363C350.168 231.211 350.677 231.626 350.677 232.314ZM349.964 232.314C349.964 231.98 349.753 231.788 349.344 231.788H348.774V232.835H349.344C349.753 232.829 349.964 232.631 349.964 232.314Z" fill="white"/>
<path d="M351.154 231.211H351.855V233.66H353.367V234.23H351.154V231.211Z" fill="white"/>
<path d="M354.919 233.157V234.23H354.255V233.151L353.084 231.211H353.828L354.634 232.55L355.439 231.211H356.115L354.919 233.157Z" fill="white"/>
<path d="M360.383 231.211V234.23H359.837L358.331 232.37V234.23H357.637V231.211H358.219L359.719 233.071V231.211H360.383Z" fill="white"/>
<path d="M360.913 232.717C360.894 232.386 360.975 232.058 361.146 231.773C361.316 231.489 361.568 231.263 361.869 231.123C362.169 230.984 362.505 230.938 362.832 230.991C363.159 231.045 363.463 231.195 363.703 231.423C363.944 231.651 364.111 231.946 364.182 232.27C364.253 232.593 364.225 232.931 364.102 233.239C363.979 233.546 363.766 233.81 363.492 233.996C363.217 234.181 362.893 234.28 362.562 234.279C362.349 234.292 362.136 234.261 361.936 234.188C361.736 234.115 361.553 234.002 361.399 233.856C361.244 233.709 361.121 233.533 361.038 233.337C360.954 233.141 360.912 232.93 360.913 232.717ZM363.51 232.717C363.506 232.531 363.448 232.349 363.341 232.196C363.235 232.042 363.085 231.924 362.912 231.855C362.738 231.786 362.548 231.77 362.365 231.808C362.183 231.847 362.015 231.939 361.885 232.072C361.754 232.205 361.665 232.374 361.63 232.558C361.595 232.741 361.615 232.931 361.687 233.103C361.76 233.275 361.881 233.422 362.037 233.526C362.192 233.629 362.375 233.684 362.562 233.684C362.689 233.688 362.815 233.665 362.933 233.618C363.051 233.57 363.158 233.499 363.247 233.408C363.336 233.317 363.405 233.209 363.45 233.09C363.496 232.971 363.516 232.844 363.51 232.717Z" fill="white"/>
<path d="M369.205 231.211L368.22 234.23H367.47L366.806 232.184L366.118 234.23H365.375L364.383 231.211H365.108L365.79 233.331L366.496 231.211H367.116L367.804 233.35L368.505 231.211H369.205Z" fill="white"/>
<path d="M425.242 83.4487H328.424V137.585H425.242V83.4487Z" fill="#FAFAFA"/>
<path d="M425.244 137.585C425.244 137.585 425.244 137.25 425.244 136.612C425.244 135.973 425.244 135.025 425.244 133.785C425.244 131.306 425.244 127.649 425.244 122.963C425.244 113.591 425.207 100.073 425.176 83.4486L425.3 83.5725L328.488 83.6097L328.649 83.4486C328.649 102.595 328.649 120.905 328.649 137.585L328.5 137.436L398.126 137.511L418.134 137.554H423.465H425.324H424.872H423.508H418.203L398.231 137.597L328.506 137.672H328.357V137.517C328.357 120.837 328.357 102.527 328.357 83.3804V83.2192H328.525L425.337 83.2564H425.461V83.3804C425.461 100.035 425.411 113.579 425.393 122.969C425.393 127.643 425.393 131.287 425.393 133.767C425.393 135.006 425.393 135.93 425.393 136.568C425.393 137.207 425.244 137.585 425.244 137.585Z" fill="#E0E0E0"/>
<path d="M353.944 96.3535H340.258V110.039H353.944V96.3535Z" fill="#E0E0E0"/>
<path d="M372.743 98.2752C372.743 98.3681 369.551 98.4363 365.609 98.4363C361.667 98.4363 358.475 98.3681 358.475 98.2752C358.475 98.1822 361.667 98.114 365.609 98.114C369.551 98.114 372.743 98.1884 372.743 98.2752Z" fill="#E0E0E0"/>
<path d="M418.326 103.197C418.326 103.29 404.925 103.358 388.4 103.358C371.875 103.358 358.475 103.29 358.475 103.197C358.475 103.104 371.869 103.035 388.4 103.035C404.931 103.035 418.326 103.11 418.326 103.197Z" fill="#E0E0E0"/>
<path d="M398.19 108.719C398.19 108.806 389.388 108.88 378.529 108.88C367.669 108.88 358.861 108.806 358.861 108.719C358.861 108.632 367.663 108.558 378.529 108.558C389.394 108.558 398.19 108.626 398.19 108.719Z" fill="#E0E0E0"/>
<path d="M410.915 117.726H344.773C341.271 117.726 338.432 120.565 338.432 124.066V124.073C338.432 127.575 341.271 130.414 344.773 130.414H410.915C414.417 130.414 417.256 127.575 417.256 124.073V124.066C417.256 120.565 414.417 117.726 410.915 117.726Z" fill="#E0E0E0"/>
<path d="M365.684 124.959H364.06L363.75 125.709H362.932L364.487 122.213H365.287L366.849 125.709H366L365.684 124.959ZM365.43 124.339L364.878 123L364.32 124.339H365.43Z" fill="white"/>
<path d="M370.238 123.484C370.238 124.259 369.655 124.724 368.719 124.724H368.019V125.703H367.207V122.207H368.719C369.655 122.213 370.238 122.697 370.238 123.484ZM369.42 123.484C369.42 123.1 369.172 122.864 368.676 122.864H368.019V124.104H368.676C369.172 124.085 369.42 123.843 369.42 123.484Z" fill="white"/>
<path d="M373.844 123.484C373.844 124.259 373.262 124.724 372.326 124.724H371.607V125.703H370.801V122.207H372.313C373.262 122.213 373.844 122.697 373.844 123.484ZM373.026 123.484C373.026 123.1 372.772 122.864 372.282 122.864H371.607V124.104H372.27C372.772 124.085 373.026 123.843 373.026 123.484Z" fill="white"/>
<path d="M374.422 122.213H375.228V125.083H376.982V125.703H374.422V122.213Z" fill="white"/>
<path d="M378.758 124.463V125.703H377.953V124.463L376.57 122.213H377.432L378.362 123.763L379.298 122.213H380.091L378.758 124.463Z" fill="white"/>
<path d="M385.07 122.213V125.703H384.407L382.665 123.577V125.703H381.865V122.207H382.535L384.276 124.327V122.207L385.07 122.213Z" fill="white"/>
<path d="M385.685 123.961C385.663 123.578 385.758 123.198 385.955 122.869C386.153 122.541 386.444 122.279 386.792 122.118C387.14 121.957 387.529 121.904 387.907 121.966C388.285 122.028 388.636 122.202 388.915 122.466C389.193 122.73 389.386 123.071 389.468 123.445C389.55 123.82 389.518 124.21 389.375 124.567C389.233 124.923 388.987 125.228 388.67 125.442C388.352 125.657 387.977 125.772 387.594 125.771C387.348 125.785 387.101 125.749 386.87 125.665C386.638 125.58 386.426 125.449 386.247 125.279C386.068 125.11 385.926 124.905 385.829 124.679C385.733 124.452 385.683 124.208 385.685 123.961ZM388.691 123.961C388.687 123.745 388.62 123.535 388.497 123.357C388.374 123.179 388.202 123.041 388.001 122.961C387.8 122.881 387.58 122.862 387.368 122.906C387.157 122.95 386.963 123.056 386.812 123.21C386.66 123.365 386.557 123.56 386.516 123.772C386.476 123.985 386.498 124.204 386.582 124.404C386.665 124.603 386.806 124.773 386.986 124.893C387.166 125.013 387.377 125.077 387.594 125.077C387.74 125.08 387.886 125.054 388.022 124.999C388.158 124.944 388.281 124.861 388.384 124.757C388.487 124.652 388.567 124.528 388.62 124.391C388.673 124.254 388.697 124.108 388.691 123.961Z" fill="white"/>
<path d="M395.287 122.213L394.147 125.703H393.304L392.529 123.335L391.711 125.703H390.824L389.678 122.207H390.514L391.302 124.686L392.126 122.207H392.876L393.676 124.686L394.488 122.207L395.287 122.213Z" fill="white"/>
<path d="M357.838 0.161133H70.9902V262.457H357.838V0.161133Z" fill="white"/>
<path d="M357.838 0.161133H70.9902V17.6095H357.838V0.161133Z" fill="#E0E0E0"/>
<path d="M319.221 245.616C319.221 245.709 271.221 245.777 211.989 245.777C152.758 245.777 104.758 245.709 104.758 245.616C104.758 245.523 152.752 245.455 211.989 245.455C271.227 245.455 319.221 245.529 319.221 245.616Z" fill="#263238"/>
<path d="M194.25 192.998H190.004V215.362H194.25V192.998Z" fill="#E0E0E0"/>
<path d="M194.256 215.356C194.245 215.203 194.245 215.05 194.256 214.897C194.256 214.575 194.256 214.147 194.256 213.608C194.256 212.467 194.256 210.868 194.206 208.878C194.206 204.862 194.163 199.302 194.138 192.998L194.299 193.153H189.997C190.313 192.831 190.084 193.066 190.159 192.998V199.816C190.159 201.986 190.159 204.05 190.159 205.965C190.159 209.777 190.121 213.006 190.109 215.374L190.016 215.287L193.115 215.337H193.946H194.249C194.161 215.346 194.072 215.346 193.983 215.337H193.165L189.997 215.38H189.917V215.287C189.917 212.92 189.886 209.709 189.867 205.878C189.867 203.963 189.867 201.899 189.867 199.729V196.395C189.867 195.831 189.867 195.254 189.867 194.678V192.942L190.035 192.775H194.435V192.936C194.435 199.283 194.386 204.88 194.367 208.928C194.367 210.899 194.33 212.492 194.324 213.626C194.324 214.147 194.324 214.562 194.324 214.866C194.313 215.031 194.29 215.194 194.256 215.356Z" fill="#263238"/>
<path d="M201.962 189.608H182.127C180.715 189.608 179.36 189.047 178.36 188.048C177.361 187.05 176.799 185.696 176.797 184.283H207.293C207.291 185.696 206.729 187.05 205.729 188.048C204.73 189.047 203.375 189.608 201.962 189.608Z" fill="#263238"/>
<path d="M219.473 185.324H184.861V177.924H219.473C220.459 177.924 221.405 178.315 222.103 179.013C222.8 179.71 223.192 180.656 223.192 181.643C223.182 182.622 222.786 183.559 222.09 184.248C221.393 184.938 220.453 185.324 219.473 185.324Z" fill="#FF725E"/>
<path d="M157.961 124.754C157.009 124.883 156.145 125.378 155.554 126.134C154.962 126.89 154.689 127.847 154.793 128.802L159.789 174.211C160.133 177.268 161.591 180.091 163.885 182.141C166.179 184.191 169.147 185.324 172.223 185.325H185.425C186.412 185.325 187.358 184.933 188.055 184.235C188.753 183.538 189.144 182.592 189.144 181.605C189.144 180.619 188.753 179.673 188.055 178.976C187.358 178.278 186.412 177.886 185.425 177.886H174.213C172.672 177.887 171.184 177.327 170.024 176.313C168.865 175.298 168.113 173.897 167.909 172.37L162.107 127.922C162.044 127.442 161.886 126.979 161.644 126.56C161.401 126.14 161.079 125.773 160.694 125.479C160.309 125.185 159.871 124.969 159.403 124.845C158.935 124.721 158.447 124.69 157.967 124.754H157.961Z" fill="#FF725E"/>
<path d="M200.017 178.283L162.387 178.81L158.711 124.717L190.205 124.519C191.721 124.527 193.172 125.137 194.239 126.214C195.306 127.291 195.901 128.748 195.895 130.264L200.017 178.283Z" fill="#FF725E"/>
<g opacity="0.3">
<path d="M157.957 124.754C157.005 124.883 156.142 125.378 155.55 126.134C154.958 126.89 154.685 127.847 154.789 128.802L159.785 174.211C160.129 177.268 161.588 180.091 163.881 182.141C166.175 184.191 169.143 185.324 172.219 185.325H185.421C186.408 185.325 187.354 184.933 188.051 184.235C188.749 183.538 189.141 182.592 189.141 181.605C189.141 180.619 188.749 179.673 188.051 178.976C187.354 178.278 186.408 177.886 185.421 177.886H173.403C170.217 177.886 167.979 175.63 167.558 172.469L162.103 127.922C162.04 127.442 161.883 126.979 161.64 126.56C161.398 126.14 161.075 125.773 160.69 125.479C160.306 125.185 159.867 124.969 159.399 124.845C158.931 124.721 158.443 124.69 157.963 124.754H157.957Z" fill="black"/>
</g>
<path d="M196.241 189.607H188.016V193.884H196.241V189.607Z" fill="#263238"/>
<path d="M193.669 214.104H190.476C189.117 214.104 188.016 215.205 188.016 216.564V231.236C188.016 232.595 189.117 233.697 190.476 233.697H193.669C195.028 233.697 196.129 232.595 196.129 231.236V216.564C196.129 215.205 195.028 214.104 193.669 214.104Z" fill="#E0E0E0"/>
<path d="M193.678 233.696C193.678 233.696 193.857 233.696 194.186 233.61C194.593 233.507 194.967 233.304 195.274 233.018C195.581 232.731 195.81 232.372 195.94 231.973C196.043 231.569 196.079 231.15 196.045 230.733C196.045 229.81 196.045 228.762 196.045 227.634C196.045 225.304 196.045 222.552 196.008 219.496C196.008 218.733 196.008 217.946 196.008 217.147C196.036 216.756 196.007 216.363 195.921 215.981C195.821 215.605 195.624 215.261 195.351 214.983C195.077 214.694 194.734 214.481 194.353 214.364C193.947 214.271 193.529 214.239 193.113 214.271H190.498C190.088 214.271 189.686 214.381 189.332 214.589C188.979 214.797 188.688 215.096 188.49 215.455C188.298 215.806 188.197 216.201 188.198 216.601V217.841C188.198 219.502 188.198 221.114 188.198 222.645C188.198 225.7 188.198 228.452 188.167 230.777C188.11 231.31 188.202 231.849 188.434 232.333C188.646 232.722 188.963 233.043 189.349 233.262C189.734 233.481 190.173 233.589 190.616 233.572H191.694L193.188 233.603C193.362 233.596 193.536 233.607 193.709 233.634C193.535 233.648 193.361 233.648 193.188 233.634L191.694 233.665H190.616C190.138 233.688 189.663 233.577 189.246 233.344C188.828 233.11 188.484 232.764 188.254 232.345C188.122 232.099 188.03 231.833 187.981 231.558C187.942 231.27 187.928 230.98 187.938 230.69C187.938 228.366 187.938 225.614 187.901 222.558C187.901 221.027 187.901 219.415 187.901 217.754V216.514C187.896 216.168 187.96 215.824 188.089 215.502C188.218 215.18 188.41 214.888 188.654 214.641C188.897 214.394 189.187 214.198 189.507 214.064C189.827 213.93 190.17 213.862 190.516 213.862H193.101C193.544 213.829 193.989 213.865 194.421 213.967C194.851 214.099 195.24 214.335 195.556 214.655C195.852 214.974 196.065 215.362 196.175 215.783C196.262 216.19 196.294 216.607 196.268 217.023C196.268 217.822 196.268 218.61 196.268 219.372C196.268 222.428 196.268 225.18 196.237 227.51C196.237 228.663 196.237 229.711 196.237 230.61C196.263 231.044 196.217 231.479 196.101 231.899C195.978 232.25 195.782 232.571 195.525 232.841C195.17 233.208 194.712 233.457 194.211 233.554C194.042 233.629 193.862 233.677 193.678 233.696Z" fill="#263238"/>
<path d="M215.754 232.482H167.469C166.823 232.458 166.18 232.571 165.581 232.812C164.982 233.053 164.44 233.418 163.991 233.882C162.2 235.742 162.312 238.841 162.318 238.953L164.518 238.86C164.518 238.24 164.636 236.38 165.584 235.401C165.828 235.159 166.119 234.97 166.439 234.846C166.759 234.723 167.101 234.667 167.444 234.682H180.113V240.291H182.314V234.682H215.729C216.409 234.684 217.061 234.954 217.542 235.435C218.023 235.916 218.293 236.568 218.295 237.248V238.903H220.496V237.273C220.5 236.009 220.004 234.795 219.115 233.897C218.226 232.999 217.017 232.49 215.754 232.482Z" fill="#E0E0E0"/>
<path d="M215.751 232.482C215.957 232.467 216.164 232.467 216.371 232.482C216.96 232.546 217.532 232.72 218.057 232.996C218.911 233.462 219.609 234.169 220.065 235.029C220.352 235.578 220.529 236.178 220.586 236.796C220.629 237.459 220.586 238.141 220.617 238.878V238.959H218.255V238.872C218.193 237.8 218.503 236.486 217.604 235.568C217.181 235.105 216.599 234.82 215.974 234.769C215.354 234.769 214.635 234.769 213.941 234.769H204.761H182.36L182.509 234.614C182.509 236.38 182.509 238.289 182.509 240.223V240.384H179.993V234.614L180.154 234.775H167.255C166.814 234.789 166.385 234.924 166.015 235.165C165.659 235.425 165.377 235.773 165.197 236.176C164.832 236.994 164.652 237.883 164.67 238.779V238.94H164.521L162.321 239.033H162.16V238.872C162.14 237.831 162.301 236.795 162.637 235.81C162.953 234.823 163.539 233.945 164.329 233.275C165.135 232.644 166.121 232.285 167.143 232.252C168.135 232.252 169.09 232.252 170.05 232.252H180.997L199.263 232.289L211.375 232.333L214.629 232.364H215.472H215.757C215.757 232.364 215.664 232.364 215.472 232.364H214.629H211.375L199.263 232.413L180.997 232.451H170.05C169.096 232.451 168.123 232.451 167.162 232.451C166.202 232.48 165.278 232.819 164.528 233.417C163.78 234.049 163.226 234.878 162.928 235.81C162.609 236.758 162.458 237.754 162.482 238.754L162.315 238.606L164.509 238.513L164.36 238.674C164.338 237.724 164.528 236.782 164.918 235.915C165.123 235.464 165.441 235.073 165.842 234.781C166.258 234.505 166.743 234.351 167.243 234.335H180.302V234.496C180.302 236.424 180.302 238.333 180.302 240.106L180.148 239.951H182.342L182.187 240.106C182.187 238.172 182.187 236.263 182.187 234.496V234.341H182.342H204.743H213.922C214.623 234.341 215.292 234.341 215.974 234.341C216.63 234.399 217.242 234.696 217.692 235.176C218.143 235.657 218.4 236.286 218.416 236.944C218.416 237.533 218.416 238.103 218.416 238.655L218.329 238.568H220.53L220.449 238.643C220.449 237.911 220.48 237.211 220.449 236.572C220.402 235.971 220.235 235.385 219.96 234.849C219.527 234.002 218.855 233.301 218.026 232.835C217.513 232.55 216.952 232.363 216.371 232.283C215.955 232.494 215.751 232.494 215.751 232.482Z" fill="#263238"/>
<path d="M185.479 242.907C185.48 243.759 185.229 244.593 184.756 245.302C184.283 246.011 183.611 246.564 182.824 246.891C182.037 247.218 181.171 247.305 180.335 247.139C179.498 246.974 178.73 246.564 178.127 245.962C177.524 245.359 177.113 244.592 176.947 243.756C176.78 242.92 176.865 242.054 177.191 241.266C177.516 240.479 178.069 239.806 178.777 239.332C179.486 238.858 180.319 238.605 181.171 238.605C182.313 238.605 183.407 239.058 184.215 239.865C185.023 240.672 185.477 241.766 185.479 242.907Z" fill="#263238"/>
<path d="M167.723 241.86C167.723 242.712 167.47 243.544 166.997 244.253C166.524 244.961 165.851 245.513 165.064 245.84C164.277 246.166 163.41 246.251 162.575 246.085C161.739 245.918 160.972 245.508 160.369 244.906C159.767 244.303 159.356 243.536 159.19 242.7C159.024 241.864 159.109 240.998 159.435 240.211C159.761 239.424 160.314 238.751 161.022 238.278C161.73 237.804 162.563 237.552 163.415 237.552C164.558 237.552 165.654 238.006 166.461 238.813C167.269 239.621 167.723 240.717 167.723 241.86Z" fill="#263238"/>
<path d="M223.229 242.015C223.23 242.867 222.979 243.7 222.506 244.41C222.033 245.119 221.361 245.672 220.574 245.999C219.787 246.326 218.921 246.412 218.085 246.247C217.248 246.081 216.48 245.671 215.877 245.069C215.274 244.467 214.863 243.699 214.697 242.863C214.53 242.028 214.615 241.161 214.941 240.374C215.266 239.586 215.819 238.913 216.527 238.439C217.236 237.966 218.069 237.713 218.921 237.713C220.063 237.713 221.157 238.166 221.965 238.972C222.773 239.779 223.227 240.873 223.229 242.015Z" fill="#263238"/>
<path d="M220.402 177.924C220.402 178.01 209.791 178.122 196.706 178.171C183.621 178.221 173.01 178.171 173.01 178.097C173.01 178.023 183.615 177.899 196.706 177.849C209.797 177.8 220.402 177.831 220.402 177.924Z" fill="#263238"/>
<path d="M167.611 171.769C167.524 171.769 166.216 161.975 164.697 149.87C163.179 137.765 162.013 127.934 162.1 127.922C162.187 127.909 163.495 137.715 165.013 149.827C166.532 161.938 167.685 171.756 167.611 171.769Z" fill="#263238"/>
<path d="M161.699 124.649C161.807 124.607 161.919 124.578 162.034 124.562C162.358 124.506 162.685 124.473 163.013 124.463C164.229 124.42 165.443 124.608 166.59 125.015C167.391 125.304 168.107 125.79 168.672 126.428C169.294 127.163 169.828 127.968 170.265 128.827C171.195 130.618 172.23 132.546 173.365 134.585C175.639 138.62 177.778 142.24 179.228 144.917C179.966 146.25 180.53 147.341 180.914 148.103C181.088 148.457 181.224 148.723 181.342 148.984C181.399 149.084 181.441 149.193 181.466 149.306C181.396 149.214 181.334 149.117 181.28 149.015L180.803 148.159L179.03 145.029C177.53 142.382 175.36 138.787 173.079 134.74C171.939 132.719 170.91 130.754 169.98 128.969C169.564 128.124 169.048 127.331 168.443 126.608C167.914 125.989 167.239 125.514 166.478 125.225C165.361 124.814 164.179 124.604 162.988 124.606C162.17 124.581 161.705 124.68 161.699 124.649Z" fill="#263238"/>
<path d="M155.049 127.004C155.129 127.048 152.278 132.019 148.689 138.099C145.1 144.18 142.125 149.083 142.045 149.039C141.964 148.996 144.815 144.025 148.41 137.938C152.005 131.851 154.974 126.942 155.049 127.004Z" fill="#263238"/>
<path d="M188.665 149.033H137.076V164.244H188.665V149.033Z" fill="#FAFAFA"/>
<path d="M150.993 153.756L148.47 159.595H147.138L144.621 153.756H146.078L147.85 157.934L149.648 153.763L150.993 153.756Z" fill="#263238"/>
<path d="M155.121 158.343H152.412L151.898 159.583H150.516L153.113 153.744H154.445L157.055 159.583H155.635L155.121 158.343ZM154.669 157.314L153.745 155.077L152.846 157.314H154.669Z" fill="#263238"/>
<path d="M157.207 156.694C157.242 156.063 157.463 155.456 157.842 154.95C158.221 154.444 158.741 154.06 159.337 153.849C159.933 153.637 160.578 153.606 161.192 153.759C161.805 153.912 162.36 154.243 162.786 154.711L161.918 155.51C161.741 155.294 161.517 155.121 161.264 155.003C161.011 154.884 160.734 154.825 160.455 154.829C159.962 154.829 159.489 155.024 159.14 155.373C158.791 155.722 158.595 156.195 158.595 156.688C158.595 157.181 158.791 157.654 159.14 158.003C159.489 158.352 159.962 158.548 160.455 158.548C160.735 158.55 161.012 158.49 161.265 158.371C161.518 158.252 161.741 158.077 161.918 157.86L162.786 158.659C162.361 159.129 161.807 159.463 161.193 159.618C160.579 159.774 159.933 159.744 159.336 159.532C158.74 159.321 158.219 158.937 157.84 158.43C157.461 157.922 157.241 157.314 157.207 156.682V156.694Z" fill="#263238"/>
<path d="M167.406 158.343H164.697L164.183 159.583H162.801L165.398 153.744H166.731L169.34 159.583H167.921L167.406 158.343ZM166.985 157.32L166.055 155.083L165.131 157.314L166.985 157.32Z" fill="#263238"/>
<path d="M175.298 153.756V159.595H174.189L171.282 156.075V159.62H169.949V153.781H171.065L173.966 157.327V153.781L175.298 153.756Z" fill="#263238"/>
<path d="M177.883 154.835H176.023V153.731H181.106V154.835H179.247V159.57H177.895L177.883 154.835Z" fill="#263238"/>
<path d="M186.999 162.893C186.999 162.893 186.999 162.818 186.999 162.67C186.999 162.521 186.999 162.31 186.999 162.05C186.999 161.486 186.999 160.668 186.999 159.614C186.999 157.482 186.999 154.389 186.949 150.484L187.042 150.577L138.385 150.645C138.453 150.57 138.218 150.806 138.54 150.484V162.88L138.379 162.725L173.09 162.794L183.323 162.837H186.088H186.807H187.055C186.978 162.843 186.902 162.843 186.825 162.837H186.125H183.398L173.201 162.88L138.391 162.955H138.236V162.893C138.236 160.891 138.236 158.845 138.236 156.775V150.446C138.559 150.124 138.329 150.353 138.404 150.285L187.061 150.347H187.16V150.446C187.16 154.376 187.117 157.488 187.104 159.632C187.104 160.68 187.104 161.492 187.104 162.05V162.67C187.077 162.748 187.042 162.823 186.999 162.893Z" fill="#263238"/>
<path d="M192.046 73.562H195.97L192.083 76.7356H189.275L192.046 73.562Z" fill="#263238"/>
<path d="M147.993 103.488V111.651H142.997V104.306C142.997 102.248 142.098 101.38 140.654 101.38C139.048 101.38 137.809 102.384 137.809 104.752V111.651H132.807V92.1199H137.809V98.6963C138.99 97.6535 140.523 97.0994 142.098 97.1467C145.439 97.1467 147.993 99.0496 147.993 103.488Z" fill="#263238"/>
<path d="M150.578 93.1425C150.578 91.6425 151.818 90.4834 153.628 90.4834C155.438 90.4834 156.684 91.5619 156.684 93.0619C156.684 94.5619 155.475 95.8016 153.628 95.8016C151.781 95.8016 150.578 94.6425 150.578 93.1425ZM151.13 97.3822H156.132V111.638H151.13V97.3822Z" fill="#263238"/>
<path d="M168.923 97.1467V101.647C168.547 101.595 168.168 101.568 167.789 101.566C165.762 101.566 164.367 102.595 164.367 105.093V111.651H159.365V97.3947H164.132V99.1054C165.161 97.81 166.816 97.1467 168.923 97.1467Z" fill="#263238"/>
<path d="M170.422 93.1425C170.422 91.6425 171.631 90.4834 173.478 90.4834C175.325 90.4834 176.527 91.5619 176.527 93.0619C176.527 94.5619 175.319 95.8016 173.478 95.8016C171.637 95.8016 170.422 94.6425 170.422 93.1425ZM170.974 97.3822H175.976V111.638H170.974V97.3822Z" fill="#263238"/>
<path d="M194.404 103.488V111.651H189.377V104.306C189.377 102.248 188.485 101.38 187.034 101.38C185.429 101.38 184.189 102.384 184.189 104.752V111.651H179.193V97.3946H183.954V98.9442C184.547 98.3532 185.255 97.8899 186.035 97.5829C186.814 97.2759 187.648 97.1316 188.485 97.159C191.857 97.1467 194.404 99.0496 194.404 103.488Z" fill="#263238"/>
<path d="M213.095 97.3823V109.041C213.095 114.44 210.046 116.994 204.727 116.994C201.988 116.994 199.384 116.374 197.643 115.134L199.459 111.632C200.867 112.633 202.553 113.168 204.281 113.163C206.965 113.163 208.093 111.924 208.093 109.711V109.24C207.556 109.816 206.898 110.266 206.166 110.558C205.434 110.849 204.646 110.975 203.86 110.926C200.066 110.926 196.855 108.236 196.855 104.027C196.855 99.8183 200.066 97.1592 203.86 97.1592C205.831 97.1592 207.355 97.779 208.335 99.1303V97.3947L213.095 97.3823ZM208.136 104.015C208.136 102.279 206.816 101.12 205.037 101.12C203.258 101.12 201.901 102.279 201.901 104.015C201.901 105.75 203.246 106.934 205.037 106.934C205.438 106.963 205.84 106.909 206.218 106.775C206.596 106.64 206.943 106.429 207.235 106.154C207.528 105.879 207.76 105.546 207.917 105.177C208.074 104.808 208.153 104.41 208.149 104.008L208.136 104.015Z" fill="#263238"/>
<path d="M215.412 108.911C215.412 108.115 215.728 107.352 216.291 106.79C216.853 106.227 217.616 105.911 218.412 105.911C219.208 105.911 219.971 106.227 220.533 106.79C221.096 107.352 221.412 108.115 221.412 108.911C221.412 109.707 221.096 110.47 220.533 111.032C219.971 111.595 219.208 111.911 218.412 111.911C217.616 111.911 216.853 111.595 216.291 111.032C215.728 110.47 215.412 109.707 215.412 108.911Z" fill="#FF725E"/>
<path d="M200.971 77.8574V81.3967C200.677 81.3563 200.381 81.3356 200.084 81.3347C198.491 81.3347 197.4 82.1405 197.4 84.0992V89.2438H193.471V78.0434H197.19V79.3884C198.02 78.3781 199.297 77.8574 200.971 77.8574Z" fill="#263238"/>
<path d="M213.866 84.6384H205.722C206.056 85.7727 207.023 86.4359 208.474 86.4359C208.947 86.4523 209.418 86.3748 209.861 86.2077C210.303 86.0407 210.708 85.7875 211.052 85.4628L213.123 87.6136C212.044 88.8099 210.476 89.4359 208.35 89.4359C204.358 89.4359 201.773 86.9566 201.773 83.6281C201.773 80.2996 204.402 77.8574 207.935 77.8574C211.238 77.8574 213.928 79.9711 213.928 83.6653C213.928 83.9566 213.885 84.3285 213.866 84.6384ZM205.66 82.5744H210.247C210.149 82.0369 209.867 81.5506 209.447 81.2005C209.028 80.8503 208.499 80.6585 207.953 80.6585C207.407 80.6585 206.878 80.8503 206.459 81.2005C206.04 81.5506 205.757 82.0369 205.66 82.5744Z" fill="#263238"/>
<path d="M176.544 78.0435L172.553 89.2439H168.753L166.646 83.1509L164.451 89.2439H160.652L156.66 78.0435H160.379L162.673 84.8245L165.053 78.0435H168.4L170.712 84.8616L173.092 78.0435H176.544Z" fill="#263238"/>
<path d="M188.824 84.6384H180.704C181.039 85.7727 182.006 86.4359 183.456 86.4359C183.93 86.4525 184.402 86.375 184.846 86.208C185.289 86.0409 185.695 85.7877 186.041 85.4628L188.105 87.6136C187.032 88.8099 185.458 89.4359 183.332 89.4359C179.34 89.4359 176.762 86.9566 176.762 83.6281C176.762 80.2996 179.384 77.8574 182.917 77.8574C186.227 77.8574 188.91 79.9711 188.91 83.6653C188.886 83.9566 188.842 84.3285 188.824 84.6384ZM180.617 82.5744H185.21C185.116 82.0332 184.835 81.5424 184.415 81.1887C183.994 80.8349 183.463 80.641 182.914 80.641C182.364 80.641 181.833 80.8349 181.413 81.1887C180.992 81.5424 180.711 82.0332 180.617 82.5744Z" fill="#263238"/>
<path d="M159.573 57.3098L158.953 44.1383C158.929 43.618 158.715 43.1246 158.352 42.7512C157.989 42.3778 157.502 42.1502 156.982 42.1114C156.436 42.0689 155.894 42.2383 155.469 42.5846C155.045 42.9308 154.77 43.4272 154.701 43.9709L153.034 57.1734C153.008 57.4072 153.031 57.644 153.103 57.8681C153.174 58.0923 153.292 58.2988 153.449 58.4743C153.606 58.6498 153.798 58.7902 154.012 58.8865C154.227 58.9827 154.46 59.0326 154.695 59.0329H157.906C158.129 59.0313 158.35 58.9853 158.555 58.8974C158.76 58.8096 158.946 58.6817 159.101 58.5213C159.256 58.3608 159.378 58.1711 159.459 57.963C159.54 57.755 159.579 57.5329 159.573 57.3098Z" fill="#E0E0E0"/>
<path d="M153.6 34.6551C153.81 34.0557 154.192 33.5319 154.7 33.15C155.207 32.7681 155.816 32.5452 156.45 32.5095C157.084 32.4738 157.714 32.6269 158.261 32.9494C158.808 33.2719 159.248 33.7494 159.523 34.3215C159.799 34.8935 159.899 35.5345 159.81 36.1633C159.721 36.7921 159.448 37.3805 159.025 37.8541C158.602 38.3276 158.048 38.6652 157.433 38.8239C156.819 38.9827 156.17 38.9556 155.571 38.746C155.173 38.6068 154.806 38.3906 154.492 38.1097C154.177 37.8288 153.921 37.4887 153.738 37.1088C153.555 36.7289 153.449 36.3167 153.425 35.8957C153.401 35.4747 153.461 35.0531 153.6 34.6551Z" fill="#E0E0E0"/>
<path d="M125.094 73.9526L117.42 67.4381C117.116 67.1834 116.729 67.048 116.332 67.0571C115.935 67.0662 115.555 67.2192 115.263 67.4877C114.956 67.7709 114.77 68.1613 114.744 68.578C114.717 68.9946 114.852 69.4055 115.12 69.7253L121.616 77.5229C121.733 77.6614 121.877 77.7738 122.04 77.8526C122.203 77.9314 122.38 77.9749 122.561 77.9802C122.742 77.9854 122.922 77.9524 123.089 77.8832C123.257 77.814 123.407 77.7102 123.532 77.5786L125.199 75.7873C125.316 75.6617 125.407 75.5137 125.465 75.3522C125.523 75.1906 125.548 75.0189 125.539 74.8474C125.529 74.6759 125.484 74.5082 125.408 74.3544C125.331 74.2006 125.224 74.0639 125.094 73.9526Z" fill="#F5F5F5"/>
<path d="M109.353 65.5042C109.118 65.0706 109.019 64.5771 109.066 64.0866C109.114 63.5962 109.306 63.131 109.619 62.7504C109.932 62.3699 110.352 62.0912 110.824 61.9501C111.296 61.8089 111.799 61.8117 112.27 61.9579C112.741 62.1042 113.157 62.3874 113.466 62.7713C113.775 63.1553 113.962 63.6226 114.004 64.1135C114.046 64.6045 113.941 65.0969 113.702 65.5278C113.463 65.9588 113.101 66.3088 112.663 66.5331C112.086 66.828 111.417 66.8854 110.798 66.6931C110.179 66.5008 109.661 66.0741 109.353 65.5042Z" fill="#F5F5F5"/>
<path d="M118.588 43.3201L130.365 63.3036C130.831 64.0938 131.569 64.6863 132.442 64.9695C133.314 65.2526 134.26 65.2068 135.101 64.8408C135.985 64.4559 136.688 63.746 137.064 62.8578C137.44 61.9696 137.46 60.971 137.121 60.068L128.871 38.1507C128.723 37.7604 128.494 37.4059 128.199 37.1107C127.904 36.8154 127.55 36.5861 127.16 36.4379C126.77 36.2897 126.353 36.2259 125.936 36.2509C125.519 36.2758 125.113 36.3888 124.743 36.5825L119.741 39.2106C119.389 39.3979 119.078 39.6547 118.828 39.9655C118.578 40.2763 118.393 40.6346 118.285 41.0187C118.178 41.4028 118.149 41.8048 118.201 42.2004C118.253 42.596 118.385 42.9769 118.588 43.3201Z" fill="#E0E0E0"/>
<path d="M146.491 73.6737C146.657 74.7794 146.492 75.9098 146.016 76.9217C145.541 77.9336 144.775 78.7817 143.817 79.3586C142.86 79.9356 141.752 80.2154 140.635 80.1628C139.518 80.1102 138.442 79.7275 137.542 79.0631C136.643 78.3987 135.961 77.4825 135.582 76.4303C135.203 75.3781 135.145 74.2373 135.415 73.1521C135.685 72.0669 136.271 71.0861 137.098 70.3338C137.925 69.5815 138.957 69.0915 140.063 68.9258C141.545 68.7036 143.054 69.079 144.26 69.9693C145.465 70.8596 146.267 72.192 146.491 73.6737Z" fill="#E0E0E0"/>
<path d="M357.831 262.457C357.831 261.291 357.775 157.897 357.695 0.161156L357.831 0.29752L70.9902 0.322314L71.1514 0.161156C71.1514 95.7149 71.1514 185.566 71.1514 262.457L71.015 262.314L357.856 262.457L70.9902 262.599H70.8477V262.457C70.8477 185.597 70.8477 95.7211 70.8477 0.161156V0H71.0336H357.85H357.974V0.136362C357.887 157.897 357.831 261.291 357.831 262.457Z" fill="#263238"/>
<path d="M78.9599 11.1386C80.271 11.1386 81.3339 10.0757 81.3339 8.76459C81.3339 7.45349 80.271 6.39062 78.9599 6.39062C77.6488 6.39062 76.5859 7.45349 76.5859 8.76459C76.5859 10.0757 77.6488 11.1386 78.9599 11.1386Z" fill="white"/>
<path d="M87.122 11.1386C88.4331 11.1386 89.496 10.0757 89.496 8.76459C89.496 7.45349 88.4331 6.39062 87.122 6.39062C85.8109 6.39062 84.748 7.45349 84.748 8.76459C84.748 10.0757 85.8109 11.1386 87.122 11.1386Z" fill="white"/>
<path d="M95.2763 11.1386C96.5874 11.1386 97.6503 10.0757 97.6503 8.76459C97.6503 7.45349 96.5874 6.39062 95.2763 6.39062C93.9652 6.39062 92.9023 7.45349 92.9023 8.76459C92.9023 10.0757 93.9652 11.1386 95.2763 11.1386Z" fill="white"/>
<path d="M247.987 58.1404C245.977 57.6354 244.034 56.8969 242.197 55.9399C243.218 56.1338 244.212 56.4458 245.16 56.8697C246.149 57.181 247.097 57.6075 247.987 58.1404Z" fill="#455A64"/>
<path d="M240.061 70.6239C239.442 70.5557 237.768 71.3863 236.373 73.0412L236.305 73.1156C235.32 74.2251 234.706 70.816 234.644 69.5578C234.627 69.3624 234.567 69.1733 234.467 69.0045C234.367 68.8357 234.23 68.6915 234.067 68.5826C233.904 68.4736 233.719 68.4028 233.525 68.3753C233.33 68.3477 233.133 68.3642 232.946 68.4235L228.607 70.0846L227.367 70.0413C227.065 70.1219 226.805 70.3135 226.638 70.5778C226.472 70.8422 226.411 71.1597 226.468 71.4669L228.006 78.2169L227.925 80.0268L236.231 81.7499L236.677 77.2375C236.838 76.7231 237.049 76.1156 237.297 75.4276C237.547 74.806 237.901 74.2316 238.344 73.7293C238.831 73.1579 239.375 72.6386 239.968 72.1797L240.111 72.0991C240.208 72.0526 240.294 71.9873 240.365 71.907C240.472 71.8203 240.553 71.7051 240.597 71.5747C240.642 71.4443 240.648 71.304 240.617 71.1699C240.585 71.0358 240.516 70.9134 240.418 70.8168C240.32 70.7202 240.196 70.6534 240.061 70.6239Z" fill="#FFBE9D"/>
<path d="M238.239 51.595C238.239 51.595 233.28 50.9752 225.842 45.0496C218.404 39.1239 214.357 30.6942 213.526 30.7933C212.696 30.8925 208.877 29.5537 203.355 45.3347C197.832 61.1157 200.875 64.3512 202.276 64.1963C203.677 64.0413 212.813 60.533 218.727 60.6508C224.64 60.7686 232.474 63.1301 232.474 63.1301L238.239 51.595Z" fill="#FF725E"/>
<path d="M249.332 58.8595L247.968 62.1632L247.348 63.6446C246.946 64.623 246.184 65.4096 245.218 65.8421C244.253 66.2747 243.158 66.3201 242.16 65.969L231.406 63.3223L236.167 48.9111L247.088 53.4731C248.098 53.8916 248.902 54.6934 249.322 55.7029C249.743 56.7124 249.746 57.8475 249.332 58.8595Z" fill="#263238"/>
<path d="M245.095 63.7189L241.494 70.1032L239.851 69.5763L228.614 77.9751L225.818 71.9007C225.818 71.9007 232.358 69.4214 233.647 67.159C234.936 64.8966 233.579 64.3449 233.579 64.3449L236.74 61.0288L245.095 63.7189Z" fill="#263238"/>
<path d="M203.925 45.5762C200.999 54.1114 200.144 61.5494 202.022 62.194C203.9 62.8386 207.786 56.4357 210.7 47.9006C213.613 39.3655 214.481 31.9275 212.602 31.2828C210.724 30.6382 206.85 37.0659 203.925 45.5762Z" fill="#263238"/>
<path d="M250.653 63.3282L247.746 62.7084L249.184 59.2188L251.422 60.3344L250.653 63.3282Z" fill="#455A64"/>
<path d="M247.315 60.1674C247.278 60.2665 245.821 59.8512 244.055 59.2438C242.965 58.9341 241.911 58.5081 240.912 57.9731C242.028 58.1682 243.12 58.4776 244.172 58.8967C245.261 59.2093 246.315 59.6352 247.315 60.1674Z" fill="#455A64"/>
<path d="M246.401 62.3493C246.401 62.3989 246.054 62.3493 245.502 62.2377L244.535 62.0146C244.176 61.9216 243.798 61.7729 243.395 61.6365C242.403 61.3477 241.453 60.9309 240.568 60.3968C240.606 60.2977 241.92 60.7377 243.519 61.3018C243.915 61.4444 244.287 61.5993 244.641 61.7109C244.994 61.8225 245.304 61.9092 245.564 62.0022C246.097 62.1634 246.401 62.2997 246.401 62.3493Z" fill="#455A64"/>
<path d="M211.286 43.0412C211.286 43.0412 206.817 40.8222 205.044 46.7602C203.271 52.6982 207.802 53.1817 207.802 53.1817C209.439 49.9839 210.612 46.5695 211.286 43.0412Z" fill="#FAFAFA"/>
<path d="M215.136 35.8262C215.146 36.1971 215.126 36.5682 215.074 36.9357C215.006 37.6423 214.913 38.6712 214.758 39.9419C214.641 40.5617 214.504 41.2559 214.368 41.9935C214.293 42.3592 214.219 42.7435 214.145 43.134C214.101 43.3324 214.064 43.5307 214.027 43.7539C213.99 43.977 213.915 44.1568 213.86 44.3737L213.141 46.9212C213.079 47.1444 213.01 47.3675 212.948 47.5906C212.886 47.8138 212.787 48.0307 212.713 48.2601L212.205 49.6113C212.037 50.0638 211.864 50.5163 211.696 50.9625C211.61 51.1857 211.541 51.4088 211.442 51.6196L211.145 52.2394L210.01 54.6382C209.924 54.8241 209.837 55.0163 209.738 55.196C209.638 55.3758 209.539 55.5555 209.434 55.7291L208.851 56.7394C208.473 57.3592 208.126 57.9791 207.804 58.5431C207.085 59.5968 206.483 60.4336 206.068 61.0225C205.867 61.3317 205.641 61.624 205.393 61.8964C205.55 61.5623 205.736 61.2428 205.95 60.9419L207.587 58.4068L208.591 56.5906L209.155 55.5803L209.446 55.0535C209.545 54.8737 209.626 54.6816 209.713 54.4894C210.066 53.727 210.438 52.9274 210.816 52.103L211.107 51.4832C211.207 51.2725 211.275 51.0431 211.362 50.8262C211.529 50.3861 211.696 49.9336 211.864 49.4811L212.372 48.1423C212.446 47.9192 212.545 47.7022 212.607 47.4791C212.669 47.2559 212.738 47.0328 212.8 46.8158L213.537 44.2869C213.593 44.0886 213.661 43.8902 213.705 43.6671C213.748 43.4439 213.791 43.2704 213.829 43.0473C213.915 42.663 213.99 42.2849 214.07 41.9192C214.225 41.1877 214.374 40.5121 214.504 39.8861C214.684 38.6464 214.833 37.6299 214.932 36.9047C214.973 36.5405 215.041 36.18 215.136 35.8262Z" fill="#263238"/>
<path d="M231.57 67.0538C231.344 67.1393 231.159 67.3067 231.051 67.5226C230.943 67.7385 230.92 67.9872 230.987 68.2191C231.241 69.155 231.663 70.6178 231.991 71.5166C232.083 71.8093 232.228 72.0826 232.419 72.3224C232.513 72.4385 232.638 72.5261 232.779 72.5754C232.92 72.6246 233.072 72.6336 233.218 72.6013C233.366 72.5384 233.495 72.4366 233.59 72.3067C233.685 72.1769 233.743 72.0238 233.758 71.8637C233.782 71.5372 233.745 71.209 233.646 70.8968C233.435 70.029 233.026 68.7211 232.716 67.655C232.685 67.5368 232.63 67.4263 232.555 67.3302C232.479 67.2341 232.385 67.1545 232.277 67.0964C232.17 67.0383 232.052 67.0029 231.93 66.9923C231.808 66.9818 231.686 66.9964 231.57 67.0352V67.0538Z" fill="#FFBE9D"/>
<path d="M230.185 68.6777C229.958 68.762 229.771 68.9289 229.662 69.1449C229.553 69.361 229.529 69.6103 229.596 69.843C229.856 70.7789 230.278 72.2417 230.606 73.1343C230.694 73.4293 230.837 73.7049 231.028 73.9463C231.122 74.0624 231.247 74.15 231.388 74.1992C231.529 74.2485 231.681 74.2575 231.827 74.2252C231.977 74.1646 232.107 74.0634 232.202 73.9331C232.297 73.8028 232.354 73.6485 232.366 73.4876C232.396 73.1615 232.36 72.8328 232.261 72.5206C232.044 71.6529 231.641 70.3388 231.331 69.2727C231.3 69.1545 231.245 69.0439 231.17 68.9478C231.094 68.8517 231 68.7722 230.892 68.7141C230.785 68.656 230.667 68.6205 230.545 68.61C230.423 68.5995 230.301 68.6141 230.185 68.6529V68.6777Z" fill="#FFBE9D"/>
<path d="M228.879 69.626C228.677 69.6929 228.509 69.8358 228.411 70.0244C228.313 70.213 228.292 70.4325 228.352 70.6363C228.588 71.4421 228.972 72.719 229.27 73.4938C229.354 73.7469 229.484 73.9822 229.654 74.188C229.742 74.2907 229.855 74.368 229.983 74.4116C230.11 74.4552 230.247 74.4636 230.379 74.4359C230.51 74.3872 230.624 74.3037 230.711 74.1944C230.797 74.0851 230.852 73.9543 230.869 73.8161C230.888 73.5334 230.855 73.2497 230.77 72.9793C230.571 72.2231 230.218 71.1198 229.914 70.1653C229.845 69.9598 229.698 69.7899 229.504 69.6924C229.31 69.5949 229.086 69.5778 228.879 69.6446V69.626Z" fill="#FFBE9D"/>
<path d="M227.239 69.8739C227.037 69.9409 226.868 70.0835 226.769 70.2718C226.67 70.4601 226.647 70.6796 226.706 70.8843C226.948 71.6962 227.326 72.9793 227.636 73.7541C227.715 74.0131 227.846 74.2535 228.02 74.4607C228.104 74.5796 228.223 74.6687 228.361 74.715C228.498 74.7613 228.647 74.7624 228.786 74.7181C228.924 74.6738 229.045 74.5865 229.13 74.4688C229.215 74.3511 229.261 74.2093 229.26 74.064C229.28 73.7809 229.244 73.4965 229.154 73.2272C228.956 72.4648 228.603 71.3243 228.299 70.3946C228.265 70.2916 228.212 70.1964 228.141 70.1144C228.07 70.0323 227.984 69.9651 227.887 69.9167C227.79 69.8683 227.685 69.8395 227.577 69.8322C227.469 69.8249 227.36 69.839 227.258 69.8739H227.239Z" fill="#FFBE9D"/>
<path d="M232.329 72.3532C231.987 71.8475 231.737 71.285 231.591 70.6921C231.344 70.1343 231.203 69.5352 231.176 68.9255C231.522 69.4291 231.772 69.9923 231.913 70.5867C232.164 71.1433 232.305 71.7431 232.329 72.3532Z" fill="#EB996E"/>
<path d="M230.837 73.6364C230.475 73.0468 230.211 72.402 230.056 71.7273C229.794 71.0877 229.639 70.4091 229.598 69.719C229.96 70.3085 230.224 70.9534 230.379 71.6281C230.644 72.2667 230.799 72.9458 230.837 73.6364Z" fill="#EB996E"/>
<path d="M229.376 73.7355C228.991 73.2488 228.716 72.6841 228.57 72.0806C228.317 71.5141 228.196 70.8971 228.217 70.2769C228.521 70.8083 228.749 71.3801 228.893 71.9752C229.142 72.5342 229.305 73.1277 229.376 73.7355Z" fill="#EB996E"/>
<path d="M281.059 51.1923C278.697 47.2006 274.433 44.6097 269.957 43.3762C268.098 42.8617 266.796 43.0043 264.856 43.2212C262.923 43.3845 261.11 44.2253 259.736 45.5952C258.053 47.2043 256.803 49.2128 256.104 51.434C255.418 53.716 254.945 56.0566 254.691 58.4258C254.44 60.8093 254.851 63.2159 255.881 65.3803L261.695 67.3266C264.98 67.9465 268.309 68.5663 271.612 68.2998C274.916 68.0332 278.325 66.7874 280.476 64.2274C283.488 60.682 283.42 55.184 281.059 51.1923Z" fill="#263238"/>
<path d="M284.209 68.6778C284.255 67.9917 284.143 67.3043 283.882 66.6682C283.621 66.0321 283.218 65.4643 282.703 65.0084C282.174 64.5668 281.519 64.3048 280.831 64.2602C280.144 64.2157 279.46 64.3908 278.879 64.7604L277.769 65.7336C276.99 65.9605 276.301 66.4244 275.798 67.0609C275.295 67.6974 275.002 68.4749 274.961 69.2852C274.949 70.0974 275.169 70.8963 275.595 71.5879C276.021 72.2796 276.636 72.8354 277.366 73.1902C278.106 73.5253 278.918 73.6648 279.727 73.5954C280.536 73.5259 281.313 73.2498 281.984 72.7935C282.646 72.3239 283.19 71.7085 283.576 70.9948C283.962 70.2812 284.179 69.4885 284.209 68.6778Z" fill="#263238"/>
<path d="M282.403 72.5455C282.687 72.2287 282.863 71.829 282.905 71.405C282.867 70.3692 282.536 69.3654 281.95 68.5104C281.401 67.6232 280.688 66.849 279.849 66.2294C279.229 65.7459 278.746 65.5352 278.77 65.4856C279.202 65.5962 279.609 65.7899 279.967 66.0558C280.874 66.6467 281.639 67.4322 282.204 68.3554C282.516 68.8621 282.764 69.4055 282.942 69.9732C283.11 70.4392 283.169 70.9374 283.115 71.4298C283.072 71.7667 282.928 72.0825 282.7 72.3348C282.539 72.5083 282.415 72.5579 282.403 72.5455Z" fill="#455A64"/>
<path d="M279.254 73.8718C279.563 72.5652 279.676 71.2199 279.589 69.88C279.402 68.553 279.011 67.2629 278.43 66.0557C278.712 66.3444 278.935 66.6855 279.087 67.0598C279.949 68.8266 280.168 70.8388 279.707 72.7499C279.626 73.1485 279.473 73.5289 279.254 73.8718Z" fill="#455A64"/>
<path d="M259.724 79.7915C260.084 77.7026 260.883 73.2212 260.883 73.2336C260.883 73.246 256.092 71.9505 255.702 65.5043C255.503 62.2997 256.167 57.1365 256.842 52.9278C257.462 49.1406 261.466 44.4671 266.14 45.1675L268.253 45.2419L275.735 49.6241C276.29 49.7355 276.782 50.0534 277.112 50.5135C277.443 50.9736 277.586 51.5418 277.514 52.1034L273.417 79.184L261.819 101.876L259.198 85.7605L259.724 79.7915Z" fill="#FFBE9D"/>
<path d="M259 57.5517C258.979 57.7631 259.041 57.9744 259.173 58.141C259.305 58.3076 259.496 58.4163 259.707 58.4442C259.809 58.4628 259.915 58.4606 260.017 58.4378C260.119 58.4149 260.215 58.3719 260.3 58.3112C260.385 58.2506 260.457 58.1735 260.511 58.0845C260.566 57.9956 260.602 57.8966 260.618 57.7934C260.639 57.5813 260.577 57.3692 260.446 57.2016C260.314 57.0341 260.122 56.924 259.911 56.8946C259.808 56.8761 259.702 56.8785 259.6 56.9017C259.498 56.925 259.401 56.9685 259.316 57.0298C259.231 57.0912 259.16 57.1689 259.105 57.2586C259.051 57.3483 259.015 57.4479 259 57.5517Z" fill="#263238"/>
<path d="M258.032 55.5001C258.125 55.6179 258.789 55.2212 259.663 55.308C260.537 55.3947 261.138 55.8968 261.243 55.7976C261.349 55.6985 261.212 55.5497 260.952 55.3204C260.602 55.0235 260.169 54.8417 259.712 54.7997C259.257 54.7532 258.799 54.8531 258.404 55.0848C258.101 55.2646 257.989 55.4505 258.032 55.5001Z" fill="#263238"/>
<path d="M262.518 62.9193C262.069 62.7288 261.599 62.5955 261.117 62.5226C260.894 62.4792 260.689 62.4172 260.664 62.256C260.673 62.0323 260.748 61.8164 260.881 61.6362C261.142 61.1155 261.414 60.5639 261.706 59.9936C262.859 57.6569 263.72 55.723 263.621 55.6548C262.76 56.9771 262.006 58.3657 261.365 59.8077L260.565 61.4564C260.397 61.7126 260.325 62.0199 260.361 62.3242C260.386 62.4068 260.43 62.4826 260.489 62.5459C260.548 62.6092 260.621 62.6585 260.702 62.6899C260.822 62.7337 260.946 62.7628 261.073 62.7767C261.547 62.8865 262.032 62.9344 262.518 62.9193Z" fill="#263238"/>
<path d="M260.884 73.2335C263.872 73.5641 266.893 73.0599 269.611 71.7769C269.611 71.7769 266.921 75.9545 260.617 74.7459L260.884 73.2335Z" fill="#EB996E"/>
<path d="M258.718 52.407C258.854 52.624 259.48 52.4752 260.205 52.5372C260.93 52.5992 261.532 52.7975 261.693 52.6054C261.767 52.5124 261.693 52.3017 261.439 52.0847C261.099 51.8253 260.689 51.6722 260.263 51.6447C259.836 51.6171 259.41 51.7163 259.04 51.9298C258.798 52.1095 258.662 52.3079 258.718 52.407Z" fill="#263238"/>
<path d="M269.025 58.1898C268.998 58.4016 268.89 58.5946 268.724 58.7278C268.557 58.8609 268.345 58.9237 268.132 58.9026C268.028 58.8964 267.927 58.8695 267.833 58.8236C267.739 58.7777 267.656 58.7137 267.587 58.6353C267.519 58.5568 267.466 58.4656 267.433 58.3668C267.4 58.268 267.387 58.1636 267.395 58.0597C267.42 57.8473 267.527 57.6532 267.694 57.5198C267.862 57.3863 268.075 57.3242 268.287 57.3469C268.391 57.3532 268.493 57.38 268.586 57.4259C268.68 57.4718 268.764 57.5358 268.832 57.6143C268.901 57.6927 268.953 57.7839 268.986 57.8827C269.019 57.9815 269.032 58.0859 269.025 58.1898Z" fill="#263238"/>
<path d="M269.634 56.2316C269.516 56.3246 268.965 55.7853 268.091 55.6675C267.217 55.5498 266.523 55.9031 266.442 55.7853C266.361 55.6675 266.529 55.556 266.833 55.3886C267.247 55.1773 267.717 55.0994 268.178 55.1655C268.631 55.2266 269.053 55.4282 269.386 55.7419C269.622 55.9837 269.69 56.1882 269.634 56.2316Z" fill="#263238"/>
<path d="M269.504 53.2435C269.324 53.4171 268.748 53.132 268.028 53.0266C267.309 52.9212 266.671 52.977 266.559 52.7539C266.51 52.6423 266.634 52.4563 266.925 52.3076C267.311 52.1233 267.745 52.0669 268.165 52.1464C268.589 52.2083 268.984 52.4011 269.293 52.6981C269.522 52.9398 269.584 53.1816 269.504 53.2435Z" fill="#263238"/>
<path d="M276.152 60.9791L274.912 61.9398C270.889 56.7146 263.408 44.0266 263.817 44.7766C266.078 44.3052 268.422 44.4054 270.635 45.0679C274.044 46.2022 280.422 48.9667 279.691 53.0824C278.959 57.1981 276.152 60.9791 276.152 60.9791Z" fill="#263238"/>
<path d="M278.78 65.0271C278.799 64.6906 278.837 64.3554 278.892 64.0229C278.989 63.115 279.005 62.2003 278.941 61.2894C278.688 58.2784 277.706 55.3744 276.078 52.8287C274.423 50.3027 272.394 48.0434 270.059 46.1283C269.167 45.3845 268.429 44.808 267.908 44.4113C267.634 44.2202 267.371 44.0132 267.121 43.7915C267.121 43.7915 267.208 43.7915 267.35 43.9155C267.493 44.0394 267.71 44.1448 267.97 44.3308C268.51 44.6965 269.272 45.2481 270.183 45.9795C272.585 47.862 274.661 50.128 276.326 52.6861C277.981 55.2681 278.951 58.2288 279.146 61.2894C279.194 62.2134 279.147 63.1398 279.003 64.0539C278.96 64.3762 278.886 64.618 278.855 64.7915C278.842 64.8734 278.817 64.9529 278.78 65.0271Z" fill="#455A64"/>
<path d="M269.873 43.9341C269.956 43.9662 270.035 44.0078 270.109 44.058C270.264 44.1448 270.48 44.275 270.759 44.4547C271.311 44.8142 272.104 45.3535 273.04 46.0849C274.132 46.944 275.173 47.8649 276.158 48.8432C277.41 50.0041 278.515 51.3134 279.45 52.7419C279.924 53.498 280.294 54.3155 280.547 55.1717C280.777 55.9781 280.893 56.8125 280.894 57.651C280.887 59.0477 280.678 60.436 280.274 61.7729C279.933 62.9134 279.586 63.806 279.338 64.4196C279.214 64.7234 279.109 64.9589 279.04 65.12C279.006 65.202 278.964 65.2808 278.916 65.3556C279.003 65.0083 279.117 64.6684 279.257 64.339C279.468 63.7192 279.784 62.8143 280.094 61.68C280.471 60.3595 280.663 58.9932 280.664 57.62C280.651 56.8146 280.532 56.0144 280.311 55.2399C280.061 54.4102 279.7 53.6179 279.239 52.8845C278.314 51.4792 277.233 50.1837 276.016 49.0229C275.03 48.0497 273.996 47.127 272.916 46.2585C272.005 45.5147 271.23 44.9506 270.697 44.5663C270.408 44.3758 270.132 44.1645 269.873 43.9341Z" fill="#455A64"/>
<path d="M276.246 61.0971C276.067 60.9064 275.908 60.6988 275.769 60.4773L274.529 58.7045C273.519 57.2045 272.137 55.1157 270.63 52.7975C269.124 50.4793 267.767 48.3781 266.8 46.8409L265.666 45.0186C265.519 44.7999 265.391 44.5698 265.281 44.3306C265.461 44.52 265.621 44.7277 265.759 44.9504L266.998 46.7231C268.009 48.2231 269.391 50.312 270.903 52.6302C272.416 54.9483 273.767 57.0558 274.734 58.5868L275.868 60.4153C276.017 60.6291 276.144 60.8575 276.246 61.0971Z" fill="#455A64"/>
<path d="M274.969 62.6526C275.019 62.1816 275.676 61.1154 276.147 61.0907C277.387 61.0163 279.655 61.3324 279.364 64.506C278.973 68.8448 274.709 67.5493 274.709 67.4254C274.709 67.3014 274.808 64.2828 274.969 62.6526Z" fill="#FFBE9D"/>
<path d="M275.908 65.7955C275.908 65.7955 275.976 65.8575 276.1 65.9257C276.185 65.9727 276.279 66.0024 276.376 66.0131C276.473 66.0237 276.571 66.0151 276.664 65.9877C276.96 65.8372 277.211 65.6101 277.39 65.3299C277.569 65.0498 277.669 64.7268 277.681 64.3947C277.723 64.0227 277.682 63.6461 277.563 63.2914C277.534 63.154 277.472 63.0257 277.383 62.9176C277.293 62.8096 277.178 62.7251 277.048 62.6716C276.963 62.6428 276.871 62.6436 276.787 62.674C276.702 62.7044 276.631 62.7625 276.584 62.8389C276.515 62.9567 276.534 63.0435 276.515 63.0497C276.497 63.0558 276.429 62.9691 276.478 62.7955C276.51 62.6906 276.578 62.6004 276.67 62.5414C276.733 62.501 276.803 62.4737 276.877 62.4609C276.95 62.4481 277.025 62.4502 277.098 62.467C277.274 62.5168 277.434 62.6116 277.562 62.7421C277.69 62.8725 277.783 63.034 277.829 63.2108C277.984 63.6046 278.035 64.0313 277.978 64.4505C277.873 65.3244 277.358 66.0992 276.739 66.2232C276.619 66.2473 276.496 66.2442 276.378 66.2141C276.26 66.1841 276.15 66.1279 276.057 66.0497C275.908 65.9009 275.896 65.8017 275.908 65.7955Z" fill="#EB996E"/>
<path d="M285.148 223.066C285.061 223.748 283.382 242.808 283.382 242.808H274.648L273.117 223.147L285.148 223.066Z" fill="#FFBE9D"/>
<path d="M274.628 239.969C274.628 239.969 280.764 244.308 283.727 240.558L284.508 242.38L287.991 255.397C288.111 255.804 288.077 256.242 287.897 256.626C287.717 257.011 287.402 257.317 287.012 257.486C286.713 257.604 286.386 257.635 286.07 257.575C285.754 257.515 285.461 257.365 285.227 257.145C282.704 254.74 273.45 245.87 273.562 244.667L273.593 241.475C273.598 241.151 273.699 240.835 273.883 240.568C274.067 240.302 274.326 240.095 274.628 239.975V239.969Z" fill="#FF725E"/>
<path d="M286.69 257.566L273.55 243.552V244.246C273.534 244.533 273.582 244.82 273.689 245.086C273.796 245.353 273.96 245.593 274.17 245.789C275.236 247.221 278.18 250.432 285.165 257.139C285.365 257.331 285.61 257.47 285.877 257.545C286.144 257.62 286.426 257.627 286.696 257.566H286.69Z" fill="#263238"/>
<path d="M275.48 241.469C275.683 241.617 275.824 241.835 275.877 242.081C275.929 242.327 275.89 242.583 275.765 242.802C275.625 243.011 275.41 243.158 275.164 243.213C274.919 243.268 274.661 243.228 274.445 243.099C274.23 242.941 274.082 242.71 274.028 242.449C273.974 242.188 274.019 241.916 274.154 241.686C274.322 241.484 274.562 241.355 274.823 241.326C275.084 241.298 275.346 241.371 275.554 241.531" fill="white"/>
<path d="M282.917 250.388C283.31 249.871 283.798 249.434 284.355 249.099C284.948 248.864 285.578 248.738 286.215 248.727C286.215 248.69 286.023 248.56 285.638 248.51C285.131 248.453 284.618 248.545 284.163 248.777C283.703 248.999 283.319 249.353 283.06 249.793C282.899 250.128 282.874 250.376 282.917 250.388Z" fill="#263238"/>
<path d="M284.094 252.589C284.565 252.32 285.051 252.08 285.551 251.87C286.081 251.769 286.617 251.698 287.156 251.659C287.206 251.572 286.412 251.231 285.445 251.529C284.478 251.826 284.007 252.545 284.094 252.589Z" fill="#263238"/>
<path d="M280.723 247.568C281.415 247.103 282.14 246.688 282.892 246.329C283.69 246.073 284.506 245.88 285.334 245.752C285.334 245.659 284.132 245.436 282.756 245.994C281.912 246.26 281.192 246.818 280.723 247.568Z" fill="#263238"/>
<path d="M280.428 243.607C280.477 243.707 281.382 243.322 282.566 243.279C283.75 243.235 284.686 243.508 284.723 243.409C284.056 243.05 283.305 242.878 282.548 242.913C281.791 242.948 281.058 243.188 280.428 243.607Z" fill="#263238"/>
<path d="M283.241 243.242C283.253 243.031 283.222 242.82 283.148 242.622C282.985 242.073 282.715 241.561 282.355 241.116C282.12 240.764 281.776 240.5 281.375 240.366C281.24 240.333 281.098 240.343 280.968 240.394C280.838 240.445 280.728 240.535 280.65 240.651C280.518 240.888 280.476 241.166 280.532 241.432C280.672 241.972 280.996 242.447 281.449 242.773C281.902 243.099 282.455 243.256 283.012 243.217C283.558 243.17 284.078 242.963 284.506 242.621C284.934 242.279 285.251 241.818 285.417 241.295C285.458 241.163 285.469 241.024 285.451 240.887C285.433 240.75 285.385 240.619 285.311 240.502C285.231 240.387 285.113 240.303 284.978 240.263C284.842 240.224 284.698 240.231 284.568 240.285C284.186 240.447 283.853 240.706 283.601 241.035C283.229 241.469 282.936 241.964 282.733 242.498C282.643 242.692 282.594 242.903 282.59 243.118C282.895 242.43 283.3 241.79 283.793 241.221C284.024 240.949 284.317 240.736 284.648 240.601C284.72 240.574 284.799 240.57 284.872 240.592C284.946 240.613 285.011 240.658 285.057 240.719C285.102 240.799 285.128 240.887 285.135 240.978C285.141 241.069 285.127 241.161 285.094 241.246C284.93 241.687 284.643 242.072 284.268 242.357C283.893 242.641 283.444 242.813 282.975 242.851C282.506 242.879 282.042 242.747 281.658 242.476C281.274 242.206 280.993 241.814 280.861 241.364C280.816 241.18 280.838 240.987 280.923 240.818C280.963 240.752 281.023 240.7 281.094 240.67C281.165 240.64 281.244 240.633 281.32 240.651C281.655 240.768 281.947 240.984 282.156 241.271C282.631 241.859 282.998 242.526 283.241 243.242Z" fill="#263238"/>
<path d="M237.191 216.862L238.698 241.196L249.272 241.122L251.057 215.839L237.191 216.862Z" fill="#FFBE9D"/>
<path d="M238.507 238.258V238.965C238.507 238.965 226.569 243.707 226.42 245.95H250.098L249.763 238.072C248.01 238.91 246.097 239.36 244.155 239.392C242.213 239.424 240.286 239.037 238.507 238.258Z" fill="#FF725E"/>
<path d="M247.371 240.583C247.599 240.652 247.793 240.803 247.916 241.006C248.04 241.21 248.084 241.452 248.04 241.686C247.98 241.916 247.834 242.114 247.632 242.24C247.431 242.365 247.188 242.409 246.955 242.362C246.714 242.288 246.508 242.128 246.377 241.911C246.247 241.695 246.201 241.438 246.249 241.19C246.337 240.957 246.512 240.766 246.737 240.659C246.963 240.551 247.221 240.535 247.458 240.614" fill="white"/>
<path d="M250.12 245.951L250.04 244.06L227.379 244.779C227.379 244.779 226.325 245.238 226.443 245.975L250.12 245.951Z" fill="#263238"/>
<path d="M238.411 239.033C238.411 239.145 238.993 239.194 239.564 239.566C240.134 239.938 240.438 240.428 240.543 240.378C240.648 240.329 240.475 239.665 239.781 239.231C239.086 238.798 238.386 238.922 238.411 239.033Z" fill="#263238"/>
<path d="M235.932 240.062C235.932 240.174 236.403 240.366 236.799 240.856C237.196 241.345 237.308 241.86 237.419 241.86C237.531 241.86 237.611 241.196 237.109 240.62C236.607 240.044 235.932 239.951 235.932 240.062Z" fill="#263238"/>
<path d="M234.524 243.031C234.63 243.031 234.791 242.479 234.524 241.847C234.258 241.215 233.681 240.961 233.632 241.06C233.582 241.159 233.923 241.494 234.159 242.014C234.394 242.535 234.407 243.025 234.524 243.031Z" fill="#263238"/>
<path d="M251.057 141.552C250.741 142.463 238.202 184.94 238.202 184.94L236.045 235.351L251.652 236.25L257.231 185.919L271.487 154.438L265.221 128.826H252.477L251.057 141.552Z" fill="#263238"/>
<path d="M262.166 128.839C262.389 129.459 270.391 158.281 270.391 158.281L271.501 201.26V236.82H285.726L292.352 158.399C292.352 158.399 293.523 144.143 291.521 139.351C289.519 134.56 281.412 126.143 281.412 126.143L262.166 128.839Z" fill="#263238"/>
<path d="M263.309 131.789C263.442 132.115 263.549 132.451 263.631 132.793C263.835 133.494 264.108 134.424 264.43 135.546C265.15 137.919 266.104 141.124 267.164 144.614C268.224 148.103 269.073 151.432 269.569 153.781C269.829 154.971 269.997 155.938 270.096 156.607C270.166 156.952 270.205 157.303 270.214 157.655C270.108 157.32 270.027 156.979 269.972 156.632C269.835 155.969 269.631 155.008 269.352 153.837C268.8 151.475 267.908 148.258 266.873 144.707C265.838 141.155 264.858 137.95 264.232 135.607C263.916 134.436 263.674 133.488 263.526 132.824C263.423 132.486 263.351 132.14 263.309 131.789Z" fill="#455A64"/>
<path d="M268.22 131.789C267.868 131.902 267.557 132.118 267.328 132.409C267.218 132.566 267.148 132.748 267.127 132.939C267.105 133.129 267.132 133.322 267.204 133.5C267.29 133.715 267.434 133.901 267.62 134.038C267.806 134.175 268.027 134.257 268.258 134.275C268.489 134.278 268.717 134.217 268.915 134.097C269.113 133.978 269.274 133.805 269.38 133.599C269.47 133.431 269.518 133.242 269.518 133.051C269.518 132.859 269.47 132.671 269.38 132.502C269.181 132.184 268.892 131.934 268.549 131.783C268.549 131.783 268.673 131.752 268.877 131.82C269.166 131.927 269.411 132.128 269.572 132.391C269.703 132.586 269.781 132.813 269.797 133.048C269.813 133.282 269.768 133.518 269.665 133.729C269.545 133.998 269.347 134.224 269.097 134.379C268.847 134.533 268.556 134.609 268.262 134.595C267.968 134.582 267.685 134.48 267.45 134.304C267.215 134.127 267.038 133.884 266.944 133.605C266.862 133.384 266.839 133.146 266.877 132.914C266.915 132.681 267.013 132.462 267.16 132.279C267.347 132.032 267.611 131.856 267.911 131.777C268.096 131.746 268.22 131.771 268.22 131.789Z" fill="#455A64"/>
<path d="M280.848 152.492C280.856 152.564 280.856 152.637 280.848 152.709C280.848 152.87 280.848 153.074 280.848 153.328C280.848 153.911 280.848 154.729 280.848 155.771C280.848 157.897 280.848 160.965 280.78 164.758C280.669 172.345 280.328 182.814 279.881 194.38C279.435 205.946 279.063 216.421 278.89 224.002C278.803 227.795 278.747 230.864 278.716 232.983C278.716 234.025 278.716 234.843 278.679 235.426C278.679 235.686 278.679 235.893 278.679 236.045C278.707 236.05 278.731 236.065 278.749 236.087C278.766 236.109 278.774 236.137 278.772 236.165C278.769 236.193 278.757 236.219 278.736 236.238C278.715 236.257 278.688 236.267 278.66 236.267C278.632 236.267 278.605 236.257 278.585 236.238C278.564 236.219 278.552 236.193 278.549 236.165C278.547 236.137 278.555 236.109 278.572 236.087C278.589 236.065 278.614 236.05 278.642 236.045C278.642 235.884 278.642 235.674 278.642 235.426C278.642 234.843 278.642 234.025 278.642 232.983C278.642 230.857 278.642 227.789 278.71 223.996C278.828 216.409 279.162 205.934 279.609 194.368C280.055 182.802 280.427 172.333 280.6 164.752C280.687 160.959 280.749 157.89 280.774 155.771C280.774 154.729 280.805 153.911 280.811 153.328C280.811 153.062 280.811 152.857 280.811 152.709C280.814 152.635 280.827 152.562 280.848 152.492Z" fill="#455A64"/>
<path d="M258.896 147.316C258.88 147.39 258.857 147.463 258.828 147.533L258.586 148.153C258.357 148.729 258.035 149.548 257.626 150.595C256.777 152.727 255.555 155.783 254.043 159.552C252.531 163.32 250.808 167.87 249.159 172.99C247.276 178.51 245.957 184.206 245.223 189.992C244.894 193.091 244.752 196.116 244.566 199.035C244.38 201.955 244.256 204.781 244.107 207.471C243.828 212.845 243.58 217.686 243.369 221.765C243.159 225.843 242.936 229.122 242.75 231.391C242.657 232.512 242.588 233.386 242.539 234.006C242.508 234.291 242.489 234.515 242.471 234.682C242.466 234.761 242.455 234.84 242.44 234.917C242.432 234.839 242.432 234.76 242.44 234.682C242.44 234.515 242.44 234.285 242.471 234C242.508 233.38 242.558 232.506 242.626 231.384C242.756 229.11 242.929 225.806 243.122 221.752C243.314 217.698 243.543 212.833 243.791 207.459C243.934 204.769 244.076 201.942 244.231 199.017C244.386 196.091 244.553 193.06 244.882 189.961C245.63 184.158 246.97 178.446 248.88 172.915C250.547 167.789 252.326 163.271 253.838 159.49C255.351 155.709 256.64 152.672 257.514 150.57C257.948 149.529 258.289 148.711 258.531 148.147L258.803 147.527C258.827 147.454 258.858 147.383 258.896 147.316Z" fill="#455A64"/>
<path d="M280.359 78.0991C280.359 78.0991 288.819 79.6797 290.679 81.2293C292.538 82.7789 309.485 104.882 309.838 109.345C310.191 113.808 308.127 115.444 306.956 116.504C305.784 117.564 285.528 131.281 285.528 131.281L279.299 120.948L296.803 110.492L288.355 96.0433L280.359 78.0991Z" fill="#FF725E"/>
<path d="M302.453 106.562C301.269 106.74 300.128 107.135 299.087 107.727C298.103 108.407 297.251 109.26 296.57 110.244C296.649 109.886 296.808 109.551 297.035 109.264C297.53 108.536 298.171 107.918 298.918 107.452C299.666 106.985 300.502 106.68 301.374 106.556C301.729 106.475 302.098 106.477 302.453 106.562Z" fill="#FF725E"/>
<path d="M259.851 79.1715L262.094 99.5269L273.543 76.593L280.925 84.093C280.925 84.093 285.456 110.901 285.524 111.093C285.592 111.285 282.425 126.428 282.425 126.428L261.443 130.488L255.041 128.858L254.03 105.012L253.584 86.7521L259.851 79.1715Z" fill="white"/>
<path d="M257.131 80.0392L251.683 81.2788C250.955 81.4471 250.279 81.7895 249.712 82.2768C245.063 86.2561 235.01 94.6735 235.01 94.6735L236.869 79.7354L227.187 78.8367C227.187 78.8367 224.286 97.6673 224.584 102.62C224.937 108.372 230.094 109.785 237.6 106.692C242.24 104.83 246.73 102.617 251.032 100.072L257.131 80.0392Z" fill="#FF725E"/>
<path d="M287.517 96.1239L286.519 113.975L287.523 117.446C287.523 117.446 296.92 135.186 298.469 146.932L286.841 148.791C286.841 148.791 283.668 133.636 281.436 126.124C279.205 118.611 272.604 115.45 270.372 107.727C269.028 103.315 268.551 98.6845 268.965 94.0908C268.965 93.6197 273.546 76.5867 273.546 76.5867L274.364 73.0288L278.48 76.94L289.048 80.4544L287.517 96.1239Z" fill="#FF725E"/>
<g opacity="0.3">
<path d="M293.058 129.322C291.136 130.808 289.126 132.176 287.039 133.419C286.915 133.481 286.754 133.55 286.574 133.618C286.156 133.772 285.695 133.77 285.278 133.613C284.86 133.456 284.513 133.154 284.3 132.762C284.052 132.31 283.797 131.833 283.63 131.473C283.202 130.55 282.738 129.44 282.322 128.479L283.63 128.163L285.527 131.306L290.994 127.587L292.035 126.874L293.058 129.322Z" fill="black"/>
</g>
<path d="M259.952 77.1633L257.411 79.8224L251.318 81.9608C251.318 81.9608 249.83 99.9361 250.636 103.767C251.417 107.448 252.904 111.924 253.028 117.211C253.152 122.498 247.115 150.44 247.115 150.44L254.417 153.211C254.417 153.211 258.136 120.862 257.411 113.808C256.685 106.754 258.57 92.5352 258.57 92.5352L259.952 77.1633Z" fill="#FF725E"/>
<path d="M273.771 111.446C273.673 111.358 273.583 111.26 273.504 111.155C273.268 110.855 273.06 110.533 272.884 110.194C272.275 108.924 271.951 107.537 271.936 106.128C271.913 104.054 272.058 101.981 272.37 99.9298C272.709 97.4172 273.224 94.9317 273.913 92.4918C275.082 88.2967 276.747 84.2558 278.872 80.4546L278.971 80.6343L276.386 80.5538H276.2L276.312 80.405L278.01 78.124L278.469 77.5042C278.518 77.4326 278.576 77.368 278.643 77.312C278.609 77.3917 278.565 77.4667 278.512 77.5352L278.091 78.155L276.467 80.4918L276.393 80.343L278.977 80.374H279.176L279.076 80.5476C277.012 84.3565 275.378 88.3834 274.205 92.5538C273.523 94.9776 273.001 97.4437 272.643 99.936C272.327 101.966 272.161 104.017 272.147 106.072C272.145 107.454 272.428 108.821 272.977 110.089C273.217 110.556 273.482 111.009 273.771 111.446Z" fill="#263238"/>
<path d="M280.93 94.9648C279.962 95.2901 278.955 95.4819 277.936 95.5351C276.928 95.6882 275.904 95.7007 274.893 95.5723C275.887 95.3829 276.894 95.2627 277.905 95.2128C278.906 95.0553 279.917 94.9725 280.93 94.9648Z" fill="#263238"/>
<path d="M288.34 90.8245C288.323 91.1294 288.28 91.4322 288.21 91.7294C288.129 92.3121 288.024 93.155 287.925 94.2088C287.726 96.3038 287.528 99.1984 287.305 102.397L286.809 110.597C286.734 111.645 286.672 112.494 286.617 113.077C286.607 113.382 286.565 113.685 286.493 113.981C286.469 113.678 286.469 113.374 286.493 113.07C286.493 112.42 286.542 111.583 286.58 110.591C286.66 108.49 286.79 105.589 286.982 102.384C287.175 99.1798 287.416 96.2852 287.677 94.1902C287.801 93.1488 287.943 92.3307 288.061 91.7108C288.125 91.4071 288.218 91.1102 288.34 90.8245Z" fill="#263238"/>
<path d="M301.873 111.087C301.842 111.18 300.702 110.814 299.239 110.709C297.776 110.603 296.599 110.789 296.58 110.709C297.437 110.391 298.358 110.286 299.264 110.405C300.176 110.419 301.071 110.653 301.873 111.087Z" fill="#263238"/>
<path d="M235.07 94.3264C234.885 95.1305 234.598 95.9075 234.215 96.6384C233.93 97.4129 233.545 98.1465 233.068 98.8202C233.25 98.015 233.537 97.2375 233.924 96.5082C234.212 95.7353 234.597 95.0021 235.07 94.3264Z" fill="#263238"/>
<path d="M250.267 88.3699C250.354 88.3699 250.497 91.8781 250.577 96.2108C250.658 100.543 250.658 104.058 250.577 104.058C250.497 104.058 250.348 100.55 250.261 96.217C250.175 91.8843 250.181 88.3761 250.267 88.3699Z" fill="#263238"/>
<path d="M257.5 103.11C257.444 102.811 257.417 102.508 257.419 102.205C257.419 101.585 257.37 100.729 257.333 99.7253C257.271 97.6365 257.202 94.7666 257.153 91.5683C257.103 88.3699 257.078 85.4939 257.072 83.405C257.072 82.4071 257.072 81.5765 257.072 80.9257C257.06 80.6232 257.077 80.3201 257.122 80.0208C257.178 80.3191 257.205 80.6222 257.202 80.9257C257.202 81.5455 257.252 82.4009 257.289 83.405C257.351 85.4939 257.413 88.3637 257.463 91.5621C257.512 94.7604 257.543 97.6303 257.55 99.7191C257.55 100.717 257.55 101.579 257.55 102.198C257.558 102.503 257.542 102.808 257.5 103.11Z" fill="#263238"/>
<path d="M303.383 119.07C303.279 119.166 303.167 119.253 303.048 119.331L302.057 120.043L298.338 122.653L285.619 131.436L285.482 131.535L285.396 131.392L282.606 126.769L279.172 121.054L279.092 120.917L279.222 120.837L291.78 113.399L295.462 111.254L296.453 110.69C296.566 110.62 296.684 110.56 296.807 110.51C296.705 110.598 296.595 110.675 296.478 110.74L295.517 111.359L291.885 113.578L279.377 121.109L279.433 120.892C280.517 122.696 281.683 124.611 282.879 126.601L285.662 131.225L285.433 131.176C290.528 127.717 294.997 124.68 298.214 122.498L301.995 119.969L303.017 119.3C303.133 119.214 303.256 119.137 303.383 119.07Z" fill="#263238"/>
<g opacity="0.3">
<path d="M272.927 110.12C272.737 107.454 272.99 104.775 273.677 102.192C275.278 94.9461 277.913 87.9678 281.499 81.471C281.082 81.2412 280.604 81.1465 280.131 81.1998C279.659 81.2531 279.214 81.4518 278.859 81.7685C278.163 82.42 277.624 83.2212 277.284 84.1115C274.548 89.955 272.819 96.2188 272.17 102.638C272.01 103.871 271.979 105.118 272.078 106.357C272.201 107.659 272.201 109.023 273.007 110.045" fill="black"/>
</g>
<g opacity="0.3">
<path d="M250.248 89.6714C248.32 93.0185 248.574 97.0474 250.415 100.444C250.415 96.7251 250.415 93.471 250.192 89.721" fill="black"/>
</g>
<path d="M265.241 64.841C265.225 64.7309 265.185 64.6256 265.124 64.5325C265.063 64.4394 264.982 64.3607 264.888 64.3017C264.758 64.2497 264.618 64.2285 264.479 64.2397C263.672 64.254 262.87 64.3685 262.092 64.5806L262.049 64.7046C262.086 65.052 262.159 65.3946 262.266 65.7273C262.371 66.0626 262.568 66.3614 262.836 66.5889C263.097 66.7817 263.413 66.8857 263.738 66.8857C264.062 66.8857 264.379 66.7817 264.64 66.5889C264.894 66.3838 265.086 66.1109 265.192 65.8016C265.299 65.4924 265.316 65.1594 265.241 64.841Z" fill="#EB996E"/>
<path d="M262.842 66.7375C263.178 66.7673 263.517 66.7464 263.846 66.6755C264.188 66.5711 264.484 66.3522 264.683 66.0556C264.802 65.8818 264.883 65.685 264.922 65.478C264.96 65.2709 264.955 65.0581 264.906 64.8532C264.869 64.6598 264.758 64.4886 264.596 64.3759C264.415 64.3163 264.22 64.3163 264.039 64.3759L262.923 64.5866C262.579 64.6782 262.224 64.7179 261.869 64.7044C262.185 64.5405 262.523 64.4255 262.873 64.3635L263.977 64.0846C264.223 63.9956 264.493 63.9956 264.739 64.0846C264.861 64.158 264.966 64.256 265.049 64.3723C265.131 64.4886 265.188 64.6207 265.216 64.7602C265.277 65.0095 265.283 65.2692 265.232 65.5209C265.182 65.7725 265.077 66.0101 264.925 66.2168C264.67 66.5401 264.307 66.7603 263.902 66.8366C263.729 66.8999 263.544 66.9238 263.361 66.9066C263.178 66.8895 263.001 66.8317 262.842 66.7375Z" fill="#263238"/>
<path d="M276.373 67.3574C276.284 67.1273 276.122 66.9333 275.911 66.8064C275.699 66.6794 275.452 66.6268 275.207 66.657C275.069 66.6727 274.935 66.7186 274.817 66.7914C274.698 66.8643 274.596 66.9622 274.519 67.0785C274.397 67.2806 274.343 67.5165 274.364 67.7517C274.385 67.9869 274.481 68.2092 274.637 68.3863C274.801 68.5555 275.016 68.666 275.249 68.7008C275.482 68.7355 275.72 68.6925 275.926 68.5785C276.127 68.4549 276.281 68.2671 276.362 68.0455C276.443 67.8239 276.447 67.5814 276.373 67.3574Z" fill="#FAFAFA"/>
<path d="M279.569 121.587L272.397 115.233L266.341 115.754C266.341 115.754 266.552 116.746 267.389 116.901C268.226 117.056 271.25 117.111 271.25 117.111L272.67 118.519L269.056 118.159L264.463 120.868C264.463 120.868 264.358 121.704 265.56 121.488C266.754 121.197 267.923 120.814 269.056 120.341L271.728 120.496L268.815 120.917L265.04 123.576C265.29 123.837 265.608 124.024 265.958 124.117C266.307 124.21 266.676 124.205 267.023 124.103C268.226 123.738 269.682 123.161 269.682 123.161L272.974 122.845L269.682 123.682L267.234 126.713C267.466 126.874 267.742 126.961 268.024 126.961C268.307 126.961 268.583 126.874 268.815 126.713C269.299 126.373 269.764 126.006 270.209 125.616L273.86 125.454C273.86 125.454 277.895 128.38 279.296 128.696C280.697 129.012 283.635 128.157 283.635 128.157L279.569 121.587Z" fill="#FFBE9D"/>
<path d="M421.714 151.481H310.584V213.62H421.714V151.481Z" fill="#FAFAFA"/>
<path d="M421.713 213.62C421.713 213.62 421.713 213.236 421.713 212.504C421.713 211.773 421.713 210.682 421.713 209.262C421.713 206.411 421.713 202.221 421.713 196.835C421.713 186.081 421.676 170.56 421.645 151.481L421.769 151.605L310.645 151.643L310.806 151.481C310.806 173.455 310.806 194.473 310.806 213.62L310.657 213.471L390.616 213.545L413.55 213.583H419.674H421.254H421.793H421.273H419.705H413.618L390.684 213.626L310.657 213.7H310.502V213.545C310.502 194.399 310.502 173.38 310.502 151.407V151.246H310.669L421.793 151.283H421.917V151.407C421.917 170.517 421.868 186.062 421.849 196.841C421.849 202.209 421.849 206.393 421.849 209.238C421.849 210.651 421.849 211.717 421.849 212.461C421.849 213.205 421.713 213.62 421.713 213.62Z" fill="#263238"/>
<path d="M339.879 166.289H324.166V182.002H339.879V166.289Z" fill="#455A64"/>
<path d="M361.453 168.471C361.453 168.564 357.783 168.639 353.265 168.639C348.746 168.639 345.07 168.564 345.07 168.471C345.07 168.378 348.74 168.31 353.265 168.31C357.789 168.31 361.453 168.409 361.453 168.471Z" fill="#FF725E"/>
<path d="M413.761 174.149C413.761 174.235 398.377 174.31 379.41 174.31C360.443 174.31 345.059 174.235 345.059 174.149C345.059 174.062 360.437 173.988 379.41 173.988C398.383 173.988 413.761 174.05 413.761 174.149Z" fill="#263238"/>
<path d="M390.656 180.483C390.656 180.57 380.547 180.645 368.088 180.645C355.629 180.645 345.514 180.57 345.514 180.483C345.514 180.397 355.617 180.322 368.088 180.322C380.559 180.322 390.656 180.397 390.656 180.483Z" fill="#263238"/>
<path d="M405.263 190.822H329.351C325.329 190.822 322.068 194.083 322.068 198.105C322.068 202.128 325.329 205.388 329.351 205.388H405.263C409.285 205.388 412.546 202.128 412.546 198.105C412.546 194.083 409.285 190.822 405.263 190.822Z" fill="#FF725E"/>
<path d="M353.351 199.122H351.491L351.138 199.983H350.184L351.975 195.973H352.892L354.684 199.983H353.71L353.351 199.122ZM353.06 198.422L352.44 196.884L351.82 198.422H353.06Z" fill="white"/>
<path d="M358.592 197.43C358.592 198.322 357.923 198.88 356.851 198.88H356.045V199.983H355.115V195.973H356.851C357.904 195.973 358.592 196.525 358.592 197.43ZM357.657 197.43C357.657 196.99 357.365 196.729 356.801 196.729H356.045V198.124H356.801C357.353 198.124 357.638 197.864 357.638 197.43H357.657Z" fill="white"/>
<path d="M362.717 197.43C362.717 198.322 362.048 198.88 360.975 198.88H360.169V199.983H359.215V195.973H360.95C362.047 195.973 362.717 196.525 362.717 197.43ZM361.775 197.43C361.775 196.99 361.49 196.729 360.926 196.729H360.169V198.124H360.926C361.49 198.124 361.775 197.864 361.775 197.43Z" fill="white"/>
<path d="M363.379 195.973H364.302V199.227H366.317V199.983H363.379V195.973Z" fill="white"/>
<path d="M368.348 198.564V199.983H367.419V198.552L365.869 195.973H366.855L367.927 197.752L368.999 195.973H369.91L368.348 198.564Z" fill="white"/>
<path d="M375.605 195.973V199.983H374.843L372.853 197.548V199.983H371.936V195.973H372.704L374.712 198.409V195.973H375.605Z" fill="white"/>
<path d="M376.3 197.975C376.276 197.536 376.383 197.099 376.609 196.721C376.836 196.343 377.17 196.042 377.569 195.856C377.969 195.67 378.414 195.609 378.849 195.679C379.284 195.75 379.687 195.949 380.007 196.251C380.328 196.553 380.55 196.945 380.645 197.374C380.741 197.804 380.705 198.253 380.543 198.662C380.381 199.072 380.099 199.423 379.735 199.671C379.371 199.918 378.941 200.051 378.501 200.052C378.218 200.069 377.934 200.027 377.668 199.931C377.402 199.834 377.158 199.684 376.952 199.489C376.746 199.295 376.581 199.06 376.469 198.8C376.357 198.539 376.3 198.259 376.3 197.975ZM379.753 197.975C379.743 197.732 379.662 197.498 379.52 197.301C379.378 197.103 379.181 196.952 378.954 196.866C378.727 196.78 378.479 196.762 378.242 196.815C378.005 196.869 377.789 196.99 377.621 197.166C377.452 197.341 377.339 197.562 377.295 197.801C377.251 198.04 377.278 198.286 377.373 198.51C377.469 198.734 377.627 198.924 377.83 199.059C378.033 199.193 378.27 199.264 378.513 199.265C378.68 199.265 378.846 199.231 378.999 199.166C379.153 199.1 379.292 199.004 379.408 198.884C379.524 198.764 379.614 198.621 379.673 198.465C379.732 198.309 379.76 198.142 379.753 197.975Z" fill="white"/>
<path d="M387.328 195.973L386.014 199.983H385.016L384.136 197.269L383.224 199.983H382.233L380.906 195.973H381.867L382.778 198.793L383.72 195.973H384.582L385.499 198.812L386.429 195.973H387.328Z" fill="white"/>
<path d="M102.698 108.304H20.4395V154.295H102.698V108.304Z" fill="#FAFAFA"/>
<path d="M102.696 154.302C102.696 154.302 102.696 154.016 102.696 153.471C102.696 152.926 102.696 152.12 102.696 151.066C102.696 148.952 102.696 145.853 102.665 141.868C102.665 133.903 102.622 122.423 102.597 108.304L102.721 108.428L20.4688 108.465L20.63 108.304C20.63 124.568 20.63 140.126 20.63 154.302L20.4812 154.153L79.6259 154.221L96.6279 154.264H101.165H102.337H102.74H102.355H101.196H96.6961L79.7312 154.302L20.4812 154.376H20.2891V154.227C20.2891 140.052 20.2891 124.475 20.2891 108.229V108.068H20.4564L102.709 108.111H102.832V108.229C102.832 122.38 102.783 133.89 102.764 141.868C102.764 145.841 102.764 148.934 102.733 151.041C102.733 152.083 102.733 152.901 102.733 153.421C102.733 153.942 102.696 154.302 102.696 154.302Z" fill="#263238"/>
<path d="M42.1183 119.269H30.4902V130.897H42.1183V119.269Z" fill="#455A64"/>
<path d="M58.0947 120.905C56.0782 121.065 54.0548 121.118 52.0327 121.066C50.0106 121.118 47.9872 121.065 45.9707 120.905C47.987 120.742 50.0106 120.688 52.0327 120.744C54.0548 120.688 56.0784 120.742 58.0947 120.905Z" fill="#FF725E"/>
<path d="M96.8108 125.083C96.8108 125.176 85.4307 125.244 71.3976 125.244C57.3645 125.244 45.9844 125.176 45.9844 125.083C45.9844 124.99 57.3645 124.921 71.3976 124.921C85.4307 124.921 96.8108 124.996 96.8108 125.083Z" fill="#263238"/>
<path d="M79.706 129.775C79.706 129.861 72.2308 129.936 63.0014 129.936C53.7721 129.936 46.2969 129.861 46.2969 129.775C46.2969 129.688 53.7721 129.614 63.0324 129.614C72.2928 129.614 79.706 129.682 79.706 129.775Z" fill="#263238"/>
<path d="M90.5197 137.424H34.3379C31.3596 137.424 28.9453 139.837 28.9453 142.813C28.9453 145.79 31.3596 148.203 34.3379 148.203H90.5197C93.498 148.203 95.9123 145.79 95.9123 142.813C95.9123 139.837 93.498 137.424 90.5197 137.424Z" fill="#FF725E"/>
<path d="M52.0992 143.572H50.7169L50.4504 144.192H49.75L51.0702 141.217H51.7769L53.1095 144.192H52.3843L52.0992 143.572ZM51.8822 143.052L51.4112 141.911L50.9401 143.052H51.8822Z" fill="white"/>
<path d="M55.9691 142.314C55.9691 142.977 55.4733 143.386 54.6799 143.386H54.06V144.211H53.3906V141.236H54.6799C55.4981 141.236 55.9691 141.645 55.9691 142.314ZM55.2749 142.314C55.2749 141.986 55.058 141.793 54.6551 141.793H54.091V142.829H54.6551C55.058 142.829 55.2749 142.636 55.2749 142.314Z" fill="white"/>
<path d="M59.0287 142.314C59.0287 142.977 58.5329 143.386 57.7395 143.386H57.1197V144.211H56.4316V141.236H57.7147C58.5329 141.236 59.0287 141.645 59.0287 142.314ZM58.3345 142.314C58.3345 141.986 58.1238 141.793 57.7147 141.793H57.1568V142.829H57.7147C58.1238 142.829 58.3345 142.636 58.3345 142.314Z" fill="white"/>
<path d="M59.5176 141.236H60.2056V143.678H61.6932V144.242H59.5176V141.236Z" fill="white"/>
<path d="M63.2019 143.157V144.211H62.5139V143.145L61.3672 141.236H62.0924L62.892 142.556L63.6854 141.236H64.361L63.2019 143.157Z" fill="white"/>
<path d="M68.5668 141.236V144.211H68.0027L66.5213 142.401V144.211H65.8457V141.236H66.4098L67.8912 143.058V141.254L68.5668 141.236Z" fill="white"/>
<path d="M69.0863 142.723C69.069 142.399 69.1492 142.077 69.3168 141.799C69.4844 141.52 69.7315 141.299 70.0263 141.162C70.3211 141.026 70.65 140.981 70.9705 141.034C71.291 141.086 71.5885 141.234 71.8243 141.457C72.0602 141.68 72.2237 141.969 72.2937 142.286C72.3638 142.603 72.3371 142.934 72.2171 143.236C72.0972 143.538 71.8895 143.797 71.6209 143.98C71.3523 144.162 71.0351 144.26 70.7103 144.26C70.5012 144.272 70.292 144.241 70.0953 144.169C69.8987 144.097 69.7188 143.986 69.5668 143.842C69.4147 143.698 69.2937 143.525 69.211 143.332C69.1284 143.14 69.086 142.933 69.0863 142.723ZM71.64 142.723C71.6364 142.54 71.5787 142.362 71.4744 142.212C71.37 142.061 71.2236 141.945 71.0534 141.878C70.8832 141.81 70.6969 141.794 70.5178 141.832C70.3387 141.87 70.1747 141.96 70.0465 142.091C69.9184 142.222 69.8317 142.387 69.7973 142.567C69.7629 142.747 69.7823 142.933 69.8532 143.102C69.9241 143.271 70.0433 143.415 70.1957 143.516C70.3482 143.617 70.5272 143.672 70.7103 143.672C70.8347 143.674 70.9583 143.651 71.0735 143.604C71.1888 143.557 71.2932 143.487 71.3803 143.398C71.4674 143.31 71.5354 143.204 71.58 143.088C71.6247 142.972 71.6451 142.848 71.64 142.723Z" fill="white"/>
<path d="M77.2506 141.236L76.2774 144.211H75.5398L74.8828 142.196L74.2072 144.211H73.4696L72.4902 141.236H73.2031L73.8725 143.324L74.5729 141.236H75.1927L75.8745 143.343L76.5687 141.236H77.2506Z" fill="white"/>
<path d="M402.059 27.9546H311.811V78.4154H402.059V27.9546Z" fill="#FAFAFA"/>
<path d="M402.057 78.4153C402.057 78.4153 402.057 78.1054 402.057 77.5041C402.057 76.9029 402.057 76.0227 402.057 74.8698C402.057 72.5516 402.057 69.1487 402.026 64.7789C402.026 56.0454 401.989 43.4442 401.964 27.9545L402.088 28.0785L311.846 28.1157L312.007 27.9545C312.007 45.7996 312.007 62.8636 312.007 78.4153L311.858 78.2665L376.755 78.3347L395.406 78.3781H400.365H401.648H400.408H395.449L376.854 78.4215L311.809 78.595H311.66V78.4463C311.66 62.8946 311.66 45.8305 311.66 27.9855V27.7686H311.827L402.069 27.8057H402.193V27.9297C402.162 43.4256 402.144 56.0764 402.125 64.8285C402.125 69.1673 402.125 72.5826 402.094 74.8946C402.094 76.0351 402.094 76.9091 402.094 77.5103C402.094 78.1116 402.057 78.4153 402.057 78.4153Z" fill="#263238"/>
<path d="M335.594 39.9795H322.838V52.7357H335.594V39.9795Z" fill="#455A64"/>
<path d="M353.124 41.7767C353.124 41.8635 350.143 41.9379 346.473 41.9379C342.804 41.9379 339.822 41.8635 339.822 41.7767C344.253 41.5536 348.693 41.5536 353.124 41.7767Z" fill="#FF725E"/>
<path d="M395.607 46.3638C395.607 46.4568 383.118 46.5311 367.715 46.5311C352.312 46.5311 339.822 46.4568 339.822 46.3638C339.822 46.2708 352.306 46.2026 367.715 46.2026C383.124 46.2026 395.607 46.2708 395.607 46.3638Z" fill="#263238"/>
<path d="M376.833 51.5083C376.833 51.5951 368.626 51.6695 358.504 51.6695C348.382 51.6695 340.176 51.5951 340.176 51.5083C340.176 51.4215 348.382 51.3472 358.504 51.3472C368.626 51.3472 376.833 51.4154 376.833 51.5083Z" fill="#263238"/>
<path d="M388.694 71.7273H327.052C325.484 71.7273 323.98 71.1043 322.871 69.9954C321.762 68.8864 321.139 67.3824 321.139 65.8141C321.139 64.2458 321.762 62.7418 322.871 61.6328C323.98 60.5239 325.484 59.9009 327.052 59.9009H388.694C390.263 59.9009 391.767 60.5239 392.876 61.6328C393.985 62.7418 394.608 64.2458 394.608 65.8141C394.608 67.3824 393.985 68.8864 392.876 69.9954C391.767 71.1043 390.263 71.7273 388.694 71.7273Z" fill="#FF725E"/>
<path d="M346.541 66.6446H345.029L344.744 67.3389H343.969L345.419 64.0847H346.163L347.62 67.3389H346.82L346.541 66.6446ZM346.306 66.0682L345.791 64.8285L345.27 66.0682H346.306Z" fill="white"/>
<path d="M350.785 65.2686C350.785 65.9938 350.24 66.4401 349.372 66.4401H348.715V67.3389H347.959V64.0847H349.372C350.24 64.0847 350.785 64.5372 350.785 65.2686ZM350.023 65.2686C350.023 64.9091 349.787 64.6984 349.329 64.6984H348.709V65.8265H349.329C349.787 65.8265 350.023 65.6219 350.023 65.2686Z" fill="white"/>
<path d="M354.143 65.2686C354.143 65.9938 353.603 66.4401 352.729 66.4401H352.072V67.3389H351.322V64.0847H352.729C353.634 64.0847 354.143 64.5372 354.143 65.2686ZM353.38 65.2686C353.38 64.9091 353.151 64.6984 352.686 64.6984H352.066V65.8265H352.686C353.151 65.8265 353.38 65.6219 353.38 65.2686Z" fill="white"/>
<path d="M354.684 64.0847H355.44V66.7252H357.07V67.3451H354.684V64.0847Z" fill="white"/>
<path d="M358.724 66.1983V67.3512H357.974V66.1983L356.734 64.1033H357.534L358.402 65.5475L359.276 64.1033H360.013L358.724 66.1983Z" fill="white"/>
<path d="M364.611 64.0847V67.3389H363.991L362.367 65.3616V67.3389H361.623V64.0847H362.243L363.861 66.062V64.0847H364.611Z" fill="white"/>
<path d="M365.187 65.715C365.166 65.3579 365.252 65.0027 365.435 64.6955C365.619 64.3883 365.89 64.1431 366.214 63.9919C366.538 63.8407 366.9 63.7903 367.253 63.8473C367.606 63.9043 367.934 64.0661 368.194 64.3117C368.454 64.5572 368.635 64.8753 368.712 65.2245C368.789 65.5738 368.759 65.9382 368.627 66.2704C368.495 66.6027 368.265 66.8875 367.969 67.088C367.673 67.2885 367.323 67.3953 366.966 67.3947C366.737 67.4082 366.508 67.3748 366.292 67.2965C366.077 67.2181 365.88 67.0966 365.713 66.9392C365.547 66.7819 365.414 66.5921 365.323 66.3815C365.233 66.171 365.186 65.9441 365.187 65.715ZM367.988 65.715C367.985 65.5135 367.922 65.3176 367.807 65.1519C367.692 64.9862 367.531 64.858 367.344 64.7834C367.157 64.7089 366.952 64.6913 366.755 64.7328C366.558 64.7743 366.377 64.8732 366.236 65.0169C366.095 65.1607 365.999 65.3429 365.961 65.5408C365.923 65.7386 365.945 65.9433 366.023 66.1291C366.101 66.3149 366.232 66.4735 366.399 66.5851C366.567 66.6967 366.764 66.7562 366.966 66.7563C367.102 66.7598 367.239 66.7352 367.366 66.6838C367.492 66.6325 367.607 66.5556 367.703 66.4579C367.799 66.3603 367.874 66.2439 367.923 66.1161C367.972 65.9883 367.994 65.8517 367.988 65.715Z" fill="white"/>
<path d="M374.132 64.0847L373.066 67.3389H372.229L371.516 65.1322L370.772 67.3389H369.966L368.9 64.0847H369.681L370.413 66.3719L371.181 64.0847H371.882L372.626 66.3905L373.382 64.0847H374.132Z" fill="white"/>
</svg>
