<svg width="625" height="256" viewBox="0 0 625 256" fill="none" xmlns="http://www.w3.org/2000/svg">
<path d="M40.08 126.689C38.0527 126.689 35.6312 126.464 32.8155 126.014C30.1125 125.676 27.4094 124.831 24.7064 123.48C22.1159 122.015 19.9197 119.763 18.1176 116.722C16.3156 113.681 15.4146 109.57 15.4146 104.389V52.0174H3.41977C1.27984 52.0174 0.209883 50.9474 0.209883 48.8075C0.209883 47.6812 0.716706 46.7239 1.73035 45.9355L24.7064 23.4664C24.9316 23.2411 25.2695 22.9595 25.72 22.6216C26.2831 22.1711 26.9026 21.9459 27.5784 21.9459C28.4794 21.9459 29.2115 22.2838 29.7746 22.9595C30.4504 23.6353 30.7882 24.4237 30.7882 25.3247V38.84H49.8786C51.7933 38.84 53.37 39.4594 54.6089 40.6984C55.8478 41.9372 56.4673 43.514 56.4673 45.4287C56.4673 47.2307 55.8478 48.8075 54.6089 50.1591C53.37 51.398 51.7933 52.0174 49.8786 52.0174H30.7882V103.038C30.7882 106.304 31.4077 108.669 32.6466 110.133C33.8855 111.597 35.3497 112.498 37.0391 112.836C38.8411 113.061 40.4179 113.174 41.7694 113.174C44.4725 113.174 46.4435 112.949 47.6824 112.498C49.0339 111.935 50.4417 111.654 51.9059 111.654C53.4827 111.654 54.8905 112.217 56.1294 113.343C57.3683 114.469 57.9878 115.933 57.9878 117.736C57.9878 120.326 56.6926 122.297 54.1021 123.648C52.0748 124.549 49.8786 125.282 47.5134 125.845C45.2609 126.408 42.7831 126.689 40.08 126.689ZM96.8165 126.689C91.9735 126.689 87.4121 125.676 83.1323 123.648C78.9651 121.621 75.5862 118.749 72.9958 115.032C70.518 111.203 69.2791 106.642 69.2791 101.348C69.2791 93.3517 72.4327 86.8193 78.7398 81.7511C85.1596 76.5702 94.9582 73.9798 108.136 73.9798H128.577V72.6282C128.577 65.0822 126.719 59.7324 123.002 56.5788C119.286 53.3126 113.598 51.6795 105.939 51.6795C101.209 51.6795 97.0418 52.13 93.4377 53.0311C89.9462 53.8194 86.6237 54.7205 83.4702 55.7341C82.5691 55.9594 81.8371 56.072 81.2739 56.072C79.5845 56.072 78.1204 55.4525 76.8815 54.2136C75.6426 52.9747 75.0231 51.4543 75.0231 49.6522C75.0231 46.6113 76.4873 44.4714 79.4156 43.2325C83.3575 41.5431 87.6937 40.1352 92.4241 39.0089C97.267 37.77 102.673 37.1506 108.642 37.1506C116.864 37.1506 123.566 38.7837 128.746 42.0499C133.927 45.3161 137.757 49.4833 140.234 54.5515C142.712 59.6198 143.951 64.9133 143.951 70.432V118.242C143.951 120.382 143.163 122.184 141.586 123.648C140.122 125.113 138.32 125.845 136.18 125.845C134.04 125.845 132.238 125.113 130.774 123.648C129.31 122.184 128.577 120.382 128.577 118.242V113.85C125.537 117.003 121.482 119.932 116.414 122.635C111.345 125.338 104.813 126.689 96.8165 126.689ZM102.561 113.174C107.854 113.174 112.81 111.879 117.427 109.288C122.045 106.698 125.762 103.77 128.577 100.504V86.3125H110.163C102.279 86.3125 96.0281 87.3261 91.4104 89.3534C86.9053 91.3807 84.6528 94.8158 84.6528 99.6588C84.6528 103.263 85.8917 106.416 88.3695 109.12C90.9599 111.823 95.6902 113.174 102.561 113.174ZM177.321 125.845C175.181 125.845 173.379 125.113 171.915 123.648C170.451 122.184 169.719 120.382 169.719 118.242V8.59953C169.719 6.34697 170.451 4.48862 171.915 3.02446C173.379 1.56031 175.181 0.828232 177.321 0.828232C179.574 0.828232 181.432 1.56031 182.896 3.02446C184.36 4.48862 185.092 6.34697 185.092 8.59953V118.242C185.092 120.382 184.36 122.184 182.896 123.648C181.432 125.113 179.574 125.845 177.321 125.845ZM250.308 126.689C236.567 126.689 225.811 122.804 218.04 115.032C210.381 107.149 206.552 96.1111 206.552 81.92C206.552 74.2613 207.96 67.0532 210.775 60.2955C213.591 53.4252 217.983 47.8502 223.953 43.5703C229.922 39.2905 237.581 37.1506 246.929 37.1506C255.601 37.1506 262.922 39.1779 268.891 43.2325C274.86 47.1744 279.365 52.3553 282.406 58.7751C285.56 65.1948 287.137 72.1777 287.137 79.7238C287.137 81.8637 286.405 83.6657 284.94 85.1299C283.589 86.594 281.731 87.3261 279.365 87.3261H222.094C222.995 94.8722 225.867 100.954 230.71 105.572C235.553 110.077 242.536 112.329 251.659 112.329C256.727 112.329 261.007 111.879 264.499 110.978C267.99 109.964 271.313 108.669 274.466 107.092C275.367 106.642 276.381 106.416 277.507 106.416C279.309 106.416 280.886 107.036 282.237 108.275C283.589 109.514 284.265 111.091 284.265 113.005C284.265 114.357 283.814 115.596 282.913 116.722C282.125 117.736 281.111 118.58 279.872 119.256C276.156 121.396 272.101 123.198 267.708 124.662C263.429 126.014 257.628 126.689 250.308 126.689ZM222.094 74.8245H271.932C271.594 68.9678 270.074 64.2375 267.371 60.6334C264.78 57.0293 261.627 54.3826 257.91 52.6932C254.193 51.0038 250.533 50.1591 246.929 50.1591C243.325 50.1591 239.664 51.0038 235.948 52.6932C232.231 54.3826 229.077 57.0293 226.487 60.6334C223.896 64.2375 222.432 68.9678 222.094 74.8245ZM315.081 125.845C312.941 125.845 311.139 125.113 309.674 123.648C308.21 122.184 307.478 120.382 307.478 118.242V45.7666C307.478 43.514 308.21 41.6557 309.674 40.1915C311.139 38.7274 312.941 37.9953 315.081 37.9953C317.221 37.9953 319.023 38.7274 320.487 40.1915C322.064 41.6557 322.852 43.514 322.852 45.7666V52.6932C326.456 48.7512 330.68 45.2034 335.522 42.0499C340.478 38.7837 346.729 37.1506 354.275 37.1506C360.695 37.1506 366.157 38.6711 370.662 41.712C375.167 44.6403 378.602 48.6386 380.968 53.7068C383.333 58.6624 384.515 64.1812 384.515 70.2631V118.242C384.515 120.382 383.727 122.184 382.15 123.648C380.686 125.113 378.884 125.845 376.744 125.845C374.604 125.845 372.802 125.113 371.338 123.648C369.874 122.184 369.142 120.382 369.142 118.242V71.9525C369.142 65.5327 367.678 60.5208 364.749 56.9167C361.934 53.2 357.203 51.3416 350.558 51.3416C344.476 51.3416 339.183 52.9747 334.678 56.2409C330.173 59.5071 326.231 63.2802 322.852 67.56V118.242C322.852 120.382 322.064 122.184 320.487 123.648C319.023 125.113 317.221 125.845 315.081 125.845ZM438.181 126.689C436.153 126.689 433.732 126.464 430.916 126.014C428.213 125.676 425.51 124.831 422.807 123.48C420.217 122.015 418.02 119.763 416.218 116.722C414.416 113.681 413.515 109.57 413.515 104.389V52.0174H401.52C399.38 52.0174 398.311 50.9474 398.311 48.8075C398.311 47.6812 398.817 46.7239 399.831 45.9355L422.807 23.4664C423.032 23.2411 423.37 22.9595 423.821 22.6216C424.384 22.1711 425.003 21.9459 425.679 21.9459C426.58 21.9459 427.312 22.2838 427.875 22.9595C428.551 23.6353 428.889 24.4237 428.889 25.3247V38.84H447.979C449.894 38.84 451.471 39.4594 452.71 40.6984C453.948 41.9372 454.568 43.514 454.568 45.4287C454.568 47.2307 453.948 48.8075 452.71 50.1591C451.471 51.398 449.894 52.0174 447.979 52.0174H428.889V103.038C428.889 106.304 429.508 108.669 430.747 110.133C431.986 111.597 433.45 112.498 435.14 112.836C436.942 113.061 438.519 113.174 439.87 113.174C442.573 113.174 444.544 112.949 445.783 112.498C447.135 111.935 448.542 111.654 450.007 111.654C451.583 111.654 452.991 112.217 454.23 113.343C455.469 114.469 456.088 115.933 456.088 117.736C456.088 120.326 454.793 122.297 452.203 123.648C450.175 124.549 447.979 125.282 445.614 125.845C443.362 126.408 440.884 126.689 438.181 126.689ZM500.83 126.689C494.636 126.689 489.004 126.014 483.936 124.662C478.98 123.311 474.363 121.452 470.083 119.087C468.168 117.736 467.211 115.877 467.211 113.512C467.211 111.823 467.83 110.302 469.069 108.951C470.308 107.486 471.885 106.754 473.8 106.754C474.813 106.754 475.827 106.98 476.84 107.43C479.881 108.782 483.204 109.964 486.808 110.978C490.525 111.992 494.861 112.498 499.816 112.498C506.349 112.498 511.079 111.485 514.008 109.457C517.048 107.317 518.569 104.333 518.569 100.504C518.569 98.0257 517.33 96.1111 514.852 94.7595C512.487 93.408 509.333 92.2817 505.392 91.3807C501.562 90.3671 497.508 89.3534 493.228 88.3398C488.948 87.2135 484.837 85.7493 480.895 83.9473C477.066 82.0326 473.912 79.4985 471.434 76.3449C469.069 73.0787 467.887 68.9115 467.887 63.8433C467.887 56.1846 470.646 49.8212 476.165 44.7529C481.683 39.6847 489.905 37.1506 500.83 37.1506C505.448 37.1506 509.784 37.5448 513.839 38.3332C518.006 39.1216 521.835 40.1352 525.327 41.3741C526.903 41.8246 528.086 42.7256 528.874 44.0772C529.775 45.3161 530.226 46.555 530.226 47.7939C530.226 49.5959 529.55 51.1727 528.199 52.5242C526.96 53.8758 525.383 54.5515 523.468 54.5515C523.018 54.5515 522.624 54.5515 522.286 54.5515C521.948 54.4389 521.61 54.3263 521.272 54.2136C518.569 53.3126 515.584 52.5805 512.318 52.0174C509.165 51.4543 505.729 51.1727 502.013 51.1727C495.818 51.1727 491.032 52.299 487.653 54.5515C484.274 56.8041 482.584 59.6198 482.584 62.9986C482.584 65.9269 483.767 68.1794 486.132 69.7562C488.61 71.333 491.764 72.6282 495.593 73.6419C499.535 74.5429 503.646 75.5002 507.926 76.5139C512.318 77.5275 516.429 78.9917 520.258 80.9064C524.2 82.7084 527.354 85.2425 529.719 88.5087C532.197 91.7749 533.436 96.1674 533.436 101.686C533.436 108.556 530.676 114.469 525.158 119.425C519.752 124.268 511.642 126.689 500.83 126.689Z" fill="white"/>
<path d="M163.309 255.689C158.466 255.689 153.904 254.676 149.624 252.648C145.457 250.621 142.078 247.749 139.488 244.032C137.01 240.203 135.771 235.642 135.771 230.348C135.771 222.352 138.925 215.819 145.232 210.751C151.652 205.57 161.45 202.98 174.628 202.98H195.07V201.628C195.07 194.082 193.211 188.732 189.495 185.579C185.778 182.313 180.09 180.68 172.432 180.68C167.701 180.68 163.534 181.13 159.93 182.031C156.438 182.819 153.116 183.72 149.962 184.734C149.061 184.959 148.329 185.072 147.766 185.072C146.077 185.072 144.613 184.453 143.374 183.214C142.135 181.975 141.515 180.454 141.515 178.652C141.515 175.611 142.979 173.471 145.908 172.232C149.85 170.543 154.186 169.135 158.916 168.009C163.759 166.77 169.165 166.151 175.135 166.151C183.356 166.151 190.058 167.784 195.239 171.05C200.419 174.316 204.249 178.483 206.727 183.552C209.204 188.62 210.443 193.913 210.443 199.432V247.242C210.443 249.382 209.655 251.184 208.078 252.648C206.614 254.113 204.812 254.845 202.672 254.845C200.532 254.845 198.73 254.113 197.266 252.648C195.802 251.184 195.07 249.382 195.07 247.242V242.85C192.029 246.003 187.974 248.932 182.906 251.635C177.838 254.338 171.305 255.689 163.309 255.689ZM169.053 242.174C174.346 242.174 179.302 240.879 183.92 238.288C188.537 235.698 192.254 232.77 195.07 229.504V215.312H176.655C168.771 215.312 162.52 216.326 157.903 218.353C153.397 220.381 151.145 223.816 151.145 228.659C151.145 232.263 152.384 235.416 154.862 238.12C157.452 240.823 162.182 242.174 169.053 242.174ZM263.965 255.689C261.937 255.689 259.516 255.464 256.7 255.014C253.997 254.676 251.294 253.831 248.591 252.48C246.001 251.015 243.804 248.763 242.002 245.722C240.2 242.681 239.299 238.57 239.299 233.389V181.017H227.304C225.164 181.017 224.095 179.947 224.095 177.808C224.095 176.681 224.601 175.724 225.615 174.936L248.591 152.466C248.816 152.241 249.154 151.96 249.605 151.622C250.168 151.171 250.787 150.946 251.463 150.946C252.364 150.946 253.096 151.284 253.659 151.96C254.335 152.635 254.673 153.424 254.673 154.325V167.84H273.763C275.678 167.84 277.255 168.459 278.494 169.698C279.732 170.937 280.352 172.514 280.352 174.429C280.352 176.231 279.732 177.808 278.494 179.159C277.255 180.398 275.678 181.017 273.763 181.017H254.673V232.038C254.673 235.304 255.292 237.669 256.531 239.133C257.77 240.597 259.234 241.498 260.924 241.836C262.726 242.061 264.303 242.174 265.654 242.174C268.357 242.174 270.328 241.949 271.567 241.498C272.919 240.935 274.326 240.654 275.791 240.654C277.367 240.654 278.775 241.217 280.014 242.343C281.253 243.469 281.872 244.933 281.872 246.736C281.872 249.326 280.577 251.297 277.987 252.648C275.959 253.549 273.763 254.282 271.398 254.845C269.146 255.408 266.668 255.689 263.965 255.689ZM306.341 254.845C304.201 254.845 302.399 254.113 300.935 252.648C299.471 251.184 298.739 249.382 298.739 247.242V174.767C298.739 172.627 299.471 170.825 300.935 169.36C302.399 167.784 304.201 166.995 306.341 166.995C308.481 166.995 310.283 167.784 311.747 169.36C313.324 170.825 314.112 172.627 314.112 174.767V181.693C315.689 179.441 317.66 177.132 320.025 174.767C322.503 172.401 325.6 170.374 329.317 168.685C333.034 166.995 337.539 166.151 342.832 166.151C349.59 166.151 355.109 167.953 359.389 171.557C363.781 175.161 366.878 179.159 368.68 183.552C370.032 181.412 371.947 178.99 374.424 176.287C376.902 173.584 380.168 171.219 384.223 169.192C388.39 167.164 393.571 166.151 399.766 166.151C406.411 166.151 411.817 167.84 415.984 171.219C420.151 174.485 423.192 178.596 425.107 183.552C427.021 188.507 427.979 193.519 427.979 198.587V247.242C427.979 249.382 427.19 251.184 425.614 252.648C424.149 254.113 422.347 254.845 420.208 254.845C418.068 254.845 416.266 254.113 414.801 252.648C413.337 251.184 412.605 249.382 412.605 247.242V201.628C412.605 194.533 411.31 189.239 408.72 185.748C406.242 182.144 401.793 180.342 395.373 180.342C391.093 180.342 387.433 181.186 384.392 182.876C381.351 184.453 378.761 186.48 376.621 188.958C374.481 191.435 372.622 193.97 371.046 196.56V247.242C371.046 249.382 370.257 251.184 368.68 252.648C367.216 254.113 365.414 254.845 363.274 254.845C361.134 254.845 359.332 254.113 357.868 252.648C356.404 251.184 355.672 249.382 355.672 247.242V201.628C355.672 194.533 354.377 189.239 351.786 185.748C349.309 182.144 344.86 180.342 338.44 180.342C334.16 180.342 330.5 181.186 327.459 182.876C324.418 184.453 321.827 186.48 319.688 188.958C317.548 191.435 315.689 193.97 314.112 196.56V247.242C314.112 249.382 313.324 251.184 311.747 252.648C310.283 254.113 308.481 254.845 306.341 254.845Z" fill="white"/>
<path d="M592.222 255.689C586.027 255.689 580.396 255.014 575.328 253.662C570.372 252.311 565.754 250.452 561.474 248.087C559.56 246.736 558.602 244.877 558.602 242.512C558.602 240.823 559.222 239.302 560.461 237.951C561.7 236.486 563.276 235.754 565.191 235.754C566.205 235.754 567.218 235.98 568.232 236.43C571.273 237.782 574.595 238.964 578.2 239.978C581.916 240.992 586.252 241.498 591.208 241.498C597.74 241.498 602.471 240.485 605.399 238.457C608.44 236.317 609.96 233.333 609.96 229.504C609.96 227.026 608.722 225.111 606.244 223.76C603.879 222.408 600.725 221.282 596.783 220.381C592.954 219.367 588.899 218.353 584.619 217.34C580.339 216.213 576.229 214.749 572.287 212.947C568.457 211.033 565.304 208.499 562.826 205.345C560.461 202.079 559.278 197.912 559.278 192.843C559.278 185.185 562.037 178.821 567.556 173.753C573.075 168.685 581.297 166.151 592.222 166.151C596.839 166.151 601.176 166.545 605.23 167.333C609.397 168.122 613.227 169.135 616.718 170.374C618.295 170.825 619.477 171.726 620.266 173.077C621.167 174.316 621.617 175.555 621.617 176.794C621.617 178.596 620.942 180.173 619.59 181.524C618.351 182.876 616.774 183.552 614.86 183.552C614.409 183.552 614.015 183.552 613.677 183.552C613.339 183.439 613.001 183.326 612.664 183.214C609.96 182.313 606.976 181.581 603.71 181.017C600.556 180.454 597.121 180.173 593.404 180.173C587.21 180.173 582.423 181.299 579.044 183.552C575.665 185.804 573.976 188.62 573.976 191.999C573.976 194.927 575.159 197.179 577.524 198.756C580.002 200.333 583.155 201.628 586.984 202.642C590.926 203.543 595.037 204.5 599.317 205.514C603.71 206.528 607.821 207.992 611.65 209.906C615.592 211.708 618.745 214.243 621.111 217.509C623.588 220.775 624.827 225.167 624.827 230.686C624.827 237.556 622.068 243.469 616.549 248.425C611.143 253.268 603.034 255.689 592.222 255.689Z" fill="white"/>
<circle cx="493" cy="209" r="37.5" stroke="#FF8A00" stroke-width="15"/>
</svg>
