<svg width="642" height="72" viewBox="0 0 642 72" fill="none" xmlns="http://www.w3.org/2000/svg">
<path d="M28.2934 71.48C27.0774 71.48 26.0534 71.064 25.2214 70.232C24.3894 69.4 23.9734 68.376 23.9734 67.16V12.152H4.38938C3.23738 12.152 2.27738 11.768 1.50938 11C0.741375 10.232 0.357375 9.272 0.357375 8.12C0.357375 6.968 0.741375 6.008 1.50938 5.23999C2.27738 4.408 3.23738 3.992 4.38938 3.992H52.1974C53.3494 3.992 54.3094 4.408 55.0774 5.23999C55.9094 6.008 56.3254 6.968 56.3254 8.12C56.3254 9.272 55.9094 10.232 55.0774 11C54.3094 11.768 53.3494 12.152 52.1974 12.152H32.7094V67.16C32.7094 68.376 32.2614 69.4 31.3654 70.232C30.5334 71.064 29.5094 71.48 28.2934 71.48ZM69.9859 71.96C67.2339 71.96 64.6419 71.384 62.2099 70.232C59.8419 69.08 57.9219 67.448 56.4499 65.336C55.0419 63.16 54.3379 60.568 54.3379 57.56C54.3379 53.016 56.1299 49.304 59.7139 46.424C63.3619 43.48 68.9299 42.008 76.4179 42.008H88.0339V41.24C88.0339 36.952 86.9779 33.912 84.8659 32.12C82.7539 30.264 79.5219 29.336 75.1699 29.336C72.4819 29.336 70.1139 29.592 68.0659 30.104C66.0819 30.552 64.1939 31.064 62.4019 31.64C61.8899 31.768 61.4739 31.832 61.1539 31.832C60.1939 31.832 59.3619 31.48 58.6579 30.776C57.9539 30.072 57.6019 29.208 57.6019 28.184C57.6019 26.456 58.4339 25.24 60.0979 24.536C62.3379 23.576 64.8019 22.776 67.4899 22.136C70.2419 21.432 73.3139 21.08 76.7059 21.08C81.3779 21.08 85.1859 22.008 88.1299 23.864C91.0739 25.72 93.2499 28.088 94.6579 30.968C96.0659 33.848 96.7699 36.856 96.7699 39.992V67.16C96.7699 68.376 96.3219 69.4 95.4259 70.232C94.5939 71.064 93.5699 71.48 92.3539 71.48C91.1379 71.48 90.1139 71.064 89.2819 70.232C88.4499 69.4 88.0339 68.376 88.0339 67.16V64.664C86.3059 66.456 84.0019 68.12 81.1219 69.656C78.2419 71.192 74.5299 71.96 69.9859 71.96ZM73.2499 64.28C76.2579 64.28 79.0739 63.544 81.6979 62.072C84.3219 60.6 86.4339 58.936 88.0339 57.08V49.016H77.5699C73.0899 49.016 69.5379 49.592 66.9139 50.744C64.3539 51.896 63.0739 53.848 63.0739 56.6C63.0739 58.648 63.7779 60.44 65.1859 61.976C66.6579 63.512 69.3459 64.28 73.2499 64.28ZM115.732 71.48C114.516 71.48 113.492 71.064 112.66 70.232C111.828 69.4 111.412 68.376 111.412 67.16V4.856C111.412 3.576 111.828 2.51999 112.66 1.68799C113.492 0.855997 114.516 0.439999 115.732 0.439999C117.012 0.439999 118.068 0.855997 118.9 1.68799C119.732 2.51999 120.148 3.576 120.148 4.856V67.16C120.148 68.376 119.732 69.4 118.9 70.232C118.068 71.064 117.012 71.48 115.732 71.48ZM157.206 71.96C149.398 71.96 143.286 69.752 138.87 65.336C134.518 60.856 132.342 54.584 132.342 46.52C132.342 42.168 133.142 38.072 134.742 34.232C136.342 30.328 138.838 27.16 142.23 24.728C145.622 22.296 149.974 21.08 155.286 21.08C160.214 21.08 164.374 22.232 167.766 24.536C171.158 26.776 173.718 29.72 175.446 33.368C177.238 37.016 178.134 40.984 178.134 45.272C178.134 46.488 177.718 47.512 176.886 48.344C176.118 49.176 175.062 49.592 173.718 49.592H141.174C141.686 53.88 143.318 57.336 146.07 59.96C148.822 62.52 152.79 63.8 157.974 63.8C160.854 63.8 163.286 63.544 165.27 63.032C167.254 62.456 169.142 61.72 170.934 60.824C171.446 60.568 172.022 60.44 172.662 60.44C173.686 60.44 174.582 60.792 175.35 61.496C176.118 62.2 176.502 63.096 176.502 64.184C176.502 64.952 176.246 65.656 175.734 66.296C175.286 66.872 174.71 67.352 174.006 67.736C171.894 68.952 169.59 69.976 167.094 70.808C164.662 71.576 161.366 71.96 157.206 71.96ZM141.174 42.488H169.494C169.302 39.16 168.438 36.472 166.902 34.424C165.43 32.376 163.638 30.872 161.526 29.912C159.414 28.952 157.334 28.472 155.286 28.472C153.238 28.472 151.158 28.952 149.046 29.912C146.934 30.872 145.142 32.376 143.67 34.424C142.198 36.472 141.366 39.16 141.174 42.488ZM194.013 71.48C192.797 71.48 191.773 71.064 190.941 70.232C190.109 69.4 189.693 68.376 189.693 67.16V25.976C189.693 24.696 190.109 23.64 190.941 22.808C191.773 21.976 192.797 21.56 194.013 21.56C195.229 21.56 196.253 21.976 197.085 22.808C197.981 23.64 198.429 24.696 198.429 25.976V29.912C200.477 27.672 202.877 25.656 205.629 23.864C208.445 22.008 211.997 21.08 216.285 21.08C219.933 21.08 223.037 21.944 225.597 23.672C228.157 25.336 230.109 27.608 231.453 30.488C232.797 33.304 233.469 36.44 233.469 39.896V67.16C233.469 68.376 233.021 69.4 232.125 70.232C231.293 71.064 230.269 71.48 229.053 71.48C227.837 71.48 226.813 71.064 225.981 70.232C225.149 69.4 224.733 68.376 224.733 67.16V40.856C224.733 37.208 223.901 34.36 222.237 32.312C220.637 30.2 217.949 29.144 214.173 29.144C210.717 29.144 207.709 30.072 205.149 31.928C202.589 33.784 200.349 35.928 198.429 38.36V67.16C198.429 68.376 197.981 69.4 197.085 70.232C196.253 71.064 195.229 71.48 194.013 71.48ZM263.964 71.96C262.812 71.96 261.436 71.832 259.836 71.576C258.3 71.384 256.764 70.904 255.228 70.136C253.756 69.304 252.508 68.024 251.484 66.296C250.46 64.568 249.948 62.232 249.948 59.288V29.528H243.132C241.916 29.528 241.308 28.92 241.308 27.704C241.308 27.064 241.596 26.52 242.172 26.072L255.228 13.304C255.356 13.176 255.548 13.016 255.804 12.824C256.124 12.568 256.476 12.44 256.86 12.44C257.372 12.44 257.788 12.632 258.108 13.016C258.492 13.4 258.684 13.848 258.684 14.36V22.04H269.532C270.62 22.04 271.516 22.392 272.22 23.096C272.924 23.8 273.276 24.696 273.276 25.784C273.276 26.808 272.924 27.704 272.22 28.472C271.516 29.176 270.62 29.528 269.532 29.528H258.684V58.52C258.684 60.376 259.036 61.72 259.74 62.552C260.444 63.384 261.276 63.896 262.236 64.088C263.26 64.216 264.156 64.28 264.924 64.28C266.46 64.28 267.58 64.152 268.284 63.896C269.052 63.576 269.852 63.416 270.684 63.416C271.58 63.416 272.38 63.736 273.084 64.376C273.788 65.016 274.14 65.848 274.14 66.872C274.14 68.344 273.404 69.464 271.932 70.232C270.78 70.744 269.532 71.16 268.188 71.48C266.908 71.8 265.5 71.96 263.964 71.96ZM299.565 71.96C296.045 71.96 292.845 71.576 289.965 70.808C287.149 70.04 284.525 68.984 282.093 67.64C281.005 66.872 280.461 65.816 280.461 64.472C280.461 63.512 280.813 62.648 281.517 61.88C282.221 61.048 283.117 60.632 284.205 60.632C284.781 60.632 285.357 60.76 285.933 61.016C287.661 61.784 289.549 62.456 291.597 63.032C293.709 63.608 296.173 63.896 298.989 63.896C302.701 63.896 305.389 63.32 307.053 62.168C308.781 60.952 309.645 59.256 309.645 57.08C309.645 55.672 308.941 54.584 307.533 53.816C306.189 53.048 304.397 52.408 302.157 51.896C299.981 51.32 297.677 50.744 295.245 50.168C292.813 49.528 290.477 48.696 288.237 47.672C286.061 46.584 284.269 45.144 282.861 43.352C281.517 41.496 280.845 39.128 280.845 36.248C280.845 31.896 282.413 28.28 285.549 25.4C288.685 22.52 293.357 21.08 299.565 21.08C302.189 21.08 304.653 21.304 306.957 21.752C309.325 22.2 311.501 22.776 313.485 23.48C314.381 23.736 315.053 24.248 315.501 25.016C316.013 25.72 316.269 26.424 316.269 27.128C316.269 28.152 315.885 29.048 315.117 29.816C314.413 30.584 313.517 30.968 312.429 30.968C312.173 30.968 311.949 30.968 311.757 30.968C311.565 30.904 311.373 30.84 311.181 30.776C309.645 30.264 307.949 29.848 306.093 29.528C304.301 29.208 302.349 29.048 300.237 29.048C296.717 29.048 293.997 29.688 292.077 30.968C290.157 32.248 289.197 33.848 289.197 35.768C289.197 37.432 289.869 38.712 291.213 39.608C292.621 40.504 294.413 41.24 296.589 41.816C298.829 42.328 301.165 42.872 303.597 43.448C306.093 44.024 308.429 44.856 310.605 45.944C312.845 46.968 314.637 48.408 315.981 50.264C317.389 52.12 318.093 54.616 318.093 57.752C318.093 61.656 316.525 65.016 313.389 67.832C310.317 70.584 305.709 71.96 299.565 71.96ZM356.323 71.48C354.979 71.48 353.923 71.064 353.155 70.232C352.387 69.4 352.003 68.376 352.003 67.16C352.003 66.648 352.163 66.008 352.483 65.24L376.963 7.44799C377.411 6.424 378.083 5.528 378.979 4.75999C379.939 3.928 381.123 3.512 382.531 3.512H383.491C384.963 3.512 386.147 3.928 387.043 4.75999C387.939 5.528 388.611 6.424 389.059 7.44799L413.539 65.24C413.859 66.008 414.019 66.648 414.019 67.16C414.019 68.376 413.635 69.4 412.867 70.232C412.099 71.064 411.043 71.48 409.699 71.48C407.715 71.48 406.339 70.584 405.571 68.792L399.331 53.816H366.691L360.451 68.792C359.683 70.584 358.307 71.48 356.323 71.48ZM370.051 45.848H395.971L383.011 14.648L370.051 45.848ZM441.058 71.96C439.906 71.96 438.53 71.832 436.93 71.576C435.394 71.384 433.858 70.904 432.322 70.136C430.85 69.304 429.602 68.024 428.578 66.296C427.554 64.568 427.042 62.232 427.042 59.288V29.528H420.226C419.01 29.528 418.402 28.92 418.402 27.704C418.402 27.064 418.69 26.52 419.266 26.072L432.322 13.304C432.45 13.176 432.642 13.016 432.898 12.824C433.218 12.568 433.57 12.44 433.954 12.44C434.466 12.44 434.882 12.632 435.202 13.016C435.586 13.4 435.778 13.848 435.778 14.36V22.04H446.626C447.714 22.04 448.61 22.392 449.314 23.096C450.018 23.8 450.37 24.696 450.37 25.784C450.37 26.808 450.018 27.704 449.314 28.472C448.61 29.176 447.714 29.528 446.626 29.528H435.778V58.52C435.778 60.376 436.13 61.72 436.834 62.552C437.538 63.384 438.37 63.896 439.33 64.088C440.354 64.216 441.25 64.28 442.018 64.28C443.554 64.28 444.674 64.152 445.378 63.896C446.146 63.576 446.946 63.416 447.778 63.416C448.674 63.416 449.474 63.736 450.178 64.376C450.882 65.016 451.234 65.848 451.234 66.872C451.234 68.344 450.498 69.464 449.026 70.232C447.874 70.744 446.626 71.16 445.282 71.48C444.002 71.8 442.594 71.96 441.058 71.96ZM465.138 71.48C463.922 71.48 462.898 71.064 462.066 70.232C461.234 69.4 460.818 68.376 460.818 67.16V25.976C460.818 24.76 461.234 23.736 462.066 22.904C462.898 22.008 463.922 21.56 465.138 21.56C466.354 21.56 467.378 22.008 468.21 22.904C469.106 23.736 469.554 24.76 469.554 25.976V29.912C470.45 28.632 471.57 27.32 472.914 25.976C474.322 24.632 476.082 23.48 478.194 22.52C480.306 21.56 482.866 21.08 485.874 21.08C489.714 21.08 492.85 22.104 495.282 24.152C497.778 26.2 499.538 28.472 500.562 30.968C501.33 29.752 502.418 28.376 503.826 26.84C505.234 25.304 507.09 23.96 509.394 22.808C511.762 21.656 514.706 21.08 518.226 21.08C522.002 21.08 525.074 22.04 527.442 23.96C529.81 25.816 531.538 28.152 532.626 30.968C533.714 33.784 534.258 36.632 534.258 39.512V67.16C534.258 68.376 533.81 69.4 532.914 70.232C532.082 71.064 531.058 71.48 529.842 71.48C528.626 71.48 527.602 71.064 526.77 70.232C525.938 69.4 525.522 68.376 525.522 67.16V41.24C525.522 37.208 524.786 34.2 523.314 32.216C521.906 30.168 519.378 29.144 515.73 29.144C513.298 29.144 511.218 29.624 509.49 30.584C507.762 31.48 506.29 32.632 505.074 34.04C503.858 35.448 502.802 36.888 501.906 38.36V67.16C501.906 68.376 501.458 69.4 500.562 70.232C499.73 71.064 498.706 71.48 497.49 71.48C496.274 71.48 495.25 71.064 494.418 70.232C493.586 69.4 493.17 68.376 493.17 67.16V41.24C493.17 37.208 492.434 34.2 490.962 32.216C489.554 30.168 487.026 29.144 483.378 29.144C480.946 29.144 478.866 29.624 477.138 30.584C475.41 31.48 473.938 32.632 472.722 34.04C471.506 35.448 470.45 36.888 469.554 38.36V67.16C469.554 68.376 469.106 69.4 468.21 70.232C467.378 71.064 466.354 71.48 465.138 71.48ZM623.19 71.96C619.67 71.96 616.47 71.576 613.59 70.808C610.774 70.04 608.15 68.984 605.718 67.64C604.63 66.872 604.086 65.816 604.086 64.472C604.086 63.512 604.438 62.648 605.142 61.88C605.846 61.048 606.742 60.632 607.83 60.632C608.406 60.632 608.982 60.76 609.558 61.016C611.286 61.784 613.174 62.456 615.222 63.032C617.334 63.608 619.798 63.896 622.614 63.896C626.326 63.896 629.014 63.32 630.678 62.168C632.406 60.952 633.27 59.256 633.27 57.08C633.27 55.672 632.566 54.584 631.158 53.816C629.814 53.048 628.022 52.408 625.782 51.896C623.606 51.32 621.302 50.744 618.87 50.168C616.438 49.528 614.102 48.696 611.862 47.672C609.686 46.584 607.894 45.144 606.486 43.352C605.142 41.496 604.47 39.128 604.47 36.248C604.47 31.896 606.038 28.28 609.174 25.4C612.31 22.52 616.982 21.08 623.19 21.08C625.814 21.08 628.278 21.304 630.582 21.752C632.95 22.2 635.126 22.776 637.11 23.48C638.006 23.736 638.678 24.248 639.126 25.016C639.638 25.72 639.894 26.424 639.894 27.128C639.894 28.152 639.51 29.048 638.742 29.816C638.038 30.584 637.142 30.968 636.054 30.968C635.798 30.968 635.574 30.968 635.382 30.968C635.19 30.904 634.998 30.84 634.806 30.776C633.27 30.264 631.574 29.848 629.718 29.528C627.926 29.208 625.974 29.048 623.862 29.048C620.342 29.048 617.622 29.688 615.702 30.968C613.782 32.248 612.822 33.848 612.822 35.768C612.822 37.432 613.494 38.712 614.838 39.608C616.246 40.504 618.038 41.24 620.214 41.816C622.454 42.328 624.79 42.872 627.222 43.448C629.718 44.024 632.054 44.856 634.23 45.944C636.47 46.968 638.262 48.408 639.606 50.264C641.014 52.12 641.718 54.616 641.718 57.752C641.718 61.656 640.15 65.016 637.014 67.832C633.942 70.584 629.334 71.96 623.19 71.96Z" fill="black"/>
<path d="M570.543 71.96C565.615 71.96 561.295 70.904 557.583 68.792C553.871 66.616 550.991 63.64 548.943 59.864C546.959 56.024 545.967 51.576 545.967 46.52C545.967 41.464 546.959 37.048 548.943 33.272C550.991 29.432 553.871 26.456 557.583 24.344C561.295 22.168 565.615 21.08 570.543 21.08C575.471 21.08 579.759 22.168 583.407 24.344C587.119 26.456 589.999 29.432 592.047 33.272C594.095 37.048 595.119 41.464 595.119 46.52C595.119 51.576 594.095 56.024 592.047 59.864C589.999 63.64 587.119 66.616 583.407 68.792C579.759 70.904 575.471 71.96 570.543 71.96ZM570.543 63.992C572.975 63.992 575.407 63.416 577.839 62.264C580.271 61.112 582.287 59.256 583.887 56.696C585.551 54.072 586.383 50.648 586.383 46.424C586.383 42.2 585.551 38.808 583.887 36.248C582.287 33.688 580.271 31.864 577.839 30.776C575.407 29.624 572.975 29.048 570.543 29.048C568.111 29.048 565.647 29.624 563.151 30.776C560.719 31.864 558.703 33.688 557.103 36.248C555.503 38.808 554.703 42.2 554.703 46.424C554.703 50.648 555.503 54.072 557.103 56.696C558.703 59.256 560.719 61.112 563.151 62.264C565.647 63.416 568.111 63.992 570.543 63.992Z" fill="#FF6400"/>
</svg>
