<svg width="643" height="123" viewBox="0 0 643 123" fill="none" xmlns="http://www.w3.org/2000/svg">
<path d="M100.819 116.36C99.4106 116.36 98.2986 116.016 97.4826 115.328C96.6666 114.624 96.2586 113.616 96.2586 112.304C96.2586 111.024 96.7146 110.016 97.6266 109.28C98.5386 108.528 99.7626 108.152 101.299 108.152C102.963 108.152 104.475 108.472 105.835 109.112V107.72C105.835 106.536 105.515 105.672 104.875 105.128C104.235 104.568 103.195 104.288 101.755 104.288C101.003 104.288 100.267 104.36 99.5466 104.504C98.8266 104.632 98.2026 104.816 97.6746 105.056V103.568C98.1546 103.344 98.8026 103.16 99.6186 103.016C100.435 102.872 101.227 102.8 101.995 102.8C103.611 102.8 104.883 103.12 105.811 103.76L107.203 102.2H109.267L106.915 104.84C107.427 105.608 107.683 106.56 107.683 107.696V116H105.835V110.6C104.571 109.96 103.115 109.64 101.467 109.64C99.2266 109.64 98.1066 110.528 98.1066 112.304C98.1066 113.184 98.3546 113.832 98.8506 114.248C99.3466 114.664 100.139 114.872 101.227 114.872C101.787 114.872 102.315 114.8 102.811 114.656V116.12C102.251 116.28 101.587 116.36 100.819 116.36ZM110.954 114.44H112.034C112.498 114.44 112.81 114.36 112.97 114.2C113.13 114.024 113.21 113.688 113.21 113.192V107.84L111.53 105.944C112.314 104.92 113.234 104.144 114.29 103.616C115.362 103.072 116.626 102.8 118.082 102.8C119.938 102.8 121.354 103.224 122.33 104.072C123.306 104.92 123.794 106.112 123.794 107.648V116H121.946V107.816C121.946 105.464 120.658 104.288 118.082 104.288C117.09 104.288 116.234 104.432 115.514 104.72C114.81 105.008 114.162 105.472 113.57 106.112L115.058 107.792V113.648C115.058 114.384 114.858 114.96 114.458 115.376C114.074 115.792 113.506 116 112.754 116H110.954V114.44ZM132.08 107.6C132.08 106.464 131.848 105.632 131.384 105.104C130.92 104.56 130.128 104.288 129.008 104.288C127.872 104.288 126.856 104.512 125.96 104.96V103.472C126.344 103.28 126.832 103.12 127.424 102.992C128.032 102.864 128.64 102.8 129.248 102.8C130.832 102.8 132.008 103.224 132.776 104.072C133.544 104.92 133.928 106.136 133.928 107.72V116H132.08V107.6ZM136.565 103.16H138.413L141.029 113.336L144.077 103.16H145.565L148.613 113.336L151.229 103.16H153.077L149.525 116H147.965L144.821 105.512L141.677 116H140.117L136.565 103.16ZM157.939 116C157.219 116 156.667 115.792 156.283 115.376C155.899 114.96 155.707 114.384 155.707 113.648V103.16H157.555V113.24C157.555 113.704 157.651 114.024 157.843 114.2C158.035 114.36 158.355 114.44 158.803 114.44H159.691V116H157.939ZM163.843 116C163.123 116 162.571 115.792 162.187 115.376C161.803 114.96 161.611 114.384 161.611 113.648V103.16H163.459V113.24C163.459 113.704 163.555 114.024 163.747 114.2C163.939 114.36 164.259 114.44 164.707 114.44H165.595V116H163.843ZM172.585 116.36C170.649 116.36 169.121 115.984 168.001 115.232V113.672C169.137 114.472 170.561 114.872 172.273 114.872C173.953 114.872 175.265 114.432 176.209 113.552C177.153 112.656 177.625 111.336 177.625 109.592C177.625 107.848 177.153 106.528 176.209 105.632C175.265 104.736 173.953 104.288 172.273 104.288C170.577 104.288 169.161 104.696 168.025 105.512V103.928C169.177 103.176 170.697 102.8 172.585 102.8C174.713 102.8 176.393 103.4 177.625 104.6C178.857 105.784 179.473 107.448 179.473 109.592C179.473 111.736 178.857 113.4 177.625 114.584C176.393 115.768 174.713 116.36 172.585 116.36ZM187.924 116.36C186.724 116.36 185.668 116.112 184.756 115.616C183.844 115.104 183.132 114.36 182.62 113.384C182.124 112.408 181.876 111.216 181.876 109.808C181.876 107.6 182.476 105.88 183.676 104.648C184.892 103.416 186.572 102.8 188.716 102.8C190.908 102.8 192.492 103.32 193.468 104.36C194.46 105.384 194.956 106.68 194.956 108.248V116H193.108V108.224C193.108 105.6 191.644 104.288 188.716 104.288C187.148 104.288 185.924 104.76 185.044 105.704C184.164 106.632 183.724 108 183.724 109.808C183.724 111.456 184.124 112.712 184.924 113.576C185.724 114.44 186.812 114.872 188.188 114.872C188.78 114.872 189.348 114.8 189.892 114.656V116.12C189.364 116.28 188.708 116.36 187.924 116.36ZM202.397 116.36C200.989 116.36 199.877 116.016 199.061 115.328C198.245 114.624 197.837 113.616 197.837 112.304C197.837 111.024 198.293 110.016 199.205 109.28C200.117 108.528 201.341 108.152 202.877 108.152C204.541 108.152 206.053 108.472 207.413 109.112V107.72C207.413 106.536 207.093 105.672 206.453 105.128C205.813 104.568 204.773 104.288 203.333 104.288C202.581 104.288 201.845 104.36 201.125 104.504C200.405 104.632 199.781 104.816 199.253 105.056V103.568C199.733 103.344 200.381 103.16 201.197 103.016C202.013 102.872 202.805 102.8 203.573 102.8C205.493 102.8 206.917 103.24 207.845 104.12C208.789 104.984 209.261 106.176 209.261 107.696V116H207.413V110.6C206.149 109.96 204.693 109.64 203.045 109.64C201.893 109.64 201.045 109.864 200.501 110.312C199.957 110.744 199.685 111.408 199.685 112.304C199.685 113.184 199.933 113.832 200.429 114.248C200.925 114.664 201.717 114.872 202.805 114.872C203.365 114.872 203.893 114.8 204.389 114.656V116.12C203.829 116.28 203.165 116.36 202.397 116.36ZM204.43 99.608C204.43 99.4 204.398 99.256 204.334 99.176C204.254 99.096 204.11 99.056 203.902 99.056H202.846V97.712H204.406C204.886 97.712 205.238 97.832 205.462 98.072C205.67 98.296 205.774 98.584 205.774 98.936V99.824H210.694V101.096H204.43V99.608ZM217.126 116.36C216.182 116.36 215.27 116.24 214.39 116C213.51 115.76 212.758 115.416 212.134 114.968V108.92H217.03V110.408H213.982V114.104C214.766 114.616 215.814 114.872 217.126 114.872C218.758 114.872 220.03 114.392 220.942 113.432C221.854 112.472 222.31 111.112 222.31 109.352C222.31 107.576 221.878 106.288 221.014 105.488C220.166 104.688 218.758 104.288 216.79 104.288C215.926 104.288 215.086 104.384 214.27 104.576C213.47 104.752 212.79 105.04 212.23 105.44V103.904C213.446 103.168 215.038 102.8 217.006 102.8C219.342 102.8 221.118 103.36 222.334 104.48C223.55 105.584 224.158 107.208 224.158 109.352C224.158 110.76 223.878 111.992 223.318 113.048C222.758 114.104 221.95 114.92 220.894 115.496C219.838 116.072 218.582 116.36 217.126 116.36ZM233.628 116.36C231.676 116.36 230.076 115.608 228.828 114.104V116H227.028V103.16H228.876V112.424C229.932 114.056 231.372 114.872 233.196 114.872C234.364 114.872 235.244 114.608 235.836 114.08C236.428 113.536 236.724 112.744 236.724 111.704V103.16H238.572V111.776C238.572 113.168 238.14 114.28 237.276 115.112C236.412 115.944 235.196 116.36 233.628 116.36ZM241.934 103.16H243.734V105.032C244.358 104.28 245.11 103.72 245.99 103.352C246.87 102.984 247.766 102.8 248.678 102.8C250.214 102.8 251.398 103.216 252.23 104.048C253.062 104.88 253.478 105.96 253.478 107.288V116H251.63V107.384C251.63 106.408 251.35 105.648 250.79 105.104C250.23 104.56 249.382 104.288 248.246 104.288C246.31 104.288 244.822 105.088 243.782 106.688V116H241.934V103.16ZM243.472 99.728H251.776V97.184H253.48V101.096H243.472V99.728ZM251.728 93.272H253.384V96.368H251.728V93.272ZM262.408 116.36C261.208 116.36 260.152 116.112 259.24 115.616C258.328 115.104 257.616 114.36 257.104 113.384C256.608 112.408 256.36 111.216 256.36 109.808C256.36 108.368 256.544 107.12 256.912 106.064C257.296 105.008 257.824 104.2 258.496 103.64C259.168 103.08 259.936 102.8 260.8 102.8C262.032 102.8 262.88 103.32 263.344 104.36C263.6 103.848 263.992 103.464 264.52 103.208C265.048 102.936 265.64 102.8 266.296 102.8C267.352 102.8 268.136 103.144 268.648 103.832C269.176 104.504 269.44 105.408 269.44 106.544V116H267.592V106.664C267.592 105.864 267.456 105.272 267.184 104.888C266.928 104.488 266.496 104.288 265.888 104.288C264.848 104.288 264.2 104.824 263.944 105.896H262.744C262.632 105.336 262.448 104.928 262.192 104.672C261.936 104.416 261.56 104.288 261.064 104.288C260.232 104.288 259.544 104.768 259 105.728C258.472 106.688 258.208 108.048 258.208 109.808C258.208 111.456 258.608 112.712 259.408 113.576C260.208 114.44 261.296 114.872 262.672 114.872C263.264 114.872 263.832 114.8 264.376 114.656V116.12C263.848 116.28 263.192 116.36 262.408 116.36ZM277.313 116.36C276.369 116.36 275.457 116.24 274.577 116C273.697 115.76 272.945 115.416 272.321 114.968V108.92H277.217V110.408H274.169V114.104C274.953 114.616 276.001 114.872 277.313 114.872C278.945 114.872 280.217 114.392 281.129 113.432C282.041 112.472 282.497 111.112 282.497 109.352C282.497 107.576 282.065 106.288 281.201 105.488C280.353 104.688 278.945 104.288 276.977 104.288C276.113 104.288 275.273 104.384 274.457 104.576C273.657 104.752 272.977 105.04 272.417 105.44V103.904C273.633 103.168 275.225 102.8 277.193 102.8C279.529 102.8 281.305 103.36 282.521 104.48C283.737 105.584 284.345 107.208 284.345 109.352C284.345 110.76 284.065 111.992 283.505 113.048C282.945 114.104 282.137 114.92 281.081 115.496C280.025 116.072 278.769 116.36 277.313 116.36ZM293.167 116.36C291.967 116.36 290.911 116.144 289.999 115.712C289.103 115.28 288.415 114.672 287.935 113.888C287.455 113.088 287.215 112.176 287.215 111.152V103.16H289.063V111.176C289.063 112.312 289.415 113.216 290.119 113.888C290.839 114.544 291.855 114.872 293.167 114.872C294.479 114.872 295.487 114.544 296.191 113.888C296.911 113.216 297.271 112.312 297.271 111.176V103.16H299.119V111.152C299.119 112.176 298.879 113.088 298.399 113.888C297.919 114.672 297.223 115.28 296.311 115.712C295.415 116.144 294.367 116.36 293.167 116.36ZM305.929 116C305.209 116 304.657 115.792 304.273 115.376C303.889 114.96 303.697 114.384 303.697 113.648V103.952C303.697 102.752 303.481 101.816 303.049 101.144C302.617 100.472 301.905 99.936 300.913 99.536V97.952H307.993V99.512H303.457C304.193 99.96 304.721 100.552 305.041 101.288C305.377 102.008 305.545 102.92 305.545 104.024V113.24C305.545 113.704 305.641 114.024 305.833 114.2C306.025 114.36 306.345 114.44 306.793 114.44H307.681V116H305.929ZM310.472 108.944H312.296L313.664 114.536C314.816 114.536 315.824 114.32 316.688 113.888C317.552 113.456 318.224 112.84 318.704 112.04C319.184 111.24 319.424 110.304 319.424 109.232C319.424 108.096 319.264 107.168 318.944 106.448C318.64 105.728 318.104 105.192 317.336 104.84C316.584 104.472 315.544 104.288 314.216 104.288C313.4 104.288 312.584 104.368 311.768 104.528C310.952 104.672 310.256 104.872 309.68 105.128V103.64C310.256 103.384 310.968 103.184 311.816 103.04C312.68 102.88 313.544 102.8 314.408 102.8C316.728 102.8 318.448 103.328 319.568 104.384C320.704 105.44 321.272 107.056 321.272 109.232C321.272 110.512 320.952 111.672 320.312 112.712C319.672 113.736 318.8 114.544 317.696 115.136C316.608 115.712 315.408 116 314.096 116H312.2L310.472 108.944ZM324.153 103.16H325.953V105.032C326.577 104.28 327.329 103.72 328.209 103.352C329.089 102.984 329.985 102.8 330.897 102.8C332.433 102.8 333.617 103.216 334.449 104.048C335.281 104.88 335.697 105.96 335.697 107.288V116H333.849V107.384C333.849 106.408 333.569 105.648 333.009 105.104C332.449 104.56 331.601 104.288 330.465 104.288C328.529 104.288 327.041 105.088 326.001 106.688V116H324.153V103.16ZM344.483 116.36C342.675 116.36 341.235 116.024 340.163 115.352C339.107 114.664 338.579 113.656 338.579 112.328C338.579 111.576 338.779 110.928 339.179 110.384C339.579 109.824 340.131 109.44 340.835 109.232C340.163 108.976 339.627 108.592 339.227 108.08C338.843 107.552 338.651 106.936 338.651 106.232C338.651 105.208 338.987 104.384 339.659 103.76C340.331 103.12 341.307 102.8 342.587 102.8C342.939 102.8 343.299 102.824 343.667 102.872C344.051 102.92 344.355 102.976 344.579 103.04V104.504C344.371 104.44 344.099 104.392 343.763 104.36C343.443 104.312 343.147 104.288 342.875 104.288C342.107 104.288 341.515 104.472 341.099 104.84C340.699 105.192 340.499 105.688 340.499 106.328C340.499 106.984 340.723 107.504 341.171 107.888C341.635 108.256 342.291 108.44 343.139 108.44H344.579V109.976H343.163C342.299 109.976 341.627 110.176 341.147 110.576C340.667 110.96 340.427 111.544 340.427 112.328C340.427 113.144 340.787 113.776 341.507 114.224C342.243 114.656 343.235 114.872 344.483 114.872C345.939 114.872 347.011 114.552 347.699 113.912C348.403 113.256 348.755 112.344 348.755 111.176V103.16H350.603V111.128C350.603 112.024 350.411 112.864 350.027 113.648C349.643 114.432 348.995 115.08 348.083 115.592C347.171 116.104 345.971 116.36 344.483 116.36ZM345.253 99.896C345.253 98.776 345.861 98.216 347.077 98.216H352.381V99.488H347.797C347.477 99.488 347.261 99.544 347.149 99.656C347.021 99.768 346.957 99.976 346.957 100.28V101.096H345.253V99.896ZM354.709 107.84L353.509 105.944C354.309 104.92 355.237 104.144 356.293 103.616C357.349 103.072 358.605 102.8 360.061 102.8C361.917 102.8 363.333 103.224 364.309 104.072C365.285 104.92 365.773 106.112 365.773 107.648V116H363.925V107.816C363.925 106.616 363.597 105.728 362.941 105.152C362.301 104.576 361.341 104.288 360.061 104.288C359.069 104.288 358.205 104.44 357.469 104.744C356.733 105.032 356.077 105.504 355.501 106.16L356.557 107.816V116H354.709V107.84ZM361.593 101.096C360.985 101.096 360.537 100.944 360.249 100.64C359.961 100.336 359.817 99.888 359.817 99.296V98.168H361.521V98.984C361.521 99.272 361.577 99.472 361.689 99.584C361.801 99.68 362.017 99.728 362.337 99.728H367.953V101.096H361.593ZM375.081 116.36C373.881 116.36 372.825 116.144 371.913 115.712C371.017 115.28 370.329 114.672 369.849 113.888C369.369 113.088 369.129 112.176 369.129 111.152V103.16H370.977V111.176C370.977 112.312 371.329 113.216 372.033 113.888C372.753 114.544 373.769 114.872 375.081 114.872C376.393 114.872 377.401 114.544 378.105 113.888C378.825 113.216 379.185 112.312 379.185 111.176V103.16H381.033V111.152C381.033 112.176 380.793 113.088 380.313 113.888C379.833 114.672 379.137 115.28 378.225 115.712C377.329 116.144 376.281 116.36 375.081 116.36ZM386.619 116C385.899 116 385.347 115.792 384.963 115.376C384.579 114.96 384.387 114.384 384.387 113.648V103.16H386.235V113.24C386.235 113.704 386.331 114.024 386.523 114.2C386.715 114.36 387.035 114.44 387.483 114.44H388.371V116H386.619ZM397.206 116.36C396.006 116.36 394.95 116.144 394.038 115.712C393.142 115.28 392.454 114.672 391.974 113.888C391.494 113.088 391.254 112.176 391.254 111.152V103.16H393.102V111.176C393.102 112.312 393.454 113.216 394.158 113.888C394.878 114.544 395.894 114.872 397.206 114.872C398.518 114.872 399.526 114.544 400.23 113.888C400.95 113.216 401.31 112.312 401.31 111.176V98.864H403.158V111.152C403.158 112.176 402.918 113.088 402.438 113.888C401.958 114.672 401.262 115.28 400.35 115.712C399.454 116.144 398.406 116.36 397.206 116.36ZM393.793 99.608C393.793 99.4 393.761 99.256 393.697 99.176C393.617 99.096 393.473 99.056 393.265 99.056H392.209V97.712H393.769C394.249 97.712 394.601 97.832 394.825 98.072C395.033 98.296 395.137 98.584 395.137 98.936V99.824H399.577V101.096H393.793V99.608ZM411.432 107.6C411.432 106.464 411.2 105.632 410.736 105.104C410.272 104.56 409.48 104.288 408.36 104.288C407.224 104.288 406.208 104.512 405.312 104.96V103.472C405.696 103.28 406.184 103.12 406.776 102.992C407.384 102.864 407.992 102.8 408.6 102.8C410.184 102.8 411.36 103.224 412.128 104.072C412.896 104.92 413.28 106.136 413.28 107.72V116H411.432V107.6ZM416.637 103.16H418.485V109.328L425.397 103.16H427.581L424.077 106.304C425.405 106.624 426.333 107.152 426.861 107.888C427.389 108.608 427.653 109.568 427.653 110.768V116H425.805V110.864C425.805 109.856 425.581 109.088 425.133 108.56C424.701 108.032 423.949 107.656 422.877 107.432L418.485 111.344V116H416.637V103.16ZM437.604 116.36C435.652 116.36 434.052 115.608 432.804 114.104V116H431.004V103.16H432.852V112.424C433.908 114.056 435.348 114.872 437.172 114.872C438.34 114.872 439.22 114.608 439.812 114.08C440.404 113.536 440.7 112.744 440.7 111.704V103.16H442.548V111.776C442.548 113.168 442.116 114.28 441.252 115.112C440.388 115.944 439.172 116.36 437.604 116.36ZM450.83 107.6C450.83 106.464 450.598 105.632 450.134 105.104C449.67 104.56 448.878 104.288 447.758 104.288C446.622 104.288 445.606 104.512 444.71 104.96V103.472C445.094 103.28 445.582 103.12 446.174 102.992C446.782 102.864 447.39 102.8 447.998 102.8C449.582 102.8 450.758 103.224 451.526 104.072C452.294 104.92 452.678 106.136 452.678 107.72V116H450.83V107.6ZM461.459 116.36C459.651 116.36 458.211 116.024 457.139 115.352C456.083 114.664 455.555 113.656 455.555 112.328C455.555 111.576 455.755 110.928 456.155 110.384C456.555 109.824 457.107 109.44 457.811 109.232C457.139 108.976 456.603 108.592 456.203 108.08C455.819 107.552 455.627 106.936 455.627 106.232C455.627 105.208 455.963 104.384 456.635 103.76C457.307 103.12 458.283 102.8 459.563 102.8C459.915 102.8 460.275 102.824 460.643 102.872C461.027 102.92 461.331 102.976 461.555 103.04V104.504C461.347 104.44 461.075 104.392 460.739 104.36C460.419 104.312 460.123 104.288 459.851 104.288C459.083 104.288 458.491 104.472 458.075 104.84C457.675 105.192 457.475 105.688 457.475 106.328C457.475 106.984 457.699 107.504 458.147 107.888C458.611 108.256 459.267 108.44 460.115 108.44H461.555V109.976H460.139C459.275 109.976 458.603 110.176 458.123 110.576C457.643 110.96 457.403 111.544 457.403 112.328C457.403 113.144 457.763 113.776 458.483 114.224C459.219 114.656 460.211 114.872 461.459 114.872C462.915 114.872 463.987 114.552 464.675 113.912C465.379 113.256 465.731 112.344 465.731 111.176V103.16H467.579V111.128C467.579 112.024 467.387 112.864 467.003 113.648C466.619 114.432 465.971 115.08 465.059 115.592C464.147 116.104 462.947 116.36 461.459 116.36ZM475.933 116.36C474.285 116.36 472.981 115.928 472.021 115.064C471.077 114.184 470.605 113.016 470.605 111.56V110.528C470.605 110.016 470.717 109.536 470.941 109.088C471.181 108.64 471.517 108.112 471.949 107.504C472.269 107.072 472.509 106.72 472.669 106.448C472.829 106.16 472.909 105.88 472.909 105.608C472.909 105.24 472.829 104.992 472.669 104.864C472.509 104.72 472.221 104.648 471.805 104.648H470.485V103.16H472.573C473.245 103.16 473.773 103.36 474.157 103.76C474.557 104.16 474.757 104.696 474.757 105.368C474.757 105.8 474.661 106.208 474.469 106.592C474.277 106.96 473.981 107.424 473.581 107.984C473.197 108.496 472.909 108.936 472.717 109.304C472.541 109.656 472.453 110.032 472.453 110.432V111.632C472.453 112.672 472.749 113.472 473.341 114.032C473.933 114.592 474.797 114.872 475.933 114.872C477.085 114.872 477.949 114.592 478.525 114.032C479.101 113.472 479.389 112.664 479.389 111.608V103.16H481.237V111.272C481.237 112.872 480.773 114.12 479.845 115.016C478.917 115.912 477.613 116.36 475.933 116.36ZM489.118 116.36C488.174 116.36 487.262 116.24 486.382 116C485.502 115.76 484.75 115.416 484.126 114.968V108.92H489.022V110.408H485.974V114.104C486.758 114.616 487.806 114.872 489.118 114.872C490.75 114.872 492.022 114.392 492.934 113.432C493.846 112.472 494.302 111.112 494.302 109.352C494.302 107.576 493.87 106.288 493.006 105.488C492.158 104.688 490.75 104.288 488.782 104.288C487.918 104.288 487.078 104.384 486.262 104.576C485.462 104.752 484.782 105.04 484.222 105.44V103.904C485.438 103.168 487.03 102.8 488.998 102.8C491.334 102.8 493.11 103.36 494.326 104.48C495.542 105.584 496.15 107.208 496.15 109.352C496.15 110.76 495.87 111.992 495.31 113.048C494.75 114.104 493.942 114.92 492.886 115.496C491.83 116.072 490.574 116.36 489.118 116.36ZM498.54 104.768H500.412L503.7 114.536C505.38 114.536 506.668 114.088 507.564 113.192C508.46 112.28 508.908 111 508.908 109.352C508.908 107.704 508.596 106.448 507.972 105.584C507.348 104.72 506.348 104.288 504.972 104.288C504.38 104.288 503.812 104.36 503.268 104.504V103.04C503.796 102.88 504.452 102.8 505.236 102.8C507.028 102.8 508.396 103.384 509.34 104.552C510.284 105.72 510.756 107.32 510.756 109.352C510.756 110.728 510.46 111.92 509.868 112.928C509.292 113.936 508.5 114.704 507.492 115.232C506.5 115.744 505.38 116 504.132 116H502.308L498.54 104.768ZM513.645 107.888C513.645 106.272 514.165 105.024 515.205 104.144C516.261 103.248 517.701 102.8 519.525 102.8C521.365 102.8 522.805 103.248 523.845 104.144C524.885 105.024 525.405 106.272 525.405 107.888V116H523.557V107.816C523.557 106.632 523.197 105.752 522.477 105.176C521.773 104.584 520.789 104.288 519.525 104.288C518.261 104.288 517.269 104.584 516.549 105.176C515.845 105.752 515.493 106.632 515.493 107.816V110.624C515.733 110.208 516.093 109.872 516.573 109.616C517.069 109.344 517.645 109.208 518.301 109.208H520.197V110.696H518.133C517.653 110.696 517.205 110.824 516.789 111.08C516.389 111.336 516.069 111.664 515.829 112.064C515.605 112.448 515.493 112.848 515.493 113.264V116H513.645V107.888ZM523.698 119.768C523.698 119.464 523.642 119.264 523.53 119.168C523.418 119.088 523.194 119.048 522.858 119.048H522.114V117.488H523.818C524.442 117.488 524.866 117.624 525.09 117.896C525.298 118.168 525.402 118.648 525.402 119.336V122.168H523.698V119.768ZM542.922 116.36C541.418 116.36 540.258 115.944 539.442 115.112C538.626 114.28 538.218 113.168 538.218 111.776V107.816C538.218 106.6 537.914 105.712 537.306 105.152C536.714 104.576 535.81 104.288 534.594 104.288C533.666 104.288 532.866 104.432 532.194 104.72C531.522 105.008 530.882 105.488 530.274 106.16L531.33 107.816V113.192C531.33 113.656 531.418 113.984 531.594 114.176C531.786 114.352 532.106 114.44 532.554 114.44H533.946V116H531.786C531.034 116 530.458 115.792 530.058 115.376C529.674 114.96 529.482 114.384 529.482 113.648V107.84L528.282 105.944C529.098 104.904 530.002 104.12 530.994 103.592C532.002 103.064 533.202 102.8 534.594 102.8C536.386 102.8 537.738 103.224 538.65 104.072C539.578 104.92 540.042 106.112 540.042 107.648V111.704C540.042 113.816 541.146 114.872 543.354 114.872C545.002 114.872 546.354 114.056 547.41 112.424V103.16H549.258V116H547.482V114.152C546.346 115.624 544.826 116.36 542.922 116.36Z" fill="#353A47"/>
<path d="M28.7934 71.48C27.5774 71.48 26.5534 71.064 25.7214 70.232C24.8894 69.4 24.4734 68.376 24.4734 67.16V12.152H4.88938C3.73738 12.152 2.77738 11.768 2.00938 11C1.24138 10.232 0.857375 9.272 0.857375 8.12C0.857375 6.968 1.24138 6.008 2.00938 5.23999C2.77738 4.408 3.73738 3.992 4.88938 3.992H52.6974C53.8494 3.992 54.8094 4.408 55.5774 5.23999C56.4094 6.008 56.8254 6.968 56.8254 8.12C56.8254 9.272 56.4094 10.232 55.5774 11C54.8094 11.768 53.8494 12.152 52.6974 12.152H33.2094V67.16C33.2094 68.376 32.7614 69.4 31.8654 70.232C31.0334 71.064 30.0094 71.48 28.7934 71.48ZM70.4859 71.96C67.7339 71.96 65.1419 71.384 62.7099 70.232C60.3419 69.08 58.4219 67.448 56.9499 65.336C55.5419 63.16 54.8379 60.568 54.8379 57.56C54.8379 53.016 56.6299 49.304 60.2139 46.424C63.8619 43.48 69.4299 42.008 76.9179 42.008H88.5339V41.24C88.5339 36.952 87.4779 33.912 85.3659 32.12C83.2539 30.264 80.0219 29.336 75.6699 29.336C72.9819 29.336 70.6139 29.592 68.5659 30.104C66.5819 30.552 64.6939 31.064 62.9019 31.64C62.3899 31.768 61.9739 31.832 61.6539 31.832C60.6939 31.832 59.8619 31.48 59.1579 30.776C58.4539 30.072 58.1019 29.208 58.1019 28.184C58.1019 26.456 58.9339 25.24 60.5979 24.536C62.8379 23.576 65.3019 22.776 67.9899 22.136C70.7419 21.432 73.8139 21.08 77.2059 21.08C81.8779 21.08 85.6859 22.008 88.6299 23.864C91.5739 25.72 93.7499 28.088 95.1579 30.968C96.5659 33.848 97.2699 36.856 97.2699 39.992V67.16C97.2699 68.376 96.8219 69.4 95.9259 70.232C95.0939 71.064 94.0699 71.48 92.8539 71.48C91.6379 71.48 90.6139 71.064 89.7819 70.232C88.9499 69.4 88.5339 68.376 88.5339 67.16V64.664C86.8059 66.456 84.5019 68.12 81.6219 69.656C78.7419 71.192 75.0299 71.96 70.4859 71.96ZM73.7499 64.28C76.7579 64.28 79.5739 63.544 82.1979 62.072C84.8219 60.6 86.9339 58.936 88.5339 57.08V49.016H78.0699C73.5899 49.016 70.0379 49.592 67.4139 50.744C64.8539 51.896 63.5739 53.848 63.5739 56.6C63.5739 58.648 64.2779 60.44 65.6859 61.976C67.1579 63.512 69.8459 64.28 73.7499 64.28ZM116.232 71.48C115.016 71.48 113.992 71.064 113.16 70.232C112.328 69.4 111.912 68.376 111.912 67.16V4.856C111.912 3.576 112.328 2.51999 113.16 1.68799C113.992 0.855997 115.016 0.439999 116.232 0.439999C117.512 0.439999 118.568 0.855997 119.4 1.68799C120.232 2.51999 120.648 3.576 120.648 4.856V67.16C120.648 68.376 120.232 69.4 119.4 70.232C118.568 71.064 117.512 71.48 116.232 71.48ZM157.706 71.96C149.898 71.96 143.786 69.752 139.37 65.336C135.018 60.856 132.842 54.584 132.842 46.52C132.842 42.168 133.642 38.072 135.242 34.232C136.842 30.328 139.338 27.16 142.73 24.728C146.122 22.296 150.474 21.08 155.786 21.08C160.714 21.08 164.874 22.232 168.266 24.536C171.658 26.776 174.218 29.72 175.946 33.368C177.738 37.016 178.634 40.984 178.634 45.272C178.634 46.488 178.218 47.512 177.386 48.344C176.618 49.176 175.562 49.592 174.218 49.592H141.674C142.186 53.88 143.818 57.336 146.57 59.96C149.322 62.52 153.29 63.8 158.474 63.8C161.354 63.8 163.786 63.544 165.77 63.032C167.754 62.456 169.642 61.72 171.434 60.824C171.946 60.568 172.522 60.44 173.162 60.44C174.186 60.44 175.082 60.792 175.85 61.496C176.618 62.2 177.002 63.096 177.002 64.184C177.002 64.952 176.746 65.656 176.234 66.296C175.786 66.872 175.21 67.352 174.506 67.736C172.394 68.952 170.09 69.976 167.594 70.808C165.162 71.576 161.866 71.96 157.706 71.96ZM141.674 42.488H169.994C169.802 39.16 168.938 36.472 167.402 34.424C165.93 32.376 164.138 30.872 162.026 29.912C159.914 28.952 157.834 28.472 155.786 28.472C153.738 28.472 151.658 28.952 149.546 29.912C147.434 30.872 145.642 32.376 144.17 34.424C142.698 36.472 141.866 39.16 141.674 42.488ZM194.513 71.48C193.297 71.48 192.273 71.064 191.441 70.232C190.609 69.4 190.193 68.376 190.193 67.16V25.976C190.193 24.696 190.609 23.64 191.441 22.808C192.273 21.976 193.297 21.56 194.513 21.56C195.729 21.56 196.753 21.976 197.585 22.808C198.481 23.64 198.929 24.696 198.929 25.976V29.912C200.977 27.672 203.377 25.656 206.129 23.864C208.945 22.008 212.497 21.08 216.785 21.08C220.433 21.08 223.537 21.944 226.097 23.672C228.657 25.336 230.609 27.608 231.953 30.488C233.297 33.304 233.969 36.44 233.969 39.896V67.16C233.969 68.376 233.521 69.4 232.625 70.232C231.793 71.064 230.769 71.48 229.553 71.48C228.337 71.48 227.313 71.064 226.481 70.232C225.649 69.4 225.233 68.376 225.233 67.16V40.856C225.233 37.208 224.401 34.36 222.737 32.312C221.137 30.2 218.449 29.144 214.673 29.144C211.217 29.144 208.209 30.072 205.649 31.928C203.089 33.784 200.849 35.928 198.929 38.36V67.16C198.929 68.376 198.481 69.4 197.585 70.232C196.753 71.064 195.729 71.48 194.513 71.48ZM264.464 71.96C263.312 71.96 261.936 71.832 260.336 71.576C258.8 71.384 257.264 70.904 255.728 70.136C254.256 69.304 253.008 68.024 251.984 66.296C250.96 64.568 250.448 62.232 250.448 59.288V29.528H243.632C242.416 29.528 241.808 28.92 241.808 27.704C241.808 27.064 242.096 26.52 242.672 26.072L255.728 13.304C255.856 13.176 256.048 13.016 256.304 12.824C256.624 12.568 256.976 12.44 257.36 12.44C257.872 12.44 258.288 12.632 258.608 13.016C258.992 13.4 259.184 13.848 259.184 14.36V22.04H270.032C271.12 22.04 272.016 22.392 272.72 23.096C273.424 23.8 273.776 24.696 273.776 25.784C273.776 26.808 273.424 27.704 272.72 28.472C272.016 29.176 271.12 29.528 270.032 29.528H259.184V58.52C259.184 60.376 259.536 61.72 260.24 62.552C260.944 63.384 261.776 63.896 262.736 64.088C263.76 64.216 264.656 64.28 265.424 64.28C266.96 64.28 268.08 64.152 268.784 63.896C269.552 63.576 270.352 63.416 271.184 63.416C272.08 63.416 272.88 63.736 273.584 64.376C274.288 65.016 274.64 65.848 274.64 66.872C274.64 68.344 273.904 69.464 272.432 70.232C271.28 70.744 270.032 71.16 268.688 71.48C267.408 71.8 266 71.96 264.464 71.96ZM300.065 71.96C296.545 71.96 293.345 71.576 290.465 70.808C287.649 70.04 285.025 68.984 282.593 67.64C281.505 66.872 280.961 65.816 280.961 64.472C280.961 63.512 281.313 62.648 282.017 61.88C282.721 61.048 283.617 60.632 284.705 60.632C285.281 60.632 285.857 60.76 286.433 61.016C288.161 61.784 290.049 62.456 292.097 63.032C294.209 63.608 296.673 63.896 299.489 63.896C303.201 63.896 305.889 63.32 307.553 62.168C309.281 60.952 310.145 59.256 310.145 57.08C310.145 55.672 309.441 54.584 308.033 53.816C306.689 53.048 304.897 52.408 302.657 51.896C300.481 51.32 298.177 50.744 295.745 50.168C293.313 49.528 290.977 48.696 288.737 47.672C286.561 46.584 284.769 45.144 283.361 43.352C282.017 41.496 281.345 39.128 281.345 36.248C281.345 31.896 282.913 28.28 286.049 25.4C289.185 22.52 293.857 21.08 300.065 21.08C302.689 21.08 305.153 21.304 307.457 21.752C309.825 22.2 312.001 22.776 313.985 23.48C314.881 23.736 315.553 24.248 316.001 25.016C316.513 25.72 316.769 26.424 316.769 27.128C316.769 28.152 316.385 29.048 315.617 29.816C314.913 30.584 314.017 30.968 312.929 30.968C312.673 30.968 312.449 30.968 312.257 30.968C312.065 30.904 311.873 30.84 311.681 30.776C310.145 30.264 308.449 29.848 306.593 29.528C304.801 29.208 302.849 29.048 300.737 29.048C297.217 29.048 294.497 29.688 292.577 30.968C290.657 32.248 289.697 33.848 289.697 35.768C289.697 37.432 290.369 38.712 291.713 39.608C293.121 40.504 294.913 41.24 297.089 41.816C299.329 42.328 301.665 42.872 304.097 43.448C306.593 44.024 308.929 44.856 311.105 45.944C313.345 46.968 315.137 48.408 316.481 50.264C317.889 52.12 318.593 54.616 318.593 57.752C318.593 61.656 317.025 65.016 313.889 67.832C310.817 70.584 306.209 71.96 300.065 71.96ZM356.823 71.48C355.479 71.48 354.423 71.064 353.655 70.232C352.887 69.4 352.503 68.376 352.503 67.16C352.503 66.648 352.663 66.008 352.983 65.24L377.463 7.44799C377.911 6.424 378.583 5.528 379.479 4.75999C380.439 3.928 381.623 3.512 383.031 3.512H383.991C385.463 3.512 386.647 3.928 387.543 4.75999C388.439 5.528 389.111 6.424 389.559 7.44799L414.039 65.24C414.359 66.008 414.519 66.648 414.519 67.16C414.519 68.376 414.135 69.4 413.367 70.232C412.599 71.064 411.543 71.48 410.199 71.48C408.215 71.48 406.839 70.584 406.071 68.792L399.831 53.816H367.191L360.951 68.792C360.183 70.584 358.807 71.48 356.823 71.48ZM370.551 45.848H396.471L383.511 14.648L370.551 45.848ZM441.558 71.96C440.406 71.96 439.03 71.832 437.43 71.576C435.894 71.384 434.358 70.904 432.822 70.136C431.35 69.304 430.102 68.024 429.078 66.296C428.054 64.568 427.542 62.232 427.542 59.288V29.528H420.726C419.51 29.528 418.902 28.92 418.902 27.704C418.902 27.064 419.19 26.52 419.766 26.072L432.822 13.304C432.95 13.176 433.142 13.016 433.398 12.824C433.718 12.568 434.07 12.44 434.454 12.44C434.966 12.44 435.382 12.632 435.702 13.016C436.086 13.4 436.278 13.848 436.278 14.36V22.04H447.126C448.214 22.04 449.11 22.392 449.814 23.096C450.518 23.8 450.87 24.696 450.87 25.784C450.87 26.808 450.518 27.704 449.814 28.472C449.11 29.176 448.214 29.528 447.126 29.528H436.278V58.52C436.278 60.376 436.63 61.72 437.334 62.552C438.038 63.384 438.87 63.896 439.83 64.088C440.854 64.216 441.75 64.28 442.518 64.28C444.054 64.28 445.174 64.152 445.878 63.896C446.646 63.576 447.446 63.416 448.278 63.416C449.174 63.416 449.974 63.736 450.678 64.376C451.382 65.016 451.734 65.848 451.734 66.872C451.734 68.344 450.998 69.464 449.526 70.232C448.374 70.744 447.126 71.16 445.782 71.48C444.502 71.8 443.094 71.96 441.558 71.96ZM465.638 71.48C464.422 71.48 463.398 71.064 462.566 70.232C461.734 69.4 461.318 68.376 461.318 67.16V25.976C461.318 24.76 461.734 23.736 462.566 22.904C463.398 22.008 464.422 21.56 465.638 21.56C466.854 21.56 467.878 22.008 468.71 22.904C469.606 23.736 470.054 24.76 470.054 25.976V29.912C470.95 28.632 472.07 27.32 473.414 25.976C474.822 24.632 476.582 23.48 478.694 22.52C480.806 21.56 483.366 21.08 486.374 21.08C490.214 21.08 493.35 22.104 495.782 24.152C498.278 26.2 500.038 28.472 501.062 30.968C501.83 29.752 502.918 28.376 504.326 26.84C505.734 25.304 507.59 23.96 509.894 22.808C512.262 21.656 515.206 21.08 518.726 21.08C522.502 21.08 525.574 22.04 527.942 23.96C530.31 25.816 532.038 28.152 533.126 30.968C534.214 33.784 534.758 36.632 534.758 39.512V67.16C534.758 68.376 534.31 69.4 533.414 70.232C532.582 71.064 531.558 71.48 530.342 71.48C529.126 71.48 528.102 71.064 527.27 70.232C526.438 69.4 526.022 68.376 526.022 67.16V41.24C526.022 37.208 525.286 34.2 523.814 32.216C522.406 30.168 519.878 29.144 516.23 29.144C513.798 29.144 511.718 29.624 509.99 30.584C508.262 31.48 506.79 32.632 505.574 34.04C504.358 35.448 503.302 36.888 502.406 38.36V67.16C502.406 68.376 501.958 69.4 501.062 70.232C500.23 71.064 499.206 71.48 497.99 71.48C496.774 71.48 495.75 71.064 494.918 70.232C494.086 69.4 493.67 68.376 493.67 67.16V41.24C493.67 37.208 492.934 34.2 491.462 32.216C490.054 30.168 487.526 29.144 483.878 29.144C481.446 29.144 479.366 29.624 477.638 30.584C475.91 31.48 474.438 32.632 473.222 34.04C472.006 35.448 470.95 36.888 470.054 38.36V67.16C470.054 68.376 469.606 69.4 468.71 70.232C467.878 71.064 466.854 71.48 465.638 71.48ZM623.69 71.96C620.17 71.96 616.97 71.576 614.09 70.808C611.274 70.04 608.65 68.984 606.218 67.64C605.13 66.872 604.586 65.816 604.586 64.472C604.586 63.512 604.938 62.648 605.642 61.88C606.346 61.048 607.242 60.632 608.33 60.632C608.906 60.632 609.482 60.76 610.058 61.016C611.786 61.784 613.674 62.456 615.722 63.032C617.834 63.608 620.298 63.896 623.114 63.896C626.826 63.896 629.514 63.32 631.178 62.168C632.906 60.952 633.77 59.256 633.77 57.08C633.77 55.672 633.066 54.584 631.658 53.816C630.314 53.048 628.522 52.408 626.282 51.896C624.106 51.32 621.802 50.744 619.37 50.168C616.938 49.528 614.602 48.696 612.362 47.672C610.186 46.584 608.394 45.144 606.986 43.352C605.642 41.496 604.97 39.128 604.97 36.248C604.97 31.896 606.538 28.28 609.674 25.4C612.81 22.52 617.482 21.08 623.69 21.08C626.314 21.08 628.778 21.304 631.082 21.752C633.45 22.2 635.626 22.776 637.61 23.48C638.506 23.736 639.178 24.248 639.626 25.016C640.138 25.72 640.394 26.424 640.394 27.128C640.394 28.152 640.01 29.048 639.242 29.816C638.538 30.584 637.642 30.968 636.554 30.968C636.298 30.968 636.074 30.968 635.882 30.968C635.69 30.904 635.498 30.84 635.306 30.776C633.77 30.264 632.074 29.848 630.218 29.528C628.426 29.208 626.474 29.048 624.362 29.048C620.842 29.048 618.122 29.688 616.202 30.968C614.282 32.248 613.322 33.848 613.322 35.768C613.322 37.432 613.994 38.712 615.338 39.608C616.746 40.504 618.538 41.24 620.714 41.816C622.954 42.328 625.29 42.872 627.722 43.448C630.218 44.024 632.554 44.856 634.73 45.944C636.97 46.968 638.762 48.408 640.106 50.264C641.514 52.12 642.218 54.616 642.218 57.752C642.218 61.656 640.65 65.016 637.514 67.832C634.442 70.584 629.834 71.96 623.69 71.96Z" fill="black"/>
<path d="M571.043 71.96C566.115 71.96 561.795 70.904 558.083 68.792C554.371 66.616 551.491 63.64 549.443 59.864C547.459 56.024 546.467 51.576 546.467 46.52C546.467 41.464 547.459 37.048 549.443 33.272C551.491 29.432 554.371 26.456 558.083 24.344C561.795 22.168 566.115 21.08 571.043 21.08C575.971 21.08 580.259 22.168 583.907 24.344C587.619 26.456 590.499 29.432 592.547 33.272C594.595 37.048 595.619 41.464 595.619 46.52C595.619 51.576 594.595 56.024 592.547 59.864C590.499 63.64 587.619 66.616 583.907 68.792C580.259 70.904 575.971 71.96 571.043 71.96ZM571.043 63.992C573.475 63.992 575.907 63.416 578.339 62.264C580.771 61.112 582.787 59.256 584.387 56.696C586.051 54.072 586.883 50.648 586.883 46.424C586.883 42.2 586.051 38.808 584.387 36.248C582.787 33.688 580.771 31.864 578.339 30.776C575.907 29.624 573.475 29.048 571.043 29.048C568.611 29.048 566.147 29.624 563.651 30.776C561.219 31.864 559.203 33.688 557.603 36.248C556.003 38.808 555.203 42.2 555.203 46.424C555.203 50.648 556.003 54.072 557.603 56.696C559.203 59.256 561.219 61.112 563.651 62.264C566.147 63.416 568.611 63.992 571.043 63.992Z" fill="#FF6400"/>
</svg>
