<?xml version="1.0" encoding="UTF-8"?>
<!DOCTYPE svg PUBLIC "-//W3C//DTD SVG 1.1//EN" "http://www.w3.org/Graphics/SVG/1.1/DTD/svg11.dtd">
<svg xmlns="http://www.w3.org/2000/svg" version="1.1" width="3001px" height="3001px" style="shape-rendering:geometricPrecision; text-rendering:geometricPrecision; image-rendering:optimizeQuality; fill-rule:evenodd; clip-rule:evenodd" xmlns:xlink="http://www.w3.org/1999/xlink">
<g><path style="opacity:0.981" fill="#a15646" d="M 1356.5,413.5 C 1394.44,411.924 1432.11,414.424 1469.5,421C 1481.48,422.207 1491.65,427.04 1500,435.5C 1503.06,442.559 1501.56,448.392 1495.5,453C 1490.16,457 1484.16,459.333 1477.5,460C 1437.8,460.005 1398.14,461.005 1358.5,463C 1305.98,467.836 1255.31,480.17 1206.5,500C 1185.19,509.648 1165.19,521.315 1146.5,535C 1131.26,544.474 1115.93,544.807 1100.5,536C 1089.61,524.428 1089.94,513.095 1101.5,502C 1136.41,473.203 1175.75,452.203 1219.5,439C 1264.17,424.446 1309.84,415.946 1356.5,413.5 Z"/></g>
<g><path style="opacity:0.995" fill="#a15646" d="M 1641.5,430.5 C 1731.75,434.182 1794.25,477.515 1829,560.5C 1854.53,635.474 1844.86,705.474 1800,770.5C 1746.78,837.359 1677.94,863.192 1593.5,848C 1525.04,828.88 1478.21,786.047 1453,719.5C 1430.38,649.493 1438.72,583.493 1478,521.5C 1517.85,464.99 1572.35,434.657 1641.5,430.5 Z"/></g>
<g><path style="opacity:0.991" fill="#385b41" d="M 1039.5,512.5 C 1042.81,511.974 1044.97,513.307 1046,516.5C 1074.99,568.502 1105.99,619.169 1139,668.5C 1150.95,685.868 1164.45,702.035 1179.5,717C 1196.17,731 1212.83,745 1229.5,759C 1243.16,768.499 1257.16,777.499 1271.5,786C 1276.83,790 1282.17,794 1287.5,798C 1313.13,819.961 1338.46,842.295 1363.5,865C 1380.5,876.5 1397.83,887.5 1415.5,898C 1429.15,906.308 1441.65,916.142 1453,927.5C 1465.4,957.871 1455.56,977.038 1423.5,985C 1408.29,988.112 1393.62,986.445 1379.5,980C 1359.31,969.41 1340.31,957.077 1322.5,943C 1303.95,927.12 1284.29,912.787 1263.5,900C 1248.28,892.774 1239.28,897.441 1236.5,914C 1238.26,925.679 1243.09,935.846 1251,944.5C 1306.91,996.743 1361.91,1050.08 1416,1104.5C 1434.41,1123.57 1452.07,1143.24 1469,1163.5C 1473.4,1169.57 1477.4,1175.9 1481,1182.5C 1486.07,1192.9 1485.4,1202.9 1479,1212.5C 1472.43,1218.35 1464.93,1219.85 1456.5,1217C 1451.6,1215.55 1446.93,1213.55 1442.5,1211C 1432.93,1204.76 1423.93,1197.76 1415.5,1190C 1394.94,1170.11 1375.11,1149.61 1356,1128.5C 1314.24,1080.74 1271.74,1033.57 1228.5,987C 1224.6,983.634 1220.1,981.467 1215,980.5C 1210.57,981.269 1207.73,983.769 1206.5,988C 1207.54,993.131 1209.38,997.965 1212,1002.5C 1218.61,1012.78 1225.61,1022.78 1233,1032.5C 1261.2,1064.58 1288.2,1097.58 1314,1131.5C 1347.76,1171.25 1380.76,1211.59 1413,1252.5C 1420.24,1264.54 1423.57,1277.54 1423,1291.5C 1421.53,1301.31 1416.03,1307.81 1406.5,1311C 1397.79,1312.72 1389.79,1311.05 1382.5,1306C 1373.07,1298.57 1364.23,1290.4 1356,1281.5C 1308.45,1219.29 1262.45,1155.95 1218,1091.5C 1206.33,1076.17 1194.67,1060.83 1183,1045.5C 1178.07,1040.04 1172.07,1036.37 1165,1034.5C 1153.99,1036.21 1148.99,1042.55 1150,1053.5C 1153.64,1065.12 1158.64,1076.12 1165,1086.5C 1184.68,1116.53 1205.35,1145.87 1227,1174.5C 1255,1210.5 1283,1246.5 1311,1282.5C 1321.72,1296.89 1332.06,1311.56 1342,1326.5C 1347.51,1338.35 1346.84,1350.02 1340,1361.5C 1328.7,1372.97 1316.87,1373.47 1304.5,1363C 1289.67,1350.83 1276.17,1337.33 1264,1322.5C 1248.51,1302.86 1233.51,1282.86 1219,1262.5C 1188.74,1215.65 1157.74,1169.32 1126,1123.5C 1114.47,1107.31 1101.64,1092.15 1087.5,1078C 1076.4,1070.3 1068.57,1072.8 1064,1085.5C 1063.04,1100 1066.04,1113.66 1073,1126.5C 1079.16,1138.16 1085.83,1149.5 1093,1160.5C 1124.83,1206.82 1156.16,1253.49 1187,1300.5C 1195.17,1313.35 1199.51,1327.35 1200,1342.5C 1197.41,1350.76 1192.25,1356.93 1184.5,1361C 1171.91,1365.96 1159.91,1364.63 1148.5,1357C 1137.79,1349.96 1127.96,1341.8 1119,1332.5C 1100.86,1312.03 1083.86,1290.7 1068,1268.5C 1033.94,1217.44 1000.27,1166.1 967,1114.5C 931.832,1060.84 901.832,1004.18 877,944.5C 855.853,901.412 831.519,860.412 804,821.5C 784,793.5 764,765.5 744,737.5C 741.709,729.351 743.375,722.018 749,715.5C 752,711.833 755,708.167 758,704.5C 829.68,637.743 908.514,580.91 994.5,534C 1009.35,526.24 1024.35,519.074 1039.5,512.5 Z"/></g>
<g><path style="opacity:0.979" fill="#a15646" d="M 1895.5,519.5 C 1928.84,519.724 1961.18,525.557 1992.5,537C 2069.39,567.25 2139.06,608.917 2201.5,662C 2213.44,672.934 2224.27,684.767 2234,697.5C 2240.05,707.698 2241.05,718.365 2237,729.5C 2230.9,737.11 2223.07,739.61 2213.5,737C 2206.25,734.378 2199.59,730.711 2193.5,726C 2162.66,698.485 2130.66,672.485 2097.5,648C 2060.27,623.219 2020.61,602.885 1978.5,587C 1956.05,579.052 1933.38,571.719 1910.5,565C 1899.76,561.551 1890.59,555.718 1883,547.5C 1878.75,540.358 1878.41,533.025 1882,525.5C 1886.12,522.414 1890.62,520.414 1895.5,519.5 Z"/></g>
<g><path style="opacity:0.993" fill="#385b41" d="M 2298.5,756.5 C 2300.86,756.337 2303.19,756.503 2305.5,757C 2317.72,768.215 2328.88,780.382 2339,793.5C 2398.59,874.968 2451.93,960.635 2499,1050.5C 2500.32,1053.43 2500.98,1056.43 2501,1059.5C 2420.85,1111.66 2342.35,1166.16 2265.5,1223C 2253.83,1232.67 2242.17,1242.33 2230.5,1252C 2204.76,1283.74 2175.76,1312.07 2143.5,1337C 2083.06,1381.44 2022.06,1425.11 1960.5,1468C 1950.36,1474.32 1939.36,1478.16 1927.5,1479.5C 1920.66,1478.83 1914.32,1476.66 1908.5,1473C 1905.24,1469.13 1903.57,1464.63 1903.5,1459.5C 1906.38,1438.23 1915.72,1420.4 1931.5,1406C 1962.21,1379.62 1993.21,1353.62 2024.5,1328C 2037.41,1317.09 2048.91,1304.93 2059,1291.5C 2062.87,1281.38 2060.04,1273.55 2050.5,1268C 2042.02,1265.24 2033.68,1265.9 2025.5,1270C 2019.01,1273.08 2012.68,1276.41 2006.5,1280C 1953.83,1315.67 1901.17,1351.33 1848.5,1387C 1827.81,1400.01 1806.48,1412.01 1784.5,1423C 1773.05,1428.36 1761.05,1431.86 1748.5,1433.5C 1737.26,1432.44 1730.1,1426.44 1727,1415.5C 1725.24,1405.21 1726.91,1395.55 1732,1386.5C 1734.89,1381.22 1738.39,1376.39 1742.5,1372C 1771.83,1348.67 1801.17,1325.33 1830.5,1302C 1879.81,1267.67 1929.81,1234.34 1980.5,1202C 1986.33,1197.5 1991.5,1192.33 1996,1186.5C 2001.81,1176.05 2000.31,1166.89 1991.5,1159C 1984.57,1155.85 1977.57,1155.85 1970.5,1159C 1941.24,1172.63 1912.57,1187.3 1884.5,1203C 1818.67,1239.08 1753.01,1275.41 1687.5,1312C 1676.32,1317.41 1664.65,1319.07 1652.5,1317C 1644.76,1314.26 1639.26,1309.09 1636,1301.5C 1630.11,1289.46 1630.11,1277.46 1636,1265.5C 1638.5,1263 1641,1260.5 1643.5,1258C 1675.65,1235.42 1708.65,1214.09 1742.5,1194C 1796.48,1165.68 1849.81,1136.35 1902.5,1106C 1915.96,1099.21 1925.13,1088.71 1930,1074.5C 1932.69,1061.04 1927.85,1051.54 1915.5,1046C 1911.5,1045.33 1907.5,1045.33 1903.5,1046C 1887.53,1049.13 1871.53,1052.13 1855.5,1055C 1822.86,1058.23 1791.53,1053.23 1761.5,1040C 1744.04,1031.9 1733.71,1018.4 1730.5,999.5C 1731.54,988.919 1736.54,980.752 1745.5,975C 1762.01,965.08 1779.34,956.746 1797.5,950C 1842.37,933.7 1888.03,920.033 1934.5,909C 1969.86,901.461 2005.19,893.794 2040.5,886C 2073.6,876.116 2105.6,863.449 2136.5,848C 2173.17,826.667 2209.83,805.333 2246.5,784C 2263.77,774.533 2281.1,765.366 2298.5,756.5 Z"/></g>
<g><path style="opacity:0.981" fill="#a15646" d="M 682.5,786.5 C 694.862,785.598 704.028,790.598 710,801.5C 718.136,816.039 718.469,830.705 711,845.5C 695,865.5 679,885.5 663,905.5C 645.872,928.739 631.539,953.739 620,980.5C 604.501,1019.66 587.835,1058.33 570,1096.5C 566.869,1103.26 562.036,1108.43 555.5,1112C 540.494,1114.92 530.994,1109.09 527,1094.5C 526.333,1086.83 526.333,1079.17 527,1071.5C 554.073,976.35 597.74,890.017 658,812.5C 662.38,807.789 666.38,802.789 670,797.5C 673.767,793.224 677.934,789.557 682.5,786.5 Z"/></g>
<g><path style="opacity:0.983" fill="#a15646" d="M 2488.5,1097.5 C 2503.64,1095.82 2514.48,1101.82 2521,1115.5C 2569.03,1239.33 2591.69,1367.66 2589,1500.5C 2586.08,1510.42 2579.58,1516.58 2569.5,1519C 2553.24,1522.39 2542.07,1516.56 2536,1501.5C 2536.99,1373.12 2514.32,1249.12 2468,1129.5C 2467.01,1113.81 2473.85,1103.14 2488.5,1097.5 Z"/></g>
<g><path style="opacity:0.978" fill="#385b41" d="M 1792.5,1098.5 C 1796.18,1098.33 1799.85,1098.5 1803.5,1099C 1805.68,1099.16 1807.51,1100 1809,1101.5C 1809.65,1104.59 1809.32,1107.59 1808,1110.5C 1802.29,1119.22 1795.45,1127.05 1787.5,1134C 1762.4,1154.75 1735.4,1172.75 1706.5,1188C 1688.1,1196.73 1668.77,1200.07 1648.5,1198C 1638.46,1196.88 1629.96,1192.71 1623,1185.5C 1617.78,1176.16 1618.78,1167.49 1626,1159.5C 1636.88,1148.97 1649.38,1140.8 1663.5,1135C 1705.44,1118.6 1748.44,1106.44 1792.5,1098.5 Z"/></g>
<g><path style="opacity:0.995" fill="#a15646" d="M 621.5,1141.5 C 692.36,1138.05 752.194,1161.72 801,1212.5C 850.339,1270.87 861.339,1335.87 834,1407.5C 810.903,1456.26 774.07,1490.1 723.5,1509C 654.717,1532.43 589.05,1525.76 526.5,1489C 450.303,1437.43 422.137,1366.6 442,1276.5C 459.514,1224.98 492.681,1187.15 541.5,1163C 567.027,1151.12 593.694,1143.95 621.5,1141.5 Z"/></g>
<g><path style="opacity:0.992" fill="#385b41" d="M 1444.5,1393.5 C 1503.33,1391.22 1544.5,1416.89 1568,1470.5C 1584.26,1522.96 1572.1,1567.46 1531.5,1604C 1498.71,1628.69 1462.38,1635.69 1422.5,1625C 1373.33,1607.82 1345.5,1573.32 1339,1521.5C 1336.75,1472.5 1356.25,1435 1397.5,1409C 1412.33,1400.89 1428,1395.72 1444.5,1393.5 Z"/></g>
<g><path style="opacity:0.982" fill="#a15646" d="M 438.5,1475.5 C 456.763,1473.26 467.096,1481.1 469.5,1499C 462.814,1552.21 462.981,1605.38 470,1658.5C 477.816,1703.24 484.983,1748.08 491.5,1793C 491.509,1817.36 480.176,1825.7 457.5,1818C 450.84,1813.67 446.007,1807.84 443,1800.5C 430.381,1750.4 420.714,1699.74 414,1648.5C 409.191,1598.47 409.524,1548.47 415,1498.5C 418.09,1485.91 425.924,1478.24 438.5,1475.5 Z"/></g>
<g><path style="opacity:0.995" fill="#a15646" d="M 2328.5,1480.5 C 2400.6,1477.26 2464.27,1498.42 2519.5,1544C 2554.26,1574.78 2576.43,1612.95 2586,1658.5C 2595.07,1739.87 2564.57,1801.37 2494.5,1843C 2433.86,1875.2 2370.2,1882.87 2303.5,1866C 2239.94,1849.68 2190.44,1814.18 2155,1759.5C 2126.64,1710.8 2121.64,1659.8 2140,1606.5C 2160.66,1558.5 2194.83,1523.67 2242.5,1502C 2270.11,1490.1 2298.78,1482.93 2328.5,1480.5 Z"/></g>
<g><path style="opacity:0.992" fill="#a15646" d="M 1027.5,1481.5 C 1033.53,1480.97 1039.2,1482.13 1044.5,1485C 1046.9,1487.06 1049.57,1488.73 1052.5,1490C 1054.62,1491.73 1056.12,1493.9 1057,1496.5C 1059.61,1514.11 1057.28,1531.11 1050,1547.5C 1037.11,1560.73 1023.27,1572.89 1008.5,1584C 976.116,1608.72 943.449,1633.05 910.5,1657C 900.167,1665.33 889.833,1673.67 879.5,1682C 870.818,1690.52 863.985,1700.36 859,1711.5C 853.423,1729.03 859.589,1739.36 877.5,1742.5C 881.693,1742.6 885.693,1741.77 889.5,1740C 906.833,1729.67 924.167,1719.33 941.5,1709C 982.006,1681.91 1022.34,1654.58 1062.5,1627C 1102.01,1603.58 1143.34,1583.91 1186.5,1568C 1195.28,1565.06 1204.28,1563.22 1213.5,1562.5C 1226.73,1564.4 1234.4,1572.07 1236.5,1585.5C 1236.42,1593.72 1233.42,1600.56 1227.5,1606C 1195.02,1626.46 1162.02,1646.13 1128.5,1665C 1073.51,1701.17 1017.51,1735.84 960.5,1769C 950.778,1774.72 942.278,1781.89 935,1790.5C 929.224,1799.25 929.057,1808.08 934.5,1817C 936.278,1817.7 938.112,1818.2 940,1818.5C 960.492,1813.45 979.659,1805.28 997.5,1794C 1007.82,1786.17 1018.49,1778.84 1029.5,1772C 1082.17,1741 1134.83,1710 1187.5,1679C 1206,1667.58 1224.34,1655.92 1242.5,1644C 1254.37,1637.43 1267.04,1635.09 1280.5,1637C 1288.48,1638.98 1293.98,1643.81 1297,1651.5C 1301.55,1665.19 1301.55,1678.85 1297,1692.5C 1294.74,1695.89 1291.9,1698.72 1288.5,1701C 1275.49,1709.17 1262.16,1716.84 1248.5,1724C 1230.83,1732.33 1213.17,1740.67 1195.5,1749C 1133.67,1783.41 1073.33,1820.07 1014.5,1859C 1004.08,1866.12 994.581,1874.29 986,1883.5C 980.018,1901.04 977.685,1919.04 979,1937.5C 980.339,1943.67 984.172,1946.67 990.5,1946.5C 1009.51,1943.06 1028.51,1939.56 1047.5,1936C 1078.78,1931.13 1110.11,1930.47 1141.5,1934C 1152.55,1937.38 1160.05,1944.55 1164,1955.5C 1167.82,1967.77 1167.15,1979.77 1162,1991.5C 1158.39,1996.57 1153.56,2000.07 1147.5,2002C 1126.2,2008.53 1104.53,2013.53 1082.5,2017C 1040.46,2023.45 998.465,2030.12 956.5,2037C 909.629,2046.44 864.963,2062.1 822.5,2084C 777.663,2110.25 732.663,2136.25 687.5,2162C 679.5,2166 671.5,2170 663.5,2174C 660.594,2175.32 657.594,2175.65 654.5,2175C 642.24,2164.07 631.406,2151.91 622,2138.5C 565.26,2055.06 514.593,1967.73 470,1876.5C 467.165,1870.66 465.165,1864.66 464,1858.5C 559.544,1795.28 653.711,1730.12 746.5,1663C 811.102,1622.06 875.435,1580.73 939.5,1539C 958.833,1524.67 978.167,1510.33 997.5,1496C 1006.93,1489.78 1016.93,1484.95 1027.5,1481.5 Z"/></g>
<g><path style="opacity:0.992" fill="#a15646" d="M 1673.5,1615.5 C 1677.6,1615.23 1681.6,1615.73 1685.5,1617C 1698.38,1623.27 1710.05,1631.27 1720.5,1641C 1744.9,1664.38 1767.07,1689.55 1787,1716.5C 1807.41,1745.65 1827.08,1775.32 1846,1805.5C 1864.51,1832.35 1884.18,1858.35 1905,1883.5C 1913.98,1893.83 1924.15,1902.66 1935.5,1910C 1945.35,1910.82 1950.02,1906.15 1949.5,1896C 1946.85,1878.73 1941.02,1862.56 1932,1847.5C 1916.12,1820.96 1899.46,1794.96 1882,1769.5C 1858.16,1737.32 1835.5,1704.32 1814,1670.5C 1810.17,1663.84 1807.17,1656.84 1805,1649.5C 1803.72,1635.76 1809.88,1627.26 1823.5,1624C 1829.65,1623.22 1835.65,1623.88 1841.5,1626C 1858.01,1634.84 1872.51,1646.34 1885,1660.5C 1902.15,1680.65 1918.15,1701.65 1933,1723.5C 1967.73,1777.23 2002.06,1831.23 2036,1885.5C 2068.72,1938.28 2096.72,1993.61 2120,2051.5C 2143.81,2099.81 2171.14,2145.81 2202,2189.5C 2217.58,2210.99 2232.91,2232.66 2248,2254.5C 2249.43,2258.41 2249.77,2262.41 2249,2266.5C 2247.17,2271.66 2244.5,2276.33 2241,2280.5C 2222.41,2299.76 2202.58,2317.59 2181.5,2334C 2127.28,2376.79 2070.61,2416.12 2011.5,2452C 1998.24,2459.71 1984.41,2466.21 1970,2471.5C 1968.39,2470.9 1967.06,2469.9 1966,2468.5C 1918.4,2409.56 1868.57,2352.39 1816.5,2297C 1794.83,2278.67 1773.17,2260.33 1751.5,2242C 1728.67,2225.75 1705.67,2209.75 1682.5,2194C 1660.23,2174.4 1638.56,2154.07 1617.5,2133C 1594.17,2114.33 1570.83,2095.67 1547.5,2077C 1537.56,2068.06 1528.72,2058.23 1521,2047.5C 1515.84,2026 1523.67,2011.5 1544.5,2004C 1564.67,1996.94 1584.67,1997.61 1604.5,2006C 1618.8,2011.99 1631.8,2019.99 1643.5,2030C 1660.43,2049.27 1679.43,2065.94 1700.5,2080C 1712.58,2087.79 1725.74,2092.62 1740,2094.5C 1752.63,2092.23 1755.97,2085.23 1750,2073.5C 1742.55,2060.05 1733.55,2047.71 1723,2036.5C 1675.77,1989.94 1627.94,1944.1 1579.5,1899C 1554.46,1875.67 1532.63,1849.84 1514,1821.5C 1507.9,1811.98 1504.07,1801.64 1502.5,1790.5C 1504.3,1771.93 1513.97,1766.09 1531.5,1773C 1542.7,1778.76 1553.03,1785.76 1562.5,1794C 1631.92,1860.42 1699.58,1928.42 1765.5,1998C 1769.36,2001.43 1773.7,2004.1 1778.5,2006C 1788.45,2005.78 1791.29,2000.95 1787,1991.5C 1782.75,1982.67 1777.75,1974.34 1772,1966.5C 1752.42,1940.92 1732.09,1915.92 1711,1891.5C 1678.43,1848.92 1645.09,1806.92 1611,1765.5C 1602.67,1754.5 1594.33,1743.5 1586,1732.5C 1577.09,1717.44 1571.59,1701.27 1569.5,1684C 1568.79,1674.38 1573.12,1668.38 1582.5,1666C 1593.22,1664.79 1602.89,1667.46 1611.5,1674C 1621.94,1682.43 1631.77,1691.6 1641,1701.5C 1684,1758.17 1727,1814.83 1770,1871.5C 1789.76,1897.17 1810.6,1922 1832.5,1946C 1843.36,1954.41 1851.03,1952.07 1855.5,1939C 1854.36,1934.23 1852.53,1929.73 1850,1925.5C 1804.13,1856.63 1754.8,1790.29 1702,1726.5C 1687.93,1708.03 1674.59,1689.03 1662,1669.5C 1654.25,1658.51 1651.92,1646.51 1655,1633.5C 1656.27,1629.13 1658.43,1625.3 1661.5,1622C 1665.43,1619.54 1669.43,1617.37 1673.5,1615.5 Z"/></g>
<g><path style="opacity:0.98" fill="#a15646" d="M 1271.5,1773.5 C 1278.87,1773.38 1285.87,1774.88 1292.5,1778C 1297.54,1781.9 1300.71,1787.07 1302,1793.5C 1305.85,1806.45 1306.18,1819.45 1303,1832.5C 1300.07,1841.1 1294.24,1846.6 1285.5,1849C 1223.27,1865.08 1160.94,1880.74 1098.5,1896C 1075.56,1901.69 1052.39,1906.19 1029,1909.5C 1025.5,1909.49 1024.17,1907.82 1025,1904.5C 1031.92,1897.58 1039.42,1891.41 1047.5,1886C 1104.31,1848.59 1163.64,1815.25 1225.5,1786C 1240.46,1779.93 1255.79,1775.76 1271.5,1773.5 Z"/></g>
<g><path style="opacity:0.979" fill="#a15646" d="M 2464.5,1911.5 C 2477.16,1909.28 2487.66,1912.95 2496,1922.5C 2499.21,1928.11 2500.21,1934.11 2499,1940.5C 2459.54,2048.97 2404.04,2147.8 2332.5,2237C 2318.15,2243.45 2305.65,2240.95 2295,2229.5C 2288.36,2216.9 2289.36,2204.9 2298,2193.5C 2361.37,2111.47 2411.37,2021.47 2448,1923.5C 2452.23,1917.64 2457.73,1913.64 2464.5,1911.5 Z"/></g>
<g><path style="opacity:0.995" fill="#a15646" d="M 1286.5,2098.5 C 1373.35,2095.83 1437.85,2132.16 1480,2207.5C 1505.67,2259.89 1510.67,2314.22 1495,2370.5C 1476.43,2431.4 1438.27,2475.23 1380.5,2502C 1305.63,2530.45 1237.3,2519.45 1175.5,2469C 1121.53,2417.77 1098.36,2354.94 1106,2280.5C 1116.11,2209.11 1152.28,2155.61 1214.5,2120C 1237.33,2108.46 1261.33,2101.3 1286.5,2098.5 Z"/></g>
<g><path style="opacity:0.978" fill="#a15646" d="M 724.5,2182.5 C 732.148,2182 739.148,2183.83 745.5,2188C 784.463,2237.3 828.463,2281.63 877.5,2321C 932.129,2361.33 989.463,2397.66 1049.5,2430C 1057.71,2434.84 1064.21,2441.34 1069,2449.5C 1072.66,2469.34 1064.49,2480.68 1044.5,2483.5C 1041.47,2483.19 1038.47,2482.69 1035.5,2482C 907.872,2418.89 797.705,2333.06 705,2224.5C 696.667,2207.65 700.501,2194.48 716.5,2185C 719.31,2184.22 721.977,2183.38 724.5,2182.5 Z"/></g>
<g><path style="opacity:0.978" fill="#a15646" d="M 1891.5,2449.5 C 1911.11,2450.04 1917.94,2459.7 1912,2478.5C 1908.88,2483.29 1905.38,2487.79 1901.5,2492C 1885.26,2504.29 1867.6,2514.29 1848.5,2522C 1784.71,2546.7 1719.04,2564.7 1651.5,2576C 1629.94,2579.14 1608.27,2581.14 1586.5,2582C 1551.17,2583.09 1515.84,2583.43 1480.5,2583C 1469.43,2581.04 1465.26,2574.54 1468,2563.5C 1473.14,2553.03 1481.31,2546.19 1492.5,2543C 1528.19,2542.18 1563.86,2540.51 1599.5,2538C 1637.09,2532.41 1674.43,2525.41 1711.5,2517C 1756.17,2504.33 1800.17,2489.66 1843.5,2473C 1859.45,2464.86 1875.45,2457.03 1891.5,2449.5 Z"/></g>
</svg>
