<svg width="256" height="256" viewBox="0 0 256 256" fill="none" xmlns="http://www.w3.org/2000/svg">
<rect width="256" height="256" rx="51.2" fill="#1D1D39"/>
<path d="M108.918 200.891C106.114 200.891 102.764 200.577 98.8683 199.95C95.1287 199.479 91.3892 198.303 87.6496 196.421C84.0658 194.382 81.0274 191.246 78.5344 187.012C76.0414 182.777 74.7948 177.053 74.7948 169.839V96.9133H58.2005C55.24 96.9133 53.7598 95.4235 53.7598 92.4437C53.7598 90.8754 54.4609 89.5424 55.8633 88.4446L87.6496 57.1572C87.9612 56.8436 88.4287 56.4515 89.0519 55.981C89.831 55.3537 90.688 55.04 91.6229 55.04C92.8694 55.04 93.8822 55.5105 94.6613 56.4515C95.5962 57.3925 96.0636 58.4903 96.0636 59.7449V78.5644H122.474C125.123 78.5644 127.305 79.4269 129.019 81.152C130.733 82.8772 131.59 85.0728 131.59 87.7389C131.59 90.2481 130.733 92.4437 129.019 94.3257C127.305 96.0508 125.123 96.9133 122.474 96.9133H96.0636V167.957C96.0636 172.505 96.9206 175.798 98.6346 177.837C100.349 179.876 102.374 181.13 104.711 181.601C107.204 181.915 109.386 182.071 111.256 182.071C114.995 182.071 117.722 181.758 119.436 181.13C121.306 180.346 123.253 179.954 125.279 179.954C127.46 179.954 129.408 180.738 131.122 182.307C132.836 183.875 133.693 185.914 133.693 188.423C133.693 192.03 131.901 194.775 128.317 196.657C125.513 197.911 122.474 198.931 119.202 199.715C116.086 200.499 112.658 200.891 108.918 200.891Z" fill="white"/>
<path d="M202.24 174.928C202.24 189.305 190.66 200.96 176.376 200.96C162.092 200.96 150.512 189.305 150.512 174.928C150.512 160.551 162.092 148.896 176.376 148.896C190.66 148.896 202.24 160.551 202.24 174.928Z" fill="#FF5A00"/>
</svg>
